<?xml version="1.0" standalone="no"?>
<!DOCTYPE svg PUBLIC "-//W3C//DTD SVG 20010904//EN"
 "http://www.w3.org/TR/2001/REC-SVG-20010904/DTD/svg10.dtd">
<svg version="1.0" xmlns="http://www.w3.org/2000/svg"
 width="700.000000pt" height="700.000000pt" viewBox="0 0 700.000000 700.000000"
 preserveAspectRatio="xMidYMid meet">
<metadata>
Created by potrace 1.11, written by Peter Selinger 2001-2013
</metadata>
<g transform="translate(0.000000,700.000000) scale(0.100000,-0.100000)"
fill="#000000" stroke="none">
<path d="M3298 6995 c-2 -1 -41 -5 -88 -9 -100 -7 -225 -22 -295 -36 -27 -5
-61 -12 -75 -14 -209 -38 -523 -132 -677 -202 -28 -13 -54 -24 -58 -24 -11 0
-280 -136 -355 -180 -99 -57 -244 -152 -248 -162 -2 -5 -10 -8 -17 -8 -7 0
-15 -3 -17 -8 -1 -4 -28 -25 -58 -47 -156 -113 -406 -345 -558 -518 -203 -232
-411 -559 -552 -871 -79 -175 -189 -508 -216 -656 -3 -14 -14 -71 -24 -128
-11 -57 -23 -127 -26 -155 -3 -29 -7 -63 -10 -77 -25 -152 -25 -658 1 -811 2
-13 7 -51 10 -84 15 -147 88 -452 154 -645 233 -677 646 -1242 1226 -1681 67
-51 224 -157 270 -183 17 -9 53 -30 80 -46 313 -185 750 -343 1130 -408 66
-12 136 -24 155 -28 55 -10 757 -14 840 -4 103 13 151 19 180 25 28 6 70 13
115 21 69 11 278 66 390 102 312 101 603 243 874 425 67 45 279 203 291 216 3
3 43 40 89 81 413 367 744 846 939 1360 67 177 150 467 167 580 5 38 15 93 20
110 2 8 7 44 10 80 4 36 9 74 11 85 25 123 24 698 -1 820 -2 11 -7 39 -9 63
-11 91 -38 232 -67 347 -17 66 -32 127 -34 135 -12 55 -84 259 -126 362 -104
251 -267 546 -411 738 -101 136 -228 281 -357 410 -184 183 -199 196 -358 317
-418 317 -886 531 -1391 638 -98 20 -245 43 -392 60 -55 7 -526 16 -532 10z
m437 -1320 c305 -42 487 -96 730 -215 352 -172 634 -420 857 -751 150 -223
284 -547 323 -782 3 -18 10 -57 15 -88 31 -171 33 -483 5 -654 -41 -249 -94
-422 -200 -641 -234 -488 -653 -876 -1165 -1079 -101 -40 -303 -100 -373 -110
-23 -4 -64 -11 -90 -16 -82 -15 -196 -23 -337 -23 -122 0 -306 11 -321 20 -3
1 -28 6 -55 9 -152 20 -410 105 -592 194 -281 139 -557 361 -742 597 -73 94
-200 283 -200 299 0 3 -10 22 -23 43 -83 134 -184 430 -222 647 -30 176 -40
411 -24 575 52 513 268 976 622 1333 192 193 357 312 592 427 230 114 513 196
740 215 44 4 81 8 83 9 5 6 331 -2 377 -9z"/>
</g>
</svg>
