<?xml version="1.0" encoding="UTF-8" standalone="no"?>
<svg width="48px" height="48px" viewBox="0 0 48 48" version="1.1" xmlns="http://www.w3.org/2000/svg" xmlns:xlink="http://www.w3.org/1999/xlink">
    <!-- Generator: Sketch 41.2 (35397) - http://www.bohemiancoding.com/sketch -->
    <title>лечение экспорт</title>
    <desc>Created with Sketch.</desc>
    <defs></defs>
    <g id="slide" stroke="none" stroke-width="1" fill="none" fill-rule="evenodd">
        <g id="20161117-layout3-kudago" transform="translate(-4120.000000, -389.000000)"></g>
        <g id="лечение-экспорт">
            <g id="лечение">
                <g>
                    <rect id="Rectangle-2" x="0" y="0" width="48" height="48"></rect>
                    <path d="M28.1521739,12.6122449 C28.1521739,10.0736796 26.0661321,8 23.5,8 C20.9338679,8 18.8478261,10.0736796 18.8478261,12.6122449 L18.8478261,29.0172944 L18.4077716,29.5657494 C17.4921202,30.706957 17,32.0990773 17,33.5510204 C17,37.1024404 19.915057,40 23.5,40 C27.084943,40 30,37.1024404 30,33.5510204 C30,32.0990773 29.5078798,30.706957 28.5922284,29.5657494 L28.1521739,29.0172944 L28.1521739,12.6122449 Z" id="Path" fill="#FFFFFF"></path>
                    <path d="M28.1521739,12.6122449 C28.1521739,10.0736796 26.0661321,8 23.5,8 C20.9338679,8 18.8478261,10.0736796 18.8478261,12.6122449 L18.8478261,29.0172944 L18.4077716,29.5657494 C17.4921202,30.706957 17,32.0990773 17,33.5510204 C17,37.1024404 19.915057,40 23.5,40 C27.084943,40 30,37.1024404 30,33.5510204 C30,32.0990773 29.5078798,30.706957 28.5922284,29.5657494 L28.1521739,29.0172944 L28.1521739,12.6122449 Z M30.1521739,12.6122449 L30.1521739,28.3141224 C31.3488261,29.805551 32,31.6378776 32,33.5510204 C32,38.2097143 28.1868261,42 23.5,42 C18.8131739,42 15,38.2097143 15,33.5510204 C15,31.6378776 15.6511739,29.805551 16.8478261,28.3141224 L16.8478261,12.6122449 C16.8478261,8.96669388 19.8316957,6 23.5,6 C27.1683043,6 30.1521739,8.96669388 30.1521739,12.6122449 Z" id="Path" fill="#222629"></path>
                    <path d="M34.2426407,17.2426407 L33.2426407,17.2426407 C32.6903559,17.2426407 32.2426407,16.7949254 32.2426407,16.2426407 C32.2426407,15.6903559 32.6903559,15.2426407 33.2426407,15.2426407 L34.2426407,15.2426407 L34.2426407,14.2426407 C34.2426407,13.6903559 34.6903559,13.2426407 35.2426407,13.2426407 C35.7949254,13.2426407 36.2426407,13.6903559 36.2426407,14.2426407 L36.2426407,15.2426407 L37.2426407,15.2426407 C37.7949254,15.2426407 38.2426407,15.6903559 38.2426407,16.2426407 C38.2426407,16.7949254 37.7949254,17.2426407 37.2426407,17.2426407 L36.2426407,17.2426407 L36.2426407,18.2426407 C36.2426407,18.7949254 35.7949254,19.2426407 35.2426407,19.2426407 C34.6903559,19.2426407 34.2426407,18.7949254 34.2426407,18.2426407 L34.2426407,17.2426407 Z" id="Combined-Shape" fill="#EC1D23" transform="translate(35.242641, 16.242641) rotate(-315.000000) translate(-35.242641, -16.242641) "></path>
                    <circle id="Oval" fill="#EC1D23" cx="23.5" cy="33.5" r="3.5"></circle>
                    <rect id="Rectangle" fill="#EC1D23" x="22" y="19" width="3" height="17" rx="1.5"></rect>
                </g>
            </g>
        </g>
    </g>
</svg>