<?xml version="1.0" encoding="UTF-8" standalone="no"?>
<svg width="48px" height="48px" viewBox="0 0 48 48" version="1.1" xmlns="http://www.w3.org/2000/svg" xmlns:xlink="http://www.w3.org/1999/xlink">
    <!-- Generator: Sketch 41.2 (35397) - http://www.bohemiancoding.com/sketch -->
    <title>спорт экспорт</title>
    <desc>Created with Sketch.</desc>
    <defs></defs>
    <g id="slide" stroke="none" stroke-width="1" fill="none" fill-rule="evenodd">
        <g id="20161117-layout3-kudago" transform="translate(-3602.000000, -389.000000)"></g>
        <g id="спорт-экспорт">
            <g id="спорт">
                <g>
                    <rect id="Rectangle-2" x="0" y="0" width="48" height="48"></rect>
                    <path d="M42.0297657,20.4336078 L40.2847794,20.4336078 L40.2847794,18.3010344 C40.2847794,16.6974879 38.979734,15.3928647 37.3766097,15.3928647 C37.0329322,15.3928647 36.7074098,15.4633734 36.4013088,15.5735698 C36.3421997,13.5934136 34.7171205,12 32.7230315,12 C30.6917881,12 29.0392654,13.6525227 29.0392654,15.6837661 L29.0392654,20.4336078 L18.9590458,20.4336078 L18.9590458,15.6837661 C18.9590458,13.6525227 17.3065231,12 15.2752797,12 C13.2811906,12 11.6565337,13.5934136 11.5970023,15.5731476 C11.2909014,15.4633734 10.9658011,15.3928647 10.6221237,15.3928647 C9.01857716,15.3928647 7.71437619,16.6970657 7.71437619,18.3010344 L7.71437619,20.4336078 L5.96981212,20.4336078 C5.43402998,20.4336078 5,20.8676377 5,21.4029977 L5,26.0557315 C5,26.5915136 5.43402998,27.0251214 5.96981212,27.0251214 L7.7147984,27.0251214 L7.7147984,29.1576947 C7.7147984,30.7612413 9.01899937,32.0658645 10.6225459,32.0658645 C10.9658011,32.0658645 11.2913236,31.9953557 11.5974245,31.8855816 C11.6569559,33.8653156 13.2816128,35.4587292 15.2757019,35.4587292 C17.3069453,35.4587292 18.959468,33.8062065 18.959468,31.7749631 L18.959468,27.0251214 L29.040532,27.0251214 L29.040532,31.7749631 C29.040532,33.8062065 30.6930547,35.4587292 32.7242981,35.4587292 C34.7183872,35.4587292 36.3434663,33.8653156 36.4025755,31.8851594 C36.7086764,31.9953557 37.0337767,32.0658645 37.3778763,32.0658645 C38.9810006,32.0658645 40.286046,30.7616635 40.286046,29.1576947 L40.286046,27.0251214 L42.0310323,27.0251214 C42.5663922,27.0251214 43,26.5910914 43,26.0557315 L43,21.4029977 C42.9987334,20.8676377 42.5651256,20.4336078 42.0297657,20.4336078 Z" id="Path" fill="#000000"></path>
                    <polygon id="Path" fill="#EC1D23" points="41.0603758 25.0867638 40.2847794 25.0867638 40.2847794 22.3719654 41.0603758 22.3719654"></polygon>
                    <polygon id="Path" fill="#EC1D23" points="18.9590458 25.0867638 18.9590458 22.3719654 29.0401098 22.3719654 29.0401098 25.0867638"></polygon>
                    <polygon id="Path" fill="#EC1D23" points="6.93962423 25.0867638 6.93962423 22.3719654 7.7147984 22.3719654 7.7147984 25.0867638"></polygon>
                    <path d="M9.65315601,29.1576947 L9.65315601,27.0251214 L9.65315601,25.0867638 L9.65315601,22.3719654 L9.65315601,20.4336078 L9.65315601,18.3010344 C9.65315601,17.7665189 10.0876082,17.3316445 10.6221237,17.3316445 C11.1574836,17.3316445 11.5915136,17.7665189 11.5915136,18.3010344 L11.5915136,20.4336078 L11.5915136,22.3719654 L11.5915136,25.0867638 L11.5915136,27.0251214 L11.5915136,29.1576947 C11.5915136,29.6922103 11.1574836,30.1270847 10.6221237,30.1270847 C10.0880304,30.1270847 9.65315601,29.6922103 9.65315601,29.1576947 Z" id="Path" fill="#FFFFFF"></path>
                    <path d="M17.0206882,27.0251214 L17.0206882,31.7749631 C17.0206882,32.7371754 16.2379143,33.5195271 15.2752797,33.5195271 C14.3126451,33.5195271 13.5307156,32.7367532 13.5307156,31.7749631 L13.5307156,29.1576947 L13.5307156,27.0251214 L13.5307156,25.0867638 L13.5307156,22.3719654 L13.5307156,20.4336078 L13.5307156,18.3010344 L13.5307156,15.6837661 C13.5307156,14.7215537 14.3130673,13.939202 15.2752797,13.939202 C16.2374921,13.939202 17.0206882,14.7219759 17.0206882,15.6837661 L17.0206882,20.4336078 L17.0206882,22.3719654 L17.0206882,25.0867638 L17.0206882,27.0251214 Z" id="Path" fill="#FFFFFF"></path>
                    <path d="M34.4688621,29.1576947 L34.4688621,31.7749631 C34.4688621,32.7371754 33.6860882,33.5195271 32.7234537,33.5195271 C31.7616635,33.5195271 30.9793118,32.7367532 30.9793118,31.7749631 L30.9793118,27.0251214 L30.9793118,25.0867638 L30.9793118,22.3719654 L30.9793118,20.4336078 L30.9793118,15.6837661 C30.9793118,14.7215537 31.7616635,13.939202 32.7234537,13.939202 C33.685666,13.939202 34.4688621,14.7219759 34.4688621,15.6837661 L34.4688621,18.3010344 L34.4688621,20.4336078 L34.4688621,22.3719654 L34.4688621,25.0867638 L34.4688621,27.0251214 L34.4688621,29.1576947 Z" id="Path" fill="#FFFFFF"></path>
                    <path d="M38.3464218,27.0251214 L38.3464218,29.1576947 C38.3464218,29.6922103 37.9111252,30.1270847 37.3766097,30.1270847 C36.8420942,30.1270847 36.4067976,29.6922103 36.4067976,29.1576947 L36.4067976,27.0251214 L36.4067976,25.0867638 L36.4067976,22.3719654 L36.4067976,20.4336078 L36.4067976,18.3010344 C36.4067976,17.7665189 36.8420942,17.3316445 37.3766097,17.3316445 C37.9111252,17.3316445 38.3464218,17.7665189 38.3464218,18.3010344 L38.3464218,20.4336078 L38.3464218,22.3719654 L38.3464218,25.0867638 L38.3464218,27.0251214 Z" id="Path" fill="#FFFFFF"></path>
                </g>
            </g>
        </g>
    </g>
</svg>