<?xml version="1.0" encoding="UTF-8" standalone="no"?>
<svg width="48px" height="48px" viewBox="0 0 48 48" version="1.1" xmlns="http://www.w3.org/2000/svg" xmlns:xlink="http://www.w3.org/1999/xlink">
    <!-- Generator: Sketch 41.2 (35397) - http://www.bohemiancoding.com/sketch -->
    <title>стресс экспорт</title>
    <desc>Created with Sketch.</desc>
    <defs>
        <path d="M38.7564,20.5352 L38.5292,20.5352 L38.5292,17.1568 C38.744,14.0744 37.448,10.9152 35.2308,9.0372 C32.592,6.8024 28.6619722,6.0064 25.8403722,6 L24.9699722,5.998 C24.9275722,5.998 24.0259722,5.9984 23.9915722,5.9988 C23.9495722,5.9984 23.0479722,5.998 23.0031722,5.998 L22.1339722,6 C19.3127722,6.0064 15.4088,6.8024 12.7696,9.0372 C10.5528,10.9148 9.2568,14.074 9.4668,17.0652 L9.4712,20.5352 L9.2436,20.5352 C7.4552,20.5352 6,22.2628 6,24.3864 C6,24.5332 6.0056,24.6204 6.0116,24.6884 C6.1428,26.712 7.5324,28.2384 9.2436,28.2384 L9.4712,28.2384 L9.4712,34.6408 L9.724,34.9096 C15.9496,41.53 24,42 24,42 C24.3252,41.9968 32.05,41.53 38.2756,34.9096 L38.5288,34.6408 L38.5288,28.2384 L38.756,28.2384 C40.4672,28.2384 41.8564,26.712 41.9868,24.7072 C41.9944,24.6204 42,24.5328 42,24.4444 C42,22.2628 40.5448,20.5352 38.7564,20.5352 Z M14.4378916,36.3408486 C16.5776293,37.8215109 18.8777704,38.8302212 21.1767779,39.4499933 C21.9775837,39.6658766 22.7174257,39.8172466 23.3750004,39.9151572 C23.6796839,39.9605236 23.9040244,39.9859473 24.0368292,39.9974421 C24.2089395,39.9858659 24.6483533,39.9366779 25.1565794,39.850144 C26.1168366,39.6866443 27.169923,39.4244706 28.2754086,39.0447331 C31.2703045,38.0159778 34.0964369,36.3297531 36.5288,33.8417385 L36.5288,26.2384 L38.756,26.2384 C39.3367012,26.2384 39.9248581,25.5945337 39.9944225,24.5327522 C40,23.3040873 39.3590605,22.5352 38.7564,22.5352 L36.5292,22.5352 L36.5292,17.1568 L36.5340385,17.0177653 C36.7045305,14.571189 35.6691964,12.0295454 33.9382519,10.5634108 C32.004611,8.92581012 28.8108315,8.00674279 25.8357766,7.99999472 L24.9699722,7.998 C24.4745986,7.99822199 24.028416,7.99850679 23.9725254,7.9987093 C23.9506026,7.99850051 23.5002535,7.99821458 23.0077741,7.99799471 L22.1385092,7.99999485 C19.1719059,8.00672471 15.9989427,8.92338789 14.062225,10.5633457 C12.3388424,12.0230277 11.2958588,14.5602259 11.4618893,16.9251329 L11.4667984,17.062664 L11.4737376,22.5352 L9.2436,22.5352 C8.64304679,22.5352 8,23.2986778 8,24.3864 C8,24.4546531 8.00125866,24.4831339 8.00740964,24.5590018 C8.07444109,25.5928802 8.66212809,26.2384 9.2436,26.2384 L11.4712,26.2384 L11.4712,33.84182 C12.3900088,34.7794602 13.3821473,35.6102914 14.4378916,36.3408486 Z" id="path-1"></path>
        <mask id="mask-2" maskContentUnits="userSpaceOnUse" maskUnits="objectBoundingBox" x="0" y="0" width="36" height="36.002" fill="white">
            <use xlink:href="#path-1"></use>
        </mask>
    </defs>
    <g id="slide" stroke="none" stroke-width="1" fill="none" fill-rule="evenodd">
        <g id="20161117-layout3-kudago" transform="translate(-3670.000000, -389.000000)"></g>
        <g id="стресс-экспорт">
            <g id="стресс">
                <g id="Group">
                    <rect id="Rectangle-2" x="0" y="0" width="48" height="48"></rect>
                    <path d="M14.4378916,36.3408486 C16.5776293,37.8215109 18.8777704,38.8302212 21.1767779,39.4499933 C21.9775837,39.6658766 22.7174257,39.8172466 23.3750004,39.9151572 C23.6796839,39.9605236 23.9040244,39.9859473 24.0368292,39.9974421 C24.2089395,39.9858659 24.6483533,39.9366779 25.1565794,39.850144 C26.1168366,39.6866443 27.169923,39.4244706 28.2754086,39.0447331 C31.2703045,38.0159778 34.0964369,36.3297531 36.5288,33.8417385 L36.5288,26.2384 L38.756,26.2384 C39.3367012,26.2384 39.9248581,25.5945337 39.9944225,24.5327522 C40,23.3040873 39.3590605,22.5352 38.7564,22.5352 L36.5292,22.5352 L36.5292,17.1568 L36.5340385,17.0177653 C36.7045305,14.571189 35.6691964,12.0295454 33.9382519,10.5634108 C32.004611,8.92581012 28.8108315,8.00674279 25.8357766,7.99999472 L24.9699722,7.998 C24.4745986,7.99822199 24.028416,7.99850679 23.9725254,7.9987093 C23.9506026,7.99850051 23.5002535,7.99821458 23.0077741,7.99799471 L22.1385092,7.99999485 C19.1719059,8.00672471 15.9989427,8.92338789 14.062225,10.5633457 C12.3388424,12.0230277 11.2958588,14.5602259 11.4618893,16.9251329 L11.4667984,17.062664 L11.4737376,22.5352 L9.2436,22.5352 C8.64304679,22.5352 8,23.2986778 8,24.3864 C8,24.4546531 8.00125866,24.4831339 8.00740964,24.5590018 C8.07444109,25.5928802 8.66212809,26.2384 9.2436,26.2384 L11.4712,26.2384 L11.4712,33.84182 C12.3900088,34.7794602 13.3821473,35.6102914 14.4378916,36.3408486 Z" id="Path" fill="#FFFFFF"></path>
                    <use id="Path" stroke="#222629" mask="url(#mask-2)" stroke-width="2" xlink:href="#path-1"></use>
                    <rect id="Rectangle-Copy-2" fill="#EC1D23" x="27" y="17" width="7" height="2" rx="1"></rect>
                    <rect id="Rectangle-Copy-3" fill="#EC1D23" transform="translate(19.639559, 14.871792) rotate(-345.000000) translate(-19.639559, -14.871792) " x="16.1395594" y="13.8717925" width="7" height="2" rx="1"></rect>
                    <path d="M20.804,20.7436 C20.804,19.7529695 19.9946305,18.9436 19.004,18.9436 C18.0133695,18.9436 17.204,19.7529695 17.204,20.7436 C17.204,21.7342305 18.0133695,22.5436 19.004,22.5436 C19.9948011,22.5436 20.804,21.7344599 20.804,20.7436 Z M22.804,20.7436 C22.804,22.8392 21.0992,24.5436 19.004,24.5436 C16.9088,24.5436 15.204,22.8388 15.204,20.7436 C15.204,18.6484 16.9088,16.9436 19.004,16.9436 C21.0992,16.9436 22.804,18.6484 22.804,20.7436 Z" id="Path" fill="#222629"></path>
                    <path d="M29.0644,21.7144 C28.6253517,21.7144 28.2644,22.0753873 28.2644,22.5148 C28.2644,22.9540483 28.6251873,23.3148 29.0644,23.3148 C29.5036127,23.3148 29.8644,22.9540483 29.8644,22.5148 C29.8644,22.0752051 29.5036661,21.7144 29.0644,21.7144 Z M29.0644,19.7144 C30.6084,19.7144 31.8644,20.9708 31.8644,22.5148 C31.8644,24.0588 30.608,25.3148 29.0644,25.3148 C27.5208,25.3148 26.2644,24.0588 26.2644,22.5148 C26.2644,20.9708 27.5208,19.7144 29.0644,19.7144 Z" id="Path" fill="#222629"></path>
                    <path d="M28.9071443,31.1355862 C28.8006344,31.1157017 28.2977428,31.0178874 28.1528571,30.9907302 C25.2304622,30.4429597 23.013948,30.6151607 20.6045722,32.1814109 C20.1415262,32.4824208 20.01017,33.1018103 20.3111798,33.5648562 C20.6121897,34.0279022 21.2315792,34.1592584 21.6946252,33.8582486 C23.5855744,32.6290092 25.3188272,32.4943528 27.784396,32.9564963 C27.9200998,32.9819325 28.423938,33.0799309 28.5401032,33.1016179 C29.0830079,33.2029735 29.605284,32.8450272 29.7066396,32.3021226 C29.8079952,31.7592179 29.450049,31.2369417 28.9071443,31.1355862 Z" id="Path-2" fill="#222629"></path>
                    <path d="M23.1805704,26.0060636 C22.6373641,25.9063373 22.1161642,26.2658489 22.0164379,26.8090552 C21.9167117,27.3522615 22.2762233,27.8734614 22.8194296,27.9731877 L24.6518053,28.3095903 C25.9710963,28.5517966 26.8706119,27.4518275 26.3798595,26.2017418 L25.3720541,23.6345752 C25.1702355,23.120486 24.5898776,22.8673406 24.0757884,23.0691592 C23.5616992,23.2709777 23.3085538,23.8513356 23.5103724,24.3654248 L24.230087,26.1987425 L23.1805704,26.0060636 Z" id="Path-3" fill="#222629"></path>
                </g>
            </g>
        </g>
    </g>
</svg>