<?xml version="1.0" encoding="UTF-8"?>
<svg width="36px" height="33px" viewBox="0 0 36 33" version="1.1" xmlns="http://www.w3.org/2000/svg" xmlns:xlink="http://www.w3.org/1999/xlink">
    <defs></defs>
    <g id="Page-1" stroke="none" stroke-width="1" fill="none" fill-rule="evenodd">
        <g id="симтомы" transform="translate(-6.000000, -8.000000)">
            <rect id="Rectangle-10-Copy" x="0" y="0" width="48" height="48"></rect>
            <path d="M32.8094906,12.271308 C32.4973527,12.4788102 31.9900188,12.6929806 31.3263262,12.8872504 C29.8923008,13.3070047 27.8741519,13.5961253 25.625827,13.6904889 C25.074028,13.7136483 24.6454809,14.1797441 24.6686403,14.7315431 C24.6917997,15.283342 25.1578955,15.7118891 25.7096944,15.6887297 C31.1316698,15.4611659 35,14.328865 35,12.2242213 C35,10.5387556 32.7439466,9.5856252 29.1126525,9.06458252 C28.5659668,8.98614035 28.0592005,9.36572674 27.9807583,9.91241246 C27.9023162,10.4590982 28.2819026,10.9658644 28.8285883,11.0443066 C30.2525724,11.2486295 31.4308948,11.5393738 32.2230896,11.8740578 C32.5091003,11.9948907 32.7300616,12.1156802 32.8782466,12.2249688 C32.8585926,12.2382973 32.8358329,12.2537963 32.8094906,12.271308 Z M15.8782021,11.8323562 C16.7457262,11.4841578 18.0259405,11.1888879 19.5573515,10.9918218 C20.1051196,10.9213335 20.4920313,10.4201377 20.421543,9.87236969 C20.3510547,9.32460163 19.8498589,8.93768991 19.3020909,9.00817819 C15.434535,9.50586574 13,10.483016 13,12.2242213 C13,14.3412165 16.9253377,15.4784472 22.3984574,15.6931202 C22.9503178,15.7147659 23.4152363,15.284942 23.436882,14.7330816 C23.4585278,14.1812212 23.0287038,13.7163026 22.4768434,13.6946569 C20.2045174,13.6055291 18.1596463,13.3178052 16.704318,12.8961743 C16.0304522,12.700945 15.5146483,12.4851018 15.1966566,12.2753783 C15.1676353,12.256238 15.1428194,12.2394178 15.1216144,12.2251217 C15.288524,12.1019487 15.5443132,11.9663694 15.8782021,11.8323562 Z" id="Oval-7-Copy" fill="#EC1D23"></path>
            <path d="M29.8795528,25.1011018 C30.0795862,25.061018 30.3029269,25.0067752 30.5313682,24.9359096 C30.8236882,24.8452279 31.082749,24.7380036 31.3078162,24.6021385 C32.5215222,23.8694674 33.8242341,20.7308038 32.7481176,19.3738702 C32.5931458,19.1784578 32.2336844,18.7696285 32.20679,18.7308173 C32.1733275,18.6825275 32.1639059,18.5146101 32.2655748,17.4684294 C32.4272177,15.8051115 32.1399803,13.717805 31.2472386,11.9917959 C29.9509001,9.48548063 27.5609084,8.00780193 24.0469583,8.00000246 C17.709131,8 15.2396879,12.6551298 15.7062452,17.4560393 C15.807914,18.5022199 15.7984924,18.6701374 15.7650299,18.7184271 C15.7381355,18.7572384 15.3786742,19.1660677 15.2237023,19.36148 C14.1470849,20.7190453 15.4608956,23.8688755 16.6755822,24.6021385 C16.9002038,24.7377346 17.1575738,24.843776 17.4468029,24.9322763 C17.6733585,25.0015993 17.8947264,25.0540082 18.093625,25.0923431 C18.2074793,25.3981235 18.287982,25.9400228 18.287982,26.7589722 C18.287982,28.4765499 17.5146729,29.7474038 15.9698387,31.0875892 C15.7046539,31.3176442 15.0599008,31.5894141 13.9414536,31.9396657 C13.6059066,32.0447452 12.2574693,32.447575 11.9489672,32.5430296 C10.0909726,33.1179172 8.90614293,33.6062855 7.99955056,34.2779905 C7.16381287,34.8971983 6.61009192,35.7438022 6.29897246,36.7392766 C5.99095692,37.7248195 5.94446789,38.7394952 6.04497819,39.6649856 C6.06255115,39.826796 6.08104786,39.9493056 6.09540753,40.0258574 C6.19722989,40.5686747 6.7198136,40.9261718 7.26263093,40.8243494 C7.80544826,40.7225271 8.16294532,40.1999433 8.06112297,39.657126 C8.05591633,39.6293693 8.04506358,39.557488 8.03328706,39.4490509 C7.95992401,38.77353 7.99450717,38.0187134 8.20791401,37.3358855 C8.39966703,36.7223423 8.71903066,36.2340558 9.19018307,35.8849734 C9.85981581,35.3888347 10.8897321,34.9643192 12.5401414,34.4536612 C12.8349199,34.3624529 14.1877695,33.9583049 14.539149,33.8482673 C15.9288824,33.4130601 16.7310451,33.0749404 17.2804418,32.5983239 C19.2207295,30.9150719 20.287982,29.1611525 20.287982,26.7589722 C20.287982,25.5640907 20.1361846,24.7077079 19.8506076,24.1192289 C19.6012909,23.6054704 19.2468787,23.2981891 18.8747484,23.1976425 L18.7346658,23.1703427 C18.5692975,23.1502263 18.2927563,23.0995935 18.0319941,23.0198037 C17.8869293,22.9754158 17.7731253,22.9285264 17.7091834,22.8899269 C17.3973056,22.7016574 16.6149229,20.8259134 16.7907383,20.6042182 C16.881828,20.4893583 17.3032311,20.0100803 17.4089178,19.8575639 C17.8215436,19.2621038 17.8470335,18.8078095 17.6968674,17.2625886 C17.3292707,13.4799912 19.1753289,10 24.0447388,10 C28.8668772,10.0107055 30.6465273,13.451446 30.2749526,17.2749788 C30.1247864,18.8201996 30.1502764,19.2744939 30.5629022,19.8699541 C30.6685888,20.0224704 31.0899919,20.5017484 31.1810816,20.6166084 C31.3578147,20.8394607 30.5845069,22.7026147 30.274215,22.8899269 C30.2079068,22.9299548 30.0895222,22.9789538 29.9387982,23.0257105 C29.673979,23.107861 29.394059,23.1617181 29.2255882,23.1842082 L29.0970716,23.2100326 C28.7249412,23.3105792 28.370529,23.6178606 28.1212123,24.1316191 C27.8356353,24.720098 27.6838379,25.5764808 27.6838379,26.7713623 C27.6838379,29.1735426 28.7510904,30.927462 30.6913781,32.610714 C31.2407748,33.0873305 32.0429375,33.4254502 33.432671,33.8606575 C33.7840505,33.9706951 35.1369,34.374843 35.4316786,34.4660513 C37.0820879,34.9767094 38.1120041,35.4012248 38.7816369,35.8973636 C39.2527893,36.2464459 39.5721529,36.7347324 39.7639059,37.3482756 C39.9773128,38.0311035 40.0118959,38.7859202 39.9385329,39.461441 C39.9267564,39.5698782 39.9159036,39.6417594 39.910697,39.6695162 C39.8088746,40.2123335 40.1663717,40.7349172 40.709189,40.8367396 C41.2520063,40.9385619 41.7745901,40.5810648 41.8764124,40.0382475 C41.8907721,39.9616958 41.9092688,39.8391861 41.9268418,39.6773758 C42.027352,38.7518854 41.980863,37.7372097 41.6728475,36.7516667 C41.361728,35.7561923 40.8080071,34.9095884 39.9722694,34.2903806 C39.065677,33.6186757 37.8808474,33.1303073 36.0228527,32.5554197 C35.7143506,32.4599652 34.3659133,32.0571353 34.0303664,31.9520558 C32.9119191,31.6018042 32.2671661,31.3300343 32.0019813,31.0999793 C30.4571471,29.7597939 29.6838379,28.48894 29.6838379,26.7713623 C29.6838379,25.949161 29.7649813,25.4062144 29.8795528,25.1011018 Z" id="Path-30-Copy" fill="#222629"></path>
            <path d="M25.7096944,15.4645085 C31.1316698,15.2369446 35,14.1046437 35,12 C35,11.4477153 34.5522847,11 34,11 C33.4477153,11 33,11.4477153 33,12 C33,11.9052864 32.9783441,11.9348368 32.8094906,12.0470868 C32.4973527,12.2545889 31.9900188,12.4687594 31.3263262,12.6630292 C29.8923008,13.0827835 27.8741519,13.371904 25.625827,13.4662677 C25.074028,13.4894271 24.6454809,13.9555229 24.6686403,14.5073218 C24.6917997,15.0591208 25.1578955,15.4876678 25.7096944,15.4645085 Z M13,12 C13,14.1169953 16.9253377,15.2542259 22.3984574,15.468899 C22.9503178,15.4905447 23.4152363,15.0607207 23.436882,14.5088603 C23.4585278,13.9569999 23.0287038,13.4920814 22.4768434,13.4704356 C20.2045174,13.3813078 18.1596463,13.093584 16.704318,12.671953 C16.0304522,12.4767237 15.5146483,12.2608805 15.1966566,12.051157 C15.0232919,11.9368186 15,11.9052737 15,12 C15,11.4477153 14.5522847,11 14,11 C13.4477153,11 13,11.4477153 13,12 Z" id="Oval-7-Copy-2" fill="#EC1D23"></path>
            <path d="M21.7876776,14.3134609 L20.2729071,15.917709 C19.893742,16.3192713 19.9118986,16.9521759 20.3134609,17.331341 C20.7150233,17.710506 21.3479279,17.6923494 21.7270929,17.2907871 L23.2418634,15.6865391 C23.6210285,15.2849767 23.6028719,14.6520721 23.2013096,14.2729071 C22.7997472,13.893742 22.1668426,13.9118986 21.7876776,14.3134609 Z" id="Path-31-Copy-2" fill="#EC1D23"></path>
            <path d="M20.2729071,13.6865391 L21.7876776,15.2907871 C22.1668426,15.6923494 22.7997472,15.710506 23.2013096,15.331341 C23.6028719,14.9521759 23.6210285,14.3192713 23.2418634,13.917709 L21.7270929,12.3134609 C21.3479279,11.9118986 20.7150233,11.893742 20.3134609,12.2729071 C19.9118986,12.6520721 19.893742,13.2849767 20.2729071,13.6865391 Z" id="Path-31-Copy-3" fill="#EC1D23"></path>
        </g>
    </g>
</svg>