<?xml version="1.0" encoding="UTF-8" standalone="no"?>
<svg width="48px" height="48px" viewBox="0 0 48 48" version="1.1" xmlns="http://www.w3.org/2000/svg" xmlns:xlink="http://www.w3.org/1999/xlink">
    <!-- Generator: Sketch 41.2 (35397) - http://www.bohemiancoding.com/sketch -->
    <title>пить экспорт</title>
    <desc>Created with Sketch.</desc>
    <defs></defs>
    <g id="slide" stroke="none" stroke-width="1" fill="none" fill-rule="evenodd">
        <g id="20161117-layout3-kudago" transform="translate(-3806.000000, -389.000000)"></g>
        <g id="пить-экспорт">
            <g id="пить">
                <g>
                    <rect id="Rectangle-2" x="0" y="0" width="48" height="48"></rect>
                    <path d="M22,12 L26,12 L26,9.99791312 C26.0002353,10.0001508 22,10 22,10 L22,12 Z" id="Path" fill="#FFFFFF"></path>
                    <path d="M24,42 C27.8820151,42 31,39.1390532 31,35.7419355 C31,35.0682144 30.8326884,34.3647167 30.2825981,32.5556275 C30.2044255,32.2985401 30.1575257,32.143261 30.1240262,32.0279809 C29.4675027,30.019976 29.2,28.9768112 29.2,27.9655914 C29.2,27.0917976 29.2778895,26.7911761 29.9461744,24.5720004 C30.0072739,24.3691072 30.0567291,24.2017834 30.1025049,24.0421749 L30.1353871,23.9382902 C30.7277806,22.2299646 31,21.112535 31,20.2580645 C31,16.8609468 27.8820151,14 24,14 C20.1179849,14 17,16.8609468 17,20.2580645 C17,20.9317856 17.1673116,21.6352833 17.7174019,23.4443725 C17.7955745,23.7014599 17.8424743,23.856739 17.866134,23.9426935 C18.4987848,25.7809331 18.8,26.9382906 18.8,27.9655914 C18.8,28.8843295 18.6973292,29.2885718 18.0539999,31.4272197 C17.9920378,31.6332032 17.9430148,31.7991097 17.8974951,31.9578251 L17.8646129,32.0617098 C17.2953784,33.7032503 17,34.9300094 17,35.7419355 C17,39.1390532 20.1179849,42 24,42 Z" id="Path" fill="#FFFFFF"></path>
                    <rect id="Rectangle-Copy-2" fill="#EC1D23" x="24" y="25" width="7" height="2" rx="1"></rect>
                    <rect id="Rectangle-Copy-3" fill="#EC1D23" x="21" y="25" width="2" height="2" rx="1"></rect>
                    <path d="M24,42 C27.8820151,42 31,39.1390532 31,35.7419355 C31,35.0682144 30.8326884,34.3647167 30.2825981,32.5556275 C30.2044255,32.2985401 30.1575257,32.143261 30.1240262,32.0279809 C29.4675027,30.019976 29.2,28.9768112 29.2,27.9655914 C29.2,27.0917976 29.2778895,26.7911761 29.9461744,24.5720004 C30.0072739,24.3691072 30.0567291,24.2017834 30.1025049,24.0421749 L30.1353871,23.9382902 C30.7277806,22.2299646 31,21.112535 31,20.2580645 C31,16.8609468 27.8820151,14 24,14 C20.1179849,14 17,16.8609468 17,20.2580645 C17,20.9317856 17.1673116,21.6352833 17.7174019,23.4443725 C17.7955745,23.7014599 17.8424743,23.856739 17.866134,23.9426935 C18.4987848,25.7809331 18.8,26.9382906 18.8,27.9655914 C18.8,28.8843295 18.6973292,29.2885718 18.0539999,31.4272197 C17.9920378,31.6332032 17.9430148,31.7991097 17.8974951,31.9578251 L17.8646129,32.0617098 C17.2953784,33.7032503 17,34.9300094 17,35.7419355 C17,39.1390532 20.1179849,42 24,42 Z M24,44 C19.05,44 15,40.283871 15,35.7419355 C15,34.5032258 15.45,32.9204301 15.975,31.4064516 C16.35,30.0989247 16.8,28.8602151 16.8,27.9655914 C16.8,27.1397849 16.425,25.9010753 15.975,24.5935484 C15.525,23.0795699 15,21.5655914 15,20.2580645 C15,15.716129 19.05,12 24,12 C28.95,12 33,15.716129 33,20.2580645 C33,21.5655914 32.55,23.0795699 32.025,24.5935484 C31.65,25.9010753 31.2,27.1397849 31.2,27.9655914 C31.2,28.7913978 31.575,30.0301075 32.025,31.4064516 C32.475,32.9204301 33,34.4344086 33,35.7419355 C33,40.283871 28.95,44 24,44 Z" id="Path" fill="#222629"></path>
                    <path d="M22,12 L26,12 L26,9.99791312 C26.0002353,10.0001508 22,10 22,10 L22,12 Z M20,9.99791312 C20,8.89449617 20.8867064,8 21.9981014,8 L26.0018986,8 C27.1054196,8 28,8.89826062 28,9.99791312 L28,14 L20,14 L20,9.99791312 Z" id="Rectangle" fill="#222629"></path>
                    <path d="M22,7.5 C22,6.67157288 22.6785455,6 23.5008327,6 L24.4991673,6 C25.3280543,6 26,6.66579723 26,7.5 L26,9 L22,9 L22,7.5 Z" id="Path" fill="#222629"></path>
                </g>
            </g>
        </g>
    </g>
</svg>