<?xml version="1.0" encoding="UTF-8" standalone="no"?>
<svg width="48px" height="48px" viewBox="0 0 48 48" version="1.1" xmlns="http://www.w3.org/2000/svg" xmlns:xlink="http://www.w3.org/1999/xlink">
    <!-- Generator: Sketch 41.2 (35397) - http://www.bohemiancoding.com/sketch -->
    <title>профилактика экспорт</title>
    <desc>Created with Sketch.</desc>
    <defs></defs>
    <g id="slide" stroke="none" stroke-width="1" fill="none" fill-rule="evenodd">
        <g id="20161117-layout3-kudago" transform="translate(-3869.000000, -389.000000)"></g>
        <g id="профилактика-экспорт">
            <g id="профилактика">
                <g>
                    <rect id="Rectangle-2" x="0" y="0" width="48" height="48"></rect>
                    <path d="M33.9010348,18.6049356 C33.4494988,18.2617196 33.0192618,17.9343256 32.6255371,17.6209281 C29.0381998,14.7668802 28.0024664,11.9815973 27.7341007,10.9969812 C27.6196954,10.4827658 27.5156352,9.97159304 27.4012299,9.40808594 C27.3172515,8.99367089 27.2277963,8.55126305 27.1243447,8.05834648 C27.0933092,7.91108004 27.0653164,7.75042575 27.035498,7.58307753 C26.8133812,6.3307043 26.3995747,4 24.0001055,4 C21.6048961,4 21.198392,6.3227933 20.9799265,7.57090675 C20.9494996,7.74312328 20.9208983,7.90742881 20.8898628,8.05773794 C20.7967563,8.50014578 20.7146035,8.90239005 20.6373191,9.27968422 C20.5095259,9.90587083 20.3963377,10.4559901 20.2715872,11.0067178 C19.9971361,11.9998535 18.9522747,14.7747912 15.3752825,17.6209281 C14.9815578,17.9343256 14.5519293,18.2605025 14.1003933,18.6037185 C10.5842551,21.2764217 5.26988416,25.315295 6.08350078,31.8193596 C6.76993275,37.3029044 11.5469638,41.3904607 17.0031243,41.3898522 C17.381027,41.3898522 17.7625809,41.3703789 18.1447434,41.3302154 C18.1490032,41.3302154 18.1526544,41.3283898 18.1569142,41.3277812 C18.2920099,41.4068913 18.4289311,41.4847843 18.5695036,41.5578089 L18.1678679,42.4815711 C17.9664415,42.9440608 18.1788216,43.4814007 18.6413112,43.6822185 C18.7593678,43.7339444 18.8829012,43.7582859 19.004609,43.7582859 C19.3575616,43.7582859 19.6928666,43.5532083 19.8419586,43.2087752 L20.2569822,42.2539775 C20.6567923,42.3781195 21.0724245,42.4785284 21.4996188,42.5600727 L21.3712171,43.6743075 C21.3134059,44.1751351 21.6724439,44.6278881 22.1732715,44.6856993 C22.2085668,44.6899591 22.243862,44.6917847 22.2791573,44.6917847 C22.7361701,44.6917847 23.1311118,44.3491773 23.1846633,43.8836449 L23.3124565,42.7742784 C23.5351817,42.7852321 23.7591241,42.7925345 23.9873262,42.7925345 L24.0128848,42.7925345 C24.241087,42.7925345 24.4650293,42.7846235 24.6877546,42.7742784 L24.8155478,43.8836449 C24.8690992,44.3491773 25.264041,44.6917847 25.7210538,44.6917847 C25.756349,44.6917847 25.7916443,44.6899591 25.8269395,44.6856993 C26.3277671,44.6278881 26.6868051,44.1751351 26.6289939,43.6743075 L26.5005922,42.5600727 C26.9277866,42.4785284 27.3434187,42.3781195 27.7432288,42.2539775 L28.1582524,43.2087752 C28.3073444,43.5525997 28.643258,43.7582859 28.995602,43.7582859 C29.1167013,43.7582859 29.2402347,43.7339444 29.3588998,43.6822185 C29.8213894,43.4814007 30.033161,42.9440608 29.8323431,42.4815711 L29.4313159,41.5584175 C29.5718884,41.4847843 29.7094183,41.4074998 29.8445139,41.3277812 C29.8487737,41.3283898 29.8524249,41.3302154 29.8566847,41.3302154 C30.2394557,41.3703789 30.6204011,41.3898522 30.9983038,41.3898522 C36.4538558,41.3898522 41.2302783,37.3029044 41.9167103,31.8187511 C42.7291098,25.3159035 37.4165645,21.2770303 33.9010348,18.6049356 Z" id="Shape" fill="#222629"></path>
                    <path d="M39.8622826,31.5625562 C39.360238,35.5746537 36.1483692,38.6544695 32.273193,39.2185851 C32.6261456,38.7707004 32.9407603,38.288129 33.2036491,37.7647855 C34.1420162,35.900222 34.7030891,33.6614071 34.7055233,31.7767619 C34.7110002,27.4689144 32.9304151,23.8103781 31.2076412,20.2729409 C30.8985034,19.6382348 30.5893656,18.9925749 30.2857047,18.3432638 C30.6149243,18.6414479 30.9599659,18.9402406 31.33726,19.2402503 C31.742547,19.5627759 32.1849548,19.899298 32.6492701,20.2522506 C36.1593229,22.9206941 40.5280243,26.2420998 39.8622826,31.5625562 Z M23.9861091,40.723502 C20.5642944,40.723502 17.88794,39.3056062 16.6428692,36.8337208 C15.8426405,35.2448255 15.3637203,33.3528778 15.3618947,31.7737192 C15.3570263,27.9441834 16.9574839,24.6580729 18.6510479,21.1784469 C19.5948918,19.2396417 20.5709883,17.2345058 21.2701996,15.0973169 C21.7606821,13.5966598 22.0448698,12.5341507 22.2797658,11.5045027 C22.3564417,11.2154467 22.3929541,11.0213228 22.4051248,10.9385615 C22.4915374,10.5375343 22.5749072,10.1304217 22.6643625,9.69349072 C22.7404298,9.31984779 22.821974,8.92186329 22.914472,8.48310669 C22.9509843,8.31089016 22.9838454,8.12346015 23.0179236,7.9275106 C23.2942003,6.34956901 23.5150999,6.06903254 24.0001055,6.06903254 C24.4911965,6.06903254 24.7157474,6.35200317 24.998718,7.94454969 C25.0321876,8.13441385 25.0650487,8.31636701 25.100344,8.48371523 C25.2025785,8.97115495 25.2908167,9.40869448 25.3741865,9.81763268 C25.4539051,10.213183 25.5287554,10.5819576 25.6060399,10.945864 C25.6188192,11.0310594 25.6535059,11.2117955 25.7204452,11.4728587 C25.9529071,12.5146774 26.231618,13.5759694 26.7294029,15.0979254 C27.4280056,17.2345058 28.4041021,19.2396417 29.3479461,21.1784469 C31.0421186,24.6574643 32.6419676,27.9441834 32.6364908,31.7743277 C32.6352737,33.3522693 32.1563535,35.244217 31.3561247,36.8343294 C30.1116625,39.3062147 27.4346995,40.7241105 24.0122763,40.7241105 L23.9861091,40.7241105 L23.9861091,40.723502 Z M8.13549423,31.5625562 C7.46975259,26.2408827 11.839671,22.919477 15.350941,20.2510335 C15.8146477,19.8986895 16.256447,19.5627759 16.6617339,19.2402503 C17.037811,18.9408491 17.3828526,18.6420565 17.7120722,18.3444809 C17.4078027,18.993792 17.0992735,19.6388433 16.7901356,20.2735495 C15.0679703,23.8109866 13.2873853,27.4689144 13.2922536,31.7767619 C13.2946877,33.6632327 13.8563692,35.9020476 14.7947363,37.7647855 C15.0582337,38.2875205 15.3722398,38.7700919 15.7251924,39.2179766 C11.8481906,38.6532524 8.63814743,35.5746537 8.13549423,31.5625562 Z" id="Combined-Shape" fill="#FFFFFF"></path>
                    <path d="M24.5423138,38.05445 C24.5423138,38.5084201 24.1747562,38.8759777 23.7207861,38.8759777 C20.3336581,38.8759777 17.8569045,36.5069354 17.4120625,32.8410966 C17.2526253,31.5211755 17.4071942,29.9371485 17.8471679,28.3798973 C17.9707013,27.9429663 18.4252799,27.688597 18.8616023,27.8127389 C19.2979248,27.9362724 19.5522941,28.3902424 19.4287607,28.8271734 C19.0514665,30.1598738 18.9115025,31.5516025 19.0435555,32.6433214 C19.3867715,35.4742447 21.1795273,37.2329224 23.7213947,37.2329224 C24.1741477,37.2329224 24.5423138,37.6004799 24.5423138,38.05445 Z" id="Path" fill="#EC1D23"></path>
                </g>
            </g>
        </g>
    </g>
</svg>