<?xml version="1.0" encoding="UTF-8" standalone="no"?>
<svg width="48px" height="48px" viewBox="0 0 48 48" version="1.1" xmlns="http://www.w3.org/2000/svg" xmlns:xlink="http://www.w3.org/1999/xlink">
    <!-- Generator: Sketch 41.2 (35397) - http://www.bohemiancoding.com/sketch -->
    <title>вирус экспорт</title>
    <desc>Created with Sketch.</desc>
    <defs></defs>
    <g id="slide" stroke="none" stroke-width="1" fill="none" fill-rule="evenodd">
        <g id="20161117-layout3-kudago" transform="translate(-3934.000000, -389.000000)"></g>
        <g id="вирус-экспорт">
            <g id="вирус">
                <g>
                    <rect id="Rectangle-2" x="0" y="0" width="48" height="48"></rect>
                    <path d="M39.0633091,22.1963731 C38.0368601,21.2824665 37.5592629,20.6807827 37.1866963,19.4916147 C36.8947698,18.559836 36.8697508,17.7436315 37.0350328,16.8320172 C37.0696028,16.641346 37.0993027,16.5042853 37.1703495,16.1928815 C37.4097769,15.1462752 37.390414,14.8217797 36.9237261,14.155282 C36.7272804,13.8748345 36.545474,13.6978716 36.36898,13.5862108 C36.1306433,13.4354246 35.9043523,13.3841946 35.2365264,13.3277072 C33.868922,13.212303 33.1230612,13.0116894 32.1253867,12.2596166 C31.1381816,11.515436 30.7363505,10.8624031 30.2160615,9.56980418 C30.081476,9.2353502 30.0204843,9.09476815 29.9415677,8.94478928 C29.7244853,8.53222978 29.4780635,8.30830767 28.9215871,8.12074757 C28.2720652,7.90131099 27.9774536,7.96366836 27.3403916,8.35505962 C27.2832954,8.3901378 27.2389528,8.41794382 27.1275556,8.48826792 C26.9512715,8.59956035 26.8746233,8.6473876 26.7695056,8.71058785 C25.8749439,9.24842769 25.0695883,9.51865882 23.9998035,9.51865882 C22.7555883,9.51865882 22.0407762,9.22711602 20.8726125,8.488374 C20.7609321,8.41789143 20.7164264,8.38999108 20.6592172,8.35485634 C20.022643,7.96390713 19.7277703,7.90154312 19.0762584,8.12134173 C18.5213624,8.30823516 18.2753039,8.53186605 18.058328,8.94444125 C17.9794904,9.09434948 17.9186762,9.23456438 17.7840212,9.56919097 C17.2642883,10.8611751 16.8619426,11.5149348 15.8746133,12.259209 C14.8769388,13.0112817 14.131078,13.2118953 12.7637986,13.3272721 C12.0962303,13.383714 11.8700773,13.4348408 11.6322052,13.5850637 C11.455554,13.6966239 11.2735864,13.873645 11.076667,14.1548743 C10.6096276,14.8216236 10.590247,15.1459719 10.8296816,16.1926096 C10.9001644,16.5008092 10.9304281,16.640281 10.965103,16.8314334 C11.130422,17.7427867 11.1052507,18.559363 10.8133037,19.491207 C10.4407371,20.6803751 9.96313992,21.2820588 8.93669094,22.1959654 C8.77504995,22.3399353 8.70574465,22.4028369 8.62693158,22.47833 C8.16333814,22.9223952 8,23.2511519 8,23.9804897 C8,24.7098274 8.16333814,25.0385841 8.62693158,25.4826493 C8.70574465,25.5581425 8.77504995,25.6210441 8.93642531,25.7647773 C9.96309066,26.6788767 10.4406234,27.2803692 10.8133037,28.4693646 C11.1052302,29.4011433 11.1302492,30.2173478 10.9649672,31.1289621 C10.9303972,31.3196333 10.9006973,31.4566941 10.8296505,31.7680979 C10.5902552,32.8145641 10.6096489,33.1391603 11.0767223,33.8057764 C11.2733525,34.0865161 11.4552834,34.2634487 11.6319509,34.3749932 C11.8699786,34.5252794 12.0962437,34.5764275 12.7634736,34.6328644 C14.1306037,34.7482287 14.8763587,34.9488431 15.8742071,35.7006488 C16.8101656,36.4058252 17.2604676,37.1011904 17.7241439,38.2426699 C17.7547233,38.3181824 17.7547233,38.3181824 17.7839385,38.3907675 C17.9185302,38.7252369 17.9795258,38.8658307 18.0584473,39.0158284 C18.275537,39.4284278 18.5219109,39.6523445 19.0761415,39.8391906 C19.4151591,39.9533511 19.6762404,40 19.8804415,40 C20.1565526,40 20.3356524,39.9294156 20.8952377,39.5924532 C21.9446795,38.9594851 22.5833606,38.6724708 23.672893,38.4719769 C24.7609011,38.2733738 25.672455,38.4753606 26.5808318,38.999455 C26.7727974,39.1102108 26.9066667,39.1965907 27.2086808,39.3981654 C28.066692,39.9714166 28.3124079,40.0455304 28.9237416,39.8392299 C29.6396131,39.5981187 29.8240014,39.3664803 30.2165254,38.3905916 C30.7367436,37.0981685 31.1385747,36.4451356 32.1256271,35.7010701 C32.7422928,35.2361192 33.3724767,34.9483977 34.0639125,34.7923553 C34.4199265,34.7120104 34.690375,34.6790763 35.2011256,34.6358869 C35.9048942,34.5763881 36.1312164,34.5251654 36.3695049,34.3744493 C36.5459801,34.2628298 36.7277858,34.0859081 36.9239168,33.8059864 C37.390807,33.1391996 37.4101699,32.8147041 37.1707115,31.7679621 C37.1002286,31.4597625 37.069965,31.3202907 37.0352901,31.1291383 C36.8699711,30.217785 36.8951424,29.4012087 37.1871662,28.4691195 C37.5597696,27.2803692 38.0373024,26.6788767 39.0637021,25.7650139 C39.2248189,25.621511 39.2942157,25.5585248 39.3729283,25.4831328 C39.8366488,25.038975 40,24.7101934 40,23.9809153 C39.9998448,23.2514324 39.8364029,22.9225592 39.3726566,22.478367 C39.2939117,22.4029424 39.2244874,22.3399309 39.0633091,22.1963731 Z" id="Path" fill="#FFFFFF"></path>
                    <path d="M39.0633091,22.1963731 C38.0368601,21.2824665 37.5592629,20.6807827 37.1866963,19.4916147 C36.8947698,18.559836 36.8697508,17.7436315 37.0350328,16.8320172 C37.0696028,16.641346 37.0993027,16.5042853 37.1703495,16.1928815 C37.4097769,15.1462752 37.390414,14.8217797 36.9237261,14.155282 C36.7272804,13.8748345 36.545474,13.6978716 36.36898,13.5862108 C36.1306433,13.4354246 35.9043523,13.3841946 35.2365264,13.3277072 C33.868922,13.212303 33.1230612,13.0116894 32.1253867,12.2596166 C31.1381816,11.515436 30.7363505,10.8624031 30.2160615,9.56980418 C30.081476,9.2353502 30.0204843,9.09476815 29.9415677,8.94478928 C29.7244853,8.53222978 29.4780635,8.30830767 28.9215871,8.12074757 C28.2720652,7.90131099 27.9774536,7.96366836 27.3403916,8.35505962 C27.2832954,8.3901378 27.2389528,8.41794382 27.1275556,8.48826792 C26.9512715,8.59956035 26.8746233,8.6473876 26.7695056,8.71058785 C25.8749439,9.24842769 25.0695883,9.51865882 23.9998035,9.51865882 C22.7555883,9.51865882 22.0407762,9.22711602 20.8726125,8.488374 C20.7609321,8.41789143 20.7164264,8.38999108 20.6592172,8.35485634 C20.022643,7.96390713 19.7277703,7.90154312 19.0762584,8.12134173 C18.5213624,8.30823516 18.2753039,8.53186605 18.058328,8.94444125 C17.9794904,9.09434948 17.9186762,9.23456438 17.7840212,9.56919097 C17.2642883,10.8611751 16.8619426,11.5149348 15.8746133,12.259209 C14.8769388,13.0112817 14.131078,13.2118953 12.7637986,13.3272721 C12.0962303,13.383714 11.8700773,13.4348408 11.6322052,13.5850637 C11.455554,13.6966239 11.2735864,13.873645 11.076667,14.1548743 C10.6096276,14.8216236 10.590247,15.1459719 10.8296816,16.1926096 C10.9001644,16.5008092 10.9304281,16.640281 10.965103,16.8314334 C11.130422,17.7427867 11.1052507,18.559363 10.8133037,19.491207 C10.4407371,20.6803751 9.96313992,21.2820588 8.93669094,22.1959654 C8.77504995,22.3399353 8.70574465,22.4028369 8.62693158,22.47833 C8.16333814,22.9223952 8,23.2511519 8,23.9804897 C8,24.7098274 8.16333814,25.0385841 8.62693158,25.4826493 C8.70574465,25.5581425 8.77504995,25.6210441 8.93642531,25.7647773 C9.96309066,26.6788767 10.4406234,27.2803692 10.8133037,28.4693646 C11.1052302,29.4011433 11.1302492,30.2173478 10.9649672,31.1289621 C10.9303972,31.3196333 10.9006973,31.4566941 10.8296505,31.7680979 C10.5902552,32.8145641 10.6096489,33.1391603 11.0767223,33.8057764 C11.2733525,34.0865161 11.4552834,34.2634487 11.6319509,34.3749932 C11.8699786,34.5252794 12.0962437,34.5764275 12.7634736,34.6328644 C14.1306037,34.7482287 14.8763587,34.9488431 15.8742071,35.7006488 C16.8101656,36.4058252 17.2604676,37.1011904 17.7241439,38.2426699 C17.7547233,38.3181824 17.7547233,38.3181824 17.7839385,38.3907675 C17.9185302,38.7252369 17.9795258,38.8658307 18.0584473,39.0158284 C18.275537,39.4284278 18.5219109,39.6523445 19.0761415,39.8391906 C19.4151591,39.9533511 19.6762404,40 19.8804415,40 C20.1565526,40 20.3356524,39.9294156 20.8952377,39.5924532 C21.9446795,38.9594851 22.5833606,38.6724708 23.672893,38.4719769 C24.7609011,38.2733738 25.672455,38.4753606 26.5808318,38.999455 C26.7727974,39.1102108 26.9066667,39.1965907 27.2086808,39.3981654 C28.066692,39.9714166 28.3124079,40.0455304 28.9237416,39.8392299 C29.6396131,39.5981187 29.8240014,39.3664803 30.2165254,38.3905916 C30.7367436,37.0981685 31.1385747,36.4451356 32.1256271,35.7010701 C32.7422928,35.2361192 33.3724767,34.9483977 34.0639125,34.7923553 C34.4199265,34.7120104 34.690375,34.6790763 35.2011256,34.6358869 C35.9048942,34.5763881 36.1312164,34.5251654 36.3695049,34.3744493 C36.5459801,34.2628298 36.7277858,34.0859081 36.9239168,33.8059864 C37.390807,33.1391996 37.4101699,32.8147041 37.1707115,31.7679621 C37.1002286,31.4597625 37.069965,31.3202907 37.0352901,31.1291383 C36.8699711,30.217785 36.8951424,29.4012087 37.1871662,28.4691195 C37.5597696,27.2803692 38.0373024,26.6788767 39.0637021,25.7650139 C39.2248189,25.621511 39.2942157,25.5585248 39.3729283,25.4831328 C39.8366488,25.038975 40,24.7101934 40,23.9809153 C39.9998448,23.2514324 39.8364029,22.9225592 39.3726566,22.478367 C39.2939117,22.4029424 39.2244874,22.3399309 39.0633091,22.1963731 Z M40.3935275,20.7028809 C41.1089128,21.3400578 41.9996069,22.1333696 42,23.9804897 C42,25.8280174 41.1093059,26.6213292 40.3939205,27.2585061 C39.8495201,27.7432172 39.3794097,28.1618868 39.095614,29.0673059 C38.8118183,29.9731326 38.9548953,30.5984873 39.1203773,31.3220887 C39.3381375,32.2739813 39.608962,33.4582417 38.5622195,34.9531411 C37.515084,36.4476329 36.345311,36.5462873 35.4050902,36.6257815 C34.6900979,36.6861156 34.0725867,36.7378888 33.3296865,37.2980175 C32.5871794,37.8577385 32.3481935,38.4508878 32.0718661,39.1373919 C31.7086704,40.040365 31.2566412,41.1638836 29.5621213,41.7346115 C27.9312785,42.2849563 26.9140162,41.6066054 26.0976121,41.0611526 C25.4404009,40.6225075 24.9231223,40.2768094 24.0320351,40.4394669 C23.0705886,40.6163925 22.5096793,40.954345 21.9676373,41.2812905 C21.3784271,41.6363648 20.7754594,42 19.8804415,42 C19.4700776,42 18.998395,41.9233594 18.4378787,41.7346115 C16.7437518,41.163476 16.2917226,40.0399573 15.928527,39.1373919 C15.6521995,38.4508878 15.4136067,37.8577385 14.6707065,37.2980175 C13.9278063,36.7382965 13.3102951,36.6861156 12.5953028,36.6257815 C11.6554751,36.5462873 10.4853091,36.4476329 9.43856661,34.9531411 C8.3914311,33.4586494 8.66225556,32.2739813 8.88001572,31.3220887 C9.04510465,30.5984873 9.1885748,29.9731326 8.90477906,29.0673059 C8.62098333,28.1618868 8.15087294,27.7432172 7.60647253,27.2585061 C6.89108716,26.6213292 6,25.8280174 6,23.9804897 C6,22.1329619 6.89108716,21.3396502 7.60647253,20.7024732 C8.15087294,20.2177622 8.62098333,19.7990925 8.90477906,18.8932658 C9.1885748,17.9874391 9.04549772,17.3620844 8.88001572,16.6384829 C8.66225556,15.6865903 8.3914311,14.50233 9.43856661,13.0074305 C10.4853091,11.5125311 11.6550821,11.4138767 12.5953028,11.3343825 C13.3102951,11.2740484 13.9281994,11.2218675 14.6707065,10.6621465 C15.4132137,10.1024255 15.6521995,9.50968386 15.928527,8.82277207 C16.2917226,7.92020667 16.7433588,6.79668804 18.4378787,6.22596014 C20.1320056,5.65441692 21.1347244,6.28874021 21.9401225,6.7970957 C22.5525238,7.18437534 23.0815945,7.51865882 23.9998035,7.51865882 C24.9184055,7.51865882 25.4470831,7.18396768 26.0598775,6.7970957 C26.8656687,6.28833254 27.8687805,5.65400925 29.5617282,6.22596014 C31.2562482,6.7970957 31.7082774,7.92061433 32.071473,8.82317973 C32.3478005,9.50968386 32.5867863,10.1028332 33.3292935,10.6625542 C34.0718006,11.2222752 34.6897049,11.274456 35.4046972,11.3347901 C36.3445249,11.4142844 37.5146909,11.5129388 38.5618265,13.0078382 C39.6085689,14.5027376 39.3377444,15.686998 39.1199843,16.6388906 C38.9548953,17.362492 38.8114252,17.9878468 39.0952209,18.8936735 C39.3790167,19.7995002 39.8491271,20.2181698 40.3935275,20.7028809 Z" id="Path" fill="#222629"></path>
                    <path d="M15.108,20.4923333 L17.2147826,16.7714444 C17.5540435,16.1721667 17.3384348,15.4060556 16.7354348,15.0688889 L16.6192174,15.0039444 C16.0162174,14.6667778 15.2453478,14.8810556 14.906087,15.4803333 L12.7993043,19.2012222 C12.4600435,19.8005 12.6756522,20.5666111 13.2786522,20.9037778 L13.3948696,20.9687222 C13.9978696,21.3058889 14.7687391,21.0916111 15.108,20.4923333 Z" id="Shape" fill="#EC1D23"></path>
                    <path d="M25.2772174,25.0392222 L25.3816957,24.9571667 C25.9244348,24.5309444 26.0175652,23.7407222 25.5886957,23.2013333 L22.925087,19.8514444 C22.4962174,19.3120556 21.701087,19.2195 21.1583478,19.6457222 L21.0538696,19.7277778 C20.5111304,20.154 20.418,20.9442222 20.8468696,21.484 L23.5104783,24.8338889 C23.9389565,25.3728889 24.734087,25.4654444 25.2772174,25.0392222 Z" id="Shape" fill="#EC1D23"></path>
                    <path d="M16.0393043,26.0643333 C15.6104348,25.5249444 14.8153043,25.4323889 14.2725652,25.8586111 L14.168087,25.9406667 C13.6253478,26.3668889 13.5322174,27.1571111 13.961087,27.6968889 L16.6246957,31.0467778 C17.0535652,31.5861667 17.8486957,31.6787222 18.3914348,31.2525 L18.495913,31.1704444 C19.0386522,30.7442222 19.1317826,29.954 18.702913,29.4146111 L16.0393043,26.0643333 Z" id="Shape" fill="#EC1D23"></path>
                    <path d="M28.0895217,13.4585 C27.8105217,12.8292778 27.0643043,12.5411111 26.4311739,12.8183889 L26.309087,12.8716667 C25.6759565,13.1489444 25.386,13.8905556 25.665,14.5197778 L27.3965217,18.4269444 C27.6755217,19.0561667 28.4217391,19.3443333 29.0548696,19.0670556 L29.1769565,19.0137778 C29.810087,18.7365 30.1000435,17.9948889 29.8210435,17.3656667 L28.0895217,13.4585 Z" id="Shape" fill="#EC1D23"></path>
                    <path d="M35.7461739,23.4891111 C35.2636957,22.9963889 34.463087,22.9858889 33.9673043,23.4653889 L30.8893043,26.4435 C30.3935217,26.923 30.3829565,27.7186667 30.8654348,28.2113889 L30.9581739,28.3062778 C31.4406522,28.799 32.2412609,28.8095 32.7370435,28.33 L35.8150435,25.3515 C36.3108261,24.872 36.3213913,24.0763333 35.838913,23.5836111 L35.7461739,23.4891111 Z" id="Shape" fill="#EC1D23"></path>
                    <path d="M28.8588261,31.4986667 L24.6718696,30.542 C23.9976522,30.388 23.3191304,30.8103333 23.1641739,31.4803889 L23.1344348,31.6095 C22.9794783,32.2795556 23.4044348,32.9538889 24.0786522,33.1078889 L28.2656087,34.0645556 C28.9398261,34.2185556 29.6183478,33.7962222 29.7733043,33.1261667 L29.8030435,32.9970556 C29.958,32.327 29.5330435,31.6526667 28.8588261,31.4986667 Z" id="Shape" fill="#EC1D23"></path>
                </g>
            </g>
        </g>
    </g>
</svg>