<?xml version="1.0" encoding="UTF-8" standalone="no"?>
<svg width="48px" height="48px" viewBox="0 0 48 48" version="1.1" xmlns="http://www.w3.org/2000/svg" xmlns:xlink="http://www.w3.org/1999/xlink">
    <!-- Generator: Sketch 41.2 (35397) - http://www.bohemiancoding.com/sketch -->
    <title>ребенок болеет экспорт</title>
    <desc>Created with Sketch.</desc>
    <defs></defs>
    <g id="slide" stroke="none" stroke-width="1" fill="none" fill-rule="evenodd">
        <g id="20161117-layout3-kudago" transform="translate(-3998.000000, -389.000000)"></g>
        <g id="ребенок-болеет-экспорт">
            <g id="котик">
                <g>
                    <rect id="Rectangle-2" x="0" y="0" width="48" height="48"></rect>
                    <path d="M43.3700895,27.7321969 C43.566959,27.7139388 43.7503334,27.602009 43.8646448,27.4249852 C43.9670486,27.273364 44.0138845,27.0772883 43.9964203,26.8804188 C43.955935,26.4430193 43.6122073,26.1191372 43.2272004,26.1548595 L41.5974703,26.3025116 C41.9777142,24.8553621 42.1769652,23.3772533 42.1769652,21.9166087 C42.1769652,21.5982835 42.1626763,21.2720199 42.1333046,20.8909822 C42.1333046,19.4660599 42.0975823,17.4306835 41.9348475,15.7477669 C41.9150018,15.5334332 41.8943622,15.3318007 41.8761042,15.1365189 C41.714957,13.399622 41.6077901,12.2517458 40.8203122,10.0869753 C40.4035522,8.93036709 39.0850029,8.05953714 37.7608968,8.05953714 C37.3219096,8.05953714 36.9146756,8.15638423 36.5534836,8.34769692 L32.5748148,10.6236034 C30.0440893,9.89169349 27.0942223,9.52097555 23.7990399,9.52097555 C20.6221379,9.52097555 17.7802316,9.86867247 15.3463532,10.556128 L11.406582,8.30086103 L11.3811795,8.28815977 C11.0199875,8.09684709 10.6127534,8 10.1737662,8 C8.84807249,8 7.53269854,8.87162378 7.11276322,10.028232 C6.32687293,12.1945902 6.21970607,13.3400848 6.05617739,15.0769817 C6.03950699,15.2714697 6.01966127,15.4746899 5.99981556,15.6890236 C5.8259671,17.4584675 5.79580161,19.6121244 5.80294607,21.1180172 C5.78548184,21.3863313 5.77754356,21.6554391 5.77754356,21.9174026 C5.77754356,23.3534385 5.99743407,24.8355164 6.41101876,26.3033055 L4.77335041,26.157241 C4.38119909,26.1215187 4.04540961,26.4454008 4.00333669,26.8828003 C3.98666629,27.0796698 4.03270835,27.273364 4.13590606,27.4273667 C4.25259887,27.6043905 4.43279795,27.7139388 4.62966744,27.7345784 L6.95320368,27.9441491 C7.14134105,28.4339413 7.35091179,28.9197644 7.58032825,29.4016184 L5.07421144,29.9954022 C4.90671361,30.0335059 4.76064915,30.1406728 4.66618355,30.2938817 C4.55504755,30.4740808 4.52170675,30.7050849 4.5756871,30.9249754 C4.66300824,31.2901366 4.95751864,31.547337 5.29330813,31.547337 C5.3425255,31.547337 5.39094904,31.5409864 5.44016641,31.5306666 L8.34319751,30.8455926 C8.53689168,31.1821759 8.74408094,31.5139962 8.956827,31.8394659 L6.94050242,33.2810586 C6.80078859,33.3802872 6.70711682,33.5334961 6.67774516,33.7121075 C6.64361053,33.9216783 6.69997236,34.1463318 6.8317479,34.3305 C6.99051362,34.5519782 7.23421899,34.6853414 7.48189351,34.6853414 C7.62160734,34.6853414 7.75100139,34.6432685 7.86054974,34.5662671 L9.87211135,33.1278497 C10.2142515,33.5715999 10.5738558,34.0042365 10.9517182,34.4194088 C14.4842554,38.3020244 19.0463882,40.4398047 23.7998337,40.4398047 C28.9303478,40.4398047 33.6853809,38.3020244 37.1845773,34.4162335 C37.542594,34.0193192 37.8839403,33.6057345 38.2062347,33.1834177 L40.1415887,34.5662671 C40.2503432,34.6456499 40.3805311,34.6853414 40.5186573,34.6853414 C40.7679195,34.6853414 41.0116249,34.5519782 41.1695967,34.3305 C41.3013723,34.1463318 41.3585279,33.9208845 41.3243933,33.7121075 C41.293434,33.5334961 41.2021437,33.3818749 41.0608422,33.2810586 L39.1183437,31.890271 C39.3350589,31.5536876 39.5446296,31.2123414 39.7414991,30.8638506 L42.5635597,31.5306666 C42.6127771,31.5433679 42.659613,31.547337 42.7096242,31.547337 C43.0462075,31.547337 43.3423055,31.2901366 43.4256575,30.9225939 C43.4780502,30.7027034 43.4455033,30.4716993 43.3343673,30.2915002 C43.2399017,30.1382913 43.0954249,30.0311244 42.927927,29.9922268 L40.4813474,29.412732 C40.7044132,28.9292904 40.9076333,28.4371167 41.0878324,27.9385923 L43.3700895,27.7321969 Z" id="Shape" fill="#222629"></path>
                    <path d="M35.8565021,33.2159647 C32.6978582,36.7183364 28.4175345,38.6489274 23.7998337,38.6489274 C14.6565162,38.6489274 7.56762699,29.6548497 7.56762699,21.9181964 C7.56762699,21.6824293 7.57477145,21.4387239 7.58985419,21.1950186 L7.59064802,21.1394506 C7.58509122,19.6748369 7.61128757,17.5696035 7.77719774,15.8636659 C7.79863111,15.6469507 7.81927065,15.4413491 7.83594105,15.2444796 C7.99629442,13.5321913 8.0844094,12.589123 8.79250448,10.6402738 C8.95365169,10.1941422 9.61014792,9.79167109 10.1697971,9.79167109 C10.3103047,9.79167109 10.4317605,9.81707361 10.5309891,9.86708481 L15.1177306,12.4954512 L15.4876547,12.3819337 C17.834212,11.6738386 20.63087,11.3150281 23.7966584,11.3150281 C27.0759642,11.3150281 29.9766138,11.6968597 32.4184305,12.4494092 L32.7907361,12.5653081 L37.3973234,9.92820961 C37.4965519,9.87899224 37.6188015,9.85358972 37.760103,9.85358972 C38.3197522,9.85358972 38.9754546,10.2576485 39.1350141,10.7013986 C39.8454907,12.649454 39.9336056,13.5933161 40.0915775,15.3063982 C40.1098356,15.5024739 40.1304751,15.7072816 40.1503208,15.9224092 C40.3082927,17.5481701 40.339252,19.5414736 40.339252,20.9274983 L40.3424274,21.0005306 C40.3757682,21.3482275 40.3884694,21.6379749 40.3884694,21.9166087 C40.3884694,25.842091 38.6936454,30.0668467 35.8565021,33.2159647 Z" id="Path" fill="#FFFFFF"></path>
                    <path d="M34.1664411,22.6937669 C34.1664411,23.744796 33.314663,24.596574 32.2644278,24.596574 C31.2141926,24.596574 30.3624145,23.744796 30.3624145,22.6937669 C30.3624145,21.6705219 31.1737073,20.840971 32.1866326,20.7988981 C32.1866326,20.7988981 32.4438093,21.4853934 32.9448242,21.9436646 C33.4458392,22.4019357 34.1664411,22.608705 34.1664411,22.6937669 Z" id="Path" fill="#222629"></path>
                    <path d="M24.4601846,27.418289 C24.3339218,27.6540825 23.7081376,27.6365352 23.6007436,27.4391019 L24.0463733,27.1967012 L24.4601846,27.418289 Z M24.4342519,28.7234706 C25.2990856,29.5648955 26.587005,30.0521922 28.3168846,30.0521922 C28.8691694,30.0521922 29.3168846,29.6044769 29.3168846,29.0521922 C29.3168846,28.4999074 28.8691694,28.0521922 28.3168846,28.0521922 C27.0917207,28.0521922 26.3072824,27.7553924 25.8289321,27.2899898 C25.6796829,27.1447804 25.5733085,26.9938491 25.5021074,26.8483718 C25.4670867,26.776818 25.4538491,26.737374 25.4557898,26.7461859 L25.4253252,26.6078594 L25.3576442,26.4834344 C24.7214404,25.3138364 23.3391424,25.275076 22.6970529,26.4741668 L22.6181078,26.6679858 C22.5881982,26.7712356 22.4564045,27.0109785 22.1786986,27.270559 C21.6619615,27.7535695 20.8665845,28.0559811 19.6756382,28.0559811 C19.1233534,28.0559811 18.6756382,28.5036963 18.6756382,29.0559811 C18.6756382,29.6082658 19.1233534,30.0559811 19.6756382,30.0559811 C21.3650383,30.0559811 22.6504961,29.5672351 23.5444266,28.73165 C23.7226756,28.5650351 23.8748349,28.3964713 24.0035317,28.2304871 C24.1234093,28.3941356 24.2660632,28.5598342 24.4342519,28.7234706 Z M24.5391297,27.22447 L23.5786188,26.9462279 L24.0463733,27.1967012 L24.4791939,26.9612682 L23.5025979,27.1763504 C23.5700264,27.482514 23.725537,27.8509881 24.0035317,28.2304871 C24.2854359,27.8669065 24.454765,27.5157029 24.5391297,27.22447 Z" id="Path-14" fill="#EC1D23"></path>
                    <path d="M17.5341448,22.6937669 C17.5341448,23.744796 16.6831605,24.596574 15.6321315,24.596574 C14.5811025,24.596574 13.7293244,23.744796 13.7293244,22.6937669 C13.7293244,22.6123679 14.5127054,22.4601524 14.9794312,22.0317383 C15.4461569,21.6033242 15.7107205,20.7988981 15.7107205,20.7988981 C16.7236458,20.840971 17.5349386,21.6705219 17.5341448,22.6937669 Z" id="Path" fill="#222629"></path>
                </g>
            </g>
        </g>
    </g>
</svg>