<?xml version="1.0" encoding="UTF-8" standalone="no"?>
<svg width="48px" height="48px" viewBox="0 0 48 48" version="1.1" xmlns="http://www.w3.org/2000/svg" xmlns:xlink="http://www.w3.org/1999/xlink">
    <!-- Generator: Sketch 41.2 (35397) - http://www.bohemiancoding.com/sketch -->
    <title>закаливание экспорт</title>
    <desc>Created with Sketch.</desc>
    <defs></defs>
    <g id="slide" stroke="none" stroke-width="1" fill="none" fill-rule="evenodd">
        <g id="20161117-layout3-kudago" transform="translate(-4062.000000, -389.000000)"></g>
        <g id="закаливание-экспорт">
            <g id="закалка">
                <g>
                    <rect id="Rectangle-2" x="0" y="0" width="48" height="48"></rect>
                    <path d="M29.9074286,17.9757037 L27.4674286,17.9757037 C26.9942857,17.9757037 26.6102857,17.5774815 26.6102857,17.0868148 C26.6102857,16.5955556 26.9942857,16.1979259 27.4674286,16.1979259 L29.9074286,16.1979259 C30.0091429,16.1979259 30.1097143,16.1925926 30.2068571,16.1819259 C30.3097143,16.1712593 30.4074286,16.1564444 30.5022857,16.1362963 C30.6011429,16.1155556 30.6937143,16.0906667 30.7851429,16.061037 C30.8805714,16.0302222 30.9708571,15.9964444 31.0588571,15.9573333 C31.1445714,15.92 31.232,15.8755556 31.3165714,15.8281481 C31.4,15.7813333 31.48,15.730963 31.5571429,15.6764444 C31.6371429,15.6207407 31.7125714,15.5626667 31.7851429,15.4998519 C31.8571429,15.4382222 31.9274286,15.3724444 31.9931429,15.3031111 C32.0662857,15.2284444 32.1291429,15.1555556 32.1897143,15.0802963 C32.2445714,15.0115556 32.3017143,14.9321481 32.3548571,14.8497778 C32.4097143,14.7656296 32.4594286,14.6808889 32.5057143,14.5925926 C32.5485714,14.5102222 32.5902857,14.4207407 32.628,14.3288889 C32.6674286,14.2334815 32.6994286,14.1422222 32.7268571,14.0485926 C32.756,13.9514074 32.7805714,13.8524444 32.8005714,13.7517037 C32.8205714,13.6521481 32.8354286,13.5496296 32.8451429,13.4471111 C32.8542857,13.3499259 32.8594286,13.2426667 32.8594286,13.1354074 C32.8594286,13.0281481 32.8537143,12.9214815 32.8445714,12.816 C32.8348571,12.7205926 32.8205714,12.6192593 32.8005714,12.5191111 C32.7805714,12.4177778 32.756,12.3188148 32.7268571,12.2216296 C32.6994286,12.1291852 32.6674286,12.0373333 32.6308571,11.949037 C32.5908571,11.8506667 32.5485714,11.7605926 32.5034286,11.6728889 C32.4588571,11.5887407 32.4085714,11.504 32.3548571,11.4204444 C32.3022857,11.3386667 32.2457143,11.2604444 32.1857143,11.1857778 C32.128,11.1134815 32.0657143,11.0417778 31.9994286,10.9736296 C31.9274286,10.8983704 31.8571429,10.8325926 31.7851429,10.7703704 C31.7131429,10.7087407 31.6382857,10.6512593 31.5605714,10.5973333 C31.4777143,10.5386667 31.3982857,10.4882963 31.316,10.4426667 C31.2314286,10.3946667 31.144,10.3514074 31.0548571,10.3117037 C30.9708571,10.2743704 30.88,10.24 30.788,10.210963 C30.696,10.1807407 30.6017143,10.1552593 30.5057143,10.1351111 C30.4057143,10.1137778 30.3068571,10.0983704 30.208,10.0877037 C30.0154286,10.0681481 29.8034286,10.0675556 29.6028571,10.0882963 C29.5068571,10.098963 29.4091429,10.1137778 29.3131429,10.1345185 C29.2131429,10.1552593 29.1188571,10.1807407 29.0268571,10.210963 C28.9348571,10.24 28.8445714,10.2743704 28.7565714,10.3128889 C28.672,10.3502222 28.5851429,10.3934815 28.5022857,10.4402963 C28.4154286,10.4894815 28.3342857,10.5398519 28.256,10.594963 C28.1754286,10.6512593 28.1011429,10.7087407 28.0291429,10.7703704 C27.9571429,10.832 27.8868571,10.8983704 27.8211429,10.9671111 C27.7531429,11.0376296 27.6902857,11.1087407 27.6314286,11.1834074 C27.5657143,11.2657778 27.5091429,11.344 27.4554286,11.4257778 C27.4057143,11.5034074 27.3554286,11.5881481 27.3085714,11.677037 C27.2657143,11.76 27.224,11.8500741 27.1862857,11.9413333 C27.1485714,12.034963 27.1154286,12.1303704 27.0851429,12.2281481 C27.0582857,12.3176296 27.0337143,12.4165926 27.0137143,12.5173333 C26.996,12.6127407 26.9794286,12.7164444 26.9691429,12.8225185 C26.96,12.9202963 26.9548571,13.026963 26.9548571,13.1342222 C26.9548571,13.6248889 26.5708571,14.0231111 26.0977143,14.0231111 C25.6245714,14.0231111 25.2405714,13.6248889 25.2405714,13.1342222 C25.2405714,12.9700741 25.2485714,12.8065185 25.2634286,12.6453333 C25.28,12.4776296 25.304,12.32 25.3337143,12.1647407 C25.3668571,12.0011852 25.4045714,11.8477037 25.4491429,11.6965926 C25.4971429,11.5395556 25.5491429,11.3931852 25.6068571,11.2503704 C25.6657143,11.1063704 25.7308571,10.9653333 25.8017143,10.8284444 C25.8754286,10.688 25.9525714,10.557037 26.0348571,10.4296296 C26.1234286,10.2945185 26.2125714,10.1700741 26.3085714,10.050963 C26.3982857,9.93718519 26.5005714,9.82103704 26.6062857,9.71140741 C26.7102857,9.60296296 26.8205714,9.49866667 26.936,9.3997037 C27.0514286,9.30074074 27.1731429,9.20711111 27.2988571,9.11940741 C27.4211429,9.03348148 27.5497143,8.95288889 27.6828571,8.87822222 C27.8108571,8.80533333 27.9474286,8.73777778 28.0868571,8.67555556 C28.2302857,8.61333333 28.3742857,8.55822222 28.5211429,8.51140741 C28.668,8.46459259 28.8171429,8.42488889 28.9685714,8.3922963 C29.1165714,8.3602963 29.2708571,8.336 29.4285714,8.31940741 C29.7508571,8.28562963 30.0742857,8.28681481 30.3822857,8.31940741 C30.5422857,8.336 30.6982857,8.3602963 30.8497143,8.39348148 C30.9977143,8.42488889 31.1468571,8.46459259 31.2931429,8.51140741 C31.4394286,8.55822222 31.584,8.61333333 31.724,8.67377778 C31.8657143,8.73659259 31.9994286,8.80414815 32.1314286,8.87822222 C32.2657143,8.95348148 32.396,9.03585185 32.5211429,9.12414815 C32.64,9.20711111 32.7617143,9.30074074 32.8771429,9.3997037 C32.9925714,9.49866667 33.1034286,9.60355556 33.2091429,9.71318519 C33.3108571,9.81748148 33.4114286,9.93244444 33.5074286,10.0533333 C33.604,10.1754074 33.6942857,10.2998519 33.7782857,10.4296296 C33.8611429,10.557037 33.9377143,10.688 34.0091429,10.8237037 C34.0822857,10.9647407 34.1474286,11.1063704 34.2062857,11.2503704 C34.2651429,11.3908148 34.3177143,11.5419259 34.364,11.6965926 C34.4085714,11.8477037 34.4468571,12.0011852 34.4777143,12.1576296 C34.5085714,12.3140741 34.5325714,12.4746667 34.5491429,12.6376296 C34.5645714,12.8065185 34.5725714,12.9700741 34.5725714,13.1342222 C34.5725714,13.298963 34.5645714,13.4625185 34.5497143,13.6231111 C34.5325714,13.7931852 34.5091429,13.9543704 34.4777143,14.1108148 C34.4462857,14.2672593 34.4085714,14.4219259 34.3634286,14.5718519 C34.3177143,14.7259259 34.2645714,14.8776296 34.2034286,15.0245926 C34.1474286,15.1620741 34.0822857,15.3031111 34.0114286,15.4388148 C33.9371429,15.5798519 33.8594286,15.7125926 33.7771429,15.84 C33.6948571,15.9668148 33.6051429,16.0906667 33.5114286,16.2097778 C33.4097143,16.336 33.3097143,16.450963 33.2028571,16.5605926 C33.1028571,16.6648889 32.9925714,16.7691852 32.8771429,16.8681481 C32.7622857,16.9671111 32.6417143,17.0601481 32.5171429,17.1472593 C32.3942857,17.2337778 32.2651429,17.314963 32.1314286,17.3902222 C32,17.4637037 31.8657143,17.5312593 31.7274286,17.5928889 C31.584,17.6551111 31.44,17.7096296 31.2931429,17.757037 C31.1491429,17.8032593 30.9982857,17.8435556 30.8457143,17.8755556 C30.6965714,17.9081481 30.54,17.9324444 30.3811429,17.9484444 C30.2297143,17.9668148 30.0691429,17.9757037 29.9074286,17.9757037 Z" id="Shape" fill="#000000"></path>
                    <path d="M25.0268571,17.9757037 L16.4857143,17.9757037 C16.0125714,17.9757037 15.6285714,17.5774815 15.6285714,17.0868148 C15.6285714,16.5955556 16.0125714,16.1979259 16.4857143,16.1979259 L25.0268571,16.1979259 C25.5,16.1979259 25.884,16.5955556 25.884,17.0868148 C25.884,17.5774815 25.5,17.9757037 25.0268571,17.9757037 Z" id="Shape" fill="#000000"></path>
                    <path d="M14.0445714,17.9757037 L10.384,17.9757037 C9.91085714,17.9757037 9.52685714,17.5774815 9.52685714,17.0868148 C9.52685714,16.5955556 9.91085714,16.1979259 10.384,16.1979259 L14.0445714,16.1979259 C14.5177143,16.1979259 14.9017143,16.5955556 14.9017143,17.0868148 C14.9017143,17.5774815 14.5177143,17.9757037 14.0445714,17.9757037 Z" id="Shape" fill="#EC1D23"></path>
                    <path d="M38.9554286,22.9137778 L22.884,22.9137778 C22.4108571,22.9137778 22.0268571,22.5155556 22.0268571,22.0248889 C22.0268571,21.5336296 22.4108571,21.136 22.884,21.136 L38.9554286,21.136 C39.0571429,21.136 39.1571429,21.1306667 39.256,21.12 C39.3577143,21.1093333 39.4542857,21.0945185 39.5491429,21.0743704 C39.648,21.0536296 39.7405714,21.0287407 39.832,20.9991111 C39.9274286,20.9682963 40.0177143,20.9345185 40.1057143,20.8954074 C40.1914286,20.8580741 40.2788571,20.8136296 40.3634286,20.7662222 C40.4474286,20.7188148 40.5297143,20.6672593 40.6091429,20.6121481 C40.6851429,20.5588148 40.76,20.5007407 40.8325714,20.4379259 C40.9085714,20.3739259 40.9771429,20.3093333 41.0417143,20.2411852 C41.1102857,20.1706667 41.1737143,20.0983704 41.2331429,20.0237037 C41.2948571,19.9460741 41.3502857,19.8684444 41.4022857,19.7884444 C41.4588571,19.7025185 41.5068571,19.6219259 41.5497143,19.5377778 C41.5988571,19.4453333 41.6394286,19.357037 41.6765714,19.2675556 C41.7131429,19.1768889 41.7457143,19.0826667 41.7742857,18.9872593 C41.8028571,18.8924444 41.828,18.7958519 41.8462857,18.6980741 C41.868,18.5908148 41.8822857,18.4882963 41.8925714,18.3863704 C41.9034286,18.2838519 41.908,18.1795556 41.908,18.0746667 C41.908,17.9697778 41.9028571,17.8654815 41.8925714,17.762963 C41.8822857,17.6598519 41.868,17.5585185 41.848,17.4583704 C41.8274286,17.3517037 41.8028571,17.2557037 41.7742857,17.1608889 C41.7457143,17.0660741 41.7137143,16.973037 41.6765714,16.8811852 C41.64,16.7917037 41.5988571,16.7034074 41.5542857,16.6186667 C41.5062857,16.5262222 41.4582857,16.445037 41.4062857,16.3656296 C41.3508571,16.2797037 41.2965714,16.2038519 41.2371429,16.1303704 C41.1731429,16.0485926 41.1097143,15.9774815 41.044,15.9093333 C40.9771429,15.8394074 40.9085714,15.7742222 40.8365714,15.7137778 C40.7611429,15.6491852 40.6868571,15.5911111 40.6097143,15.5371852 C40.5285714,15.4797037 40.448,15.4293333 40.364,15.3825185 C40.2794286,15.3345185 40.192,15.2912593 40.1028571,15.2515556 C40.0188571,15.2142222 39.928,15.1798519 39.836,15.1508148 C39.744,15.1205926 39.6497143,15.0951111 39.5537143,15.074963 C39.4537143,15.0536296 39.356,15.0382222 39.2565714,15.0275556 C39.0634286,15.008 38.8514286,15.0074074 38.6502857,15.0281481 C38.5554286,15.0388148 38.4565714,15.0536296 38.3588571,15.0743704 C38.2605714,15.0951111 38.1662857,15.1205926 38.0742857,15.1508148 C37.9811429,15.1804444 37.8908571,15.2148148 37.8011429,15.2539259 C37.7188571,15.2906667 37.6325714,15.3333333 37.5497143,15.3801481 C37.4628571,15.4293333 37.3817143,15.4797037 37.3034286,15.5348148 C37.2262857,15.5893333 37.1497143,15.6474074 37.0771429,15.7102222 C37,15.7754074 36.9308571,15.8417778 36.864,15.9111111 C36.7988571,15.9786667 36.7348571,16.0521481 36.6742857,16.1285926 C36.6165714,16.2002963 36.56,16.2785185 36.5074286,16.3602963 C36.4537143,16.4438519 36.4034286,16.5285926 36.3565714,16.6174815 C36.3125714,16.7022222 36.2702857,16.7946667 36.2302857,16.8888889 C36.1948571,16.9754074 36.1622857,17.0714074 36.132,17.1691852 C36.1057143,17.2562963 36.0822857,17.3528889 36.0634286,17.4512593 C36.0417143,17.5597037 36.0274286,17.661037 36.0171429,17.7635556 C36.0062857,17.8666667 36.0017143,17.9703704 36.0017143,18.0752593 C36.0017143,18.5659259 35.6177143,18.9641481 35.1445714,18.9641481 C34.6714286,18.9641481 34.2874286,18.5659259 34.2874286,18.0752593 C34.2874286,17.9081481 34.296,17.7422222 34.312,17.5786667 C34.3285714,17.4162963 34.352,17.2557037 34.3834286,17.0980741 C34.412,16.946963 34.4508571,16.7905185 34.496,16.6376296 C34.544,16.4805926 34.596,16.3342222 34.6537143,16.1914074 C34.7148571,16.0426667 34.78,15.904 34.8497143,15.7694815 C34.9234286,15.629037 35.0005714,15.4980741 35.0828571,15.3706667 C35.1662857,15.2408889 35.2571429,15.1164444 35.3514286,14.9973333 C35.4491429,14.8752593 35.5485714,14.7608889 35.6531429,14.6524444 C35.7617143,14.5404444 35.8714286,14.4361481 35.988,14.3377778 C36.0988571,14.2423704 36.2188571,14.1499259 36.3417143,14.0628148 C36.468,13.9751111 36.5965714,13.8939259 36.7297143,13.8192593 C36.8577143,13.7463704 36.9942857,13.6788148 37.1337143,13.6165926 C37.2805714,13.5531852 37.4222857,13.4992593 37.568,13.4524444 C37.7148571,13.4056296 37.864,13.3659259 38.0154286,13.3333333 C38.1657143,13.3013333 38.3188571,13.277037 38.4742857,13.2604444 C38.796,13.2266667 39.116,13.2272593 39.4297143,13.2598519 C39.5902857,13.277037 39.7451429,13.3013333 39.8965714,13.3345185 C40.0445714,13.3659259 40.1937143,13.4056296 40.34,13.4524444 C40.4862857,13.4992593 40.6308571,13.5543704 40.7708571,13.6148148 C40.9125714,13.6776296 41.0462857,13.7451852 41.1782857,13.8192593 C41.3108571,13.8939259 41.44,13.9751111 41.5651429,14.0622222 C41.688,14.1481481 41.808,14.2411852 41.924,14.3407407 C42.0377143,14.4373333 42.1502857,14.5434074 42.2571429,14.6542222 C42.3611429,14.7626667 42.4628571,14.8782222 42.5582857,14.9991111 C42.6497143,15.1128889 42.74,15.2391111 42.8251429,15.3706667 C42.908,15.4962963 42.9868571,15.6308148 43.0594286,15.7712593 C43.1285714,15.9016296 43.1948571,16.045037 43.2542857,16.1914074 C43.3137143,16.3365926 43.3657143,16.4853333 43.4108571,16.6376296 C43.456,16.7911111 43.496,16.946963 43.5262857,17.1063704 C43.556,17.2557037 43.5794286,17.4157037 43.596,17.5786667 C43.612,17.7422222 43.6205714,17.9081481 43.6205714,18.0752593 C43.6205714,18.242963 43.612,18.4088889 43.596,18.5718519 C43.5794286,18.7342222 43.556,18.8954074 43.5245714,19.0524444 C43.4954286,19.2041481 43.456,19.3611852 43.4102857,19.5134815 C43.3657143,19.6651852 43.3131429,19.8145185 43.2542857,19.9591111 C43.1948571,20.1054815 43.1285714,20.2482963 43.0548571,20.386963 C42.9862857,20.5202963 42.9068571,20.656 42.82,20.7875556 C42.7405714,20.9102222 42.6508571,21.0358519 42.5542857,21.1567407 C42.4617143,21.2728889 42.36,21.389037 42.2548571,21.4980741 C42.1497143,21.6077037 42.0377143,21.7125926 41.92,21.8127407 C41.8091429,21.9081481 41.6897143,22.0005926 41.5651429,22.0882963 C41.4382857,22.176 41.3108571,22.2565926 41.1782857,22.3312593 C41.0468571,22.4047407 40.9125714,22.4722963 40.7742857,22.5339259 C40.6308571,22.5961481 40.4868571,22.6506667 40.34,22.6980741 C40.196,22.7442963 40.0451429,22.7845926 39.8925714,22.8165926 C39.7434286,22.8491852 39.588,22.8734815 39.4291429,22.8894815 C39.276,22.9048889 39.1171429,22.9137778 38.9554286,22.9137778 Z" id="Shape" fill="#000000"></path>
                    <path d="M19.3125714,22.9137778 L5.23542857,22.9137778 C4.76228571,22.9137778 4.37828571,22.5155556 4.37828571,22.0248889 C4.37828571,21.5336296 4.76228571,21.136 5.23542857,21.136 L19.3125714,21.136 C19.7857143,21.136 20.1697143,21.5336296 20.1697143,22.0248889 C20.1697143,22.5155556 19.7857143,22.9137778 19.3125714,22.9137778 Z" id="Shape" fill="#000000"></path>
                    <path d="M29.9074286,39.7037037 C29.7474286,39.7037037 29.5862857,39.6948148 29.4291429,39.6776296 C29.2742857,39.6622222 29.1182857,39.6379259 28.9651429,39.6047407 C28.816,39.5733333 28.6657143,39.533037 28.5182857,39.4856296 C28.3748571,39.4394074 28.2308571,39.3848889 28.0908571,39.3238519 C27.948,39.261037 27.8114286,39.1922963 27.68,39.1176296 C27.5508571,39.0453333 27.4234286,38.9647407 27.2994286,38.8794074 C27.172,38.7905185 27.0514286,38.6968889 26.9365714,38.5979259 C26.8211429,38.498963 26.7102857,38.3946667 26.6045714,38.2844444 C26.5011429,38.1771852 26.4,38.0616296 26.3051429,37.9425185 C26.212,37.8263704 26.124,37.7025185 26.0394286,37.5745185 C25.9542857,37.442963 25.8765714,37.3108148 25.8045714,37.1739259 C25.7314286,37.0334815 25.6662857,36.8924444 25.6074286,36.7478519 C25.5491429,36.6056296 25.4977143,36.4586667 25.452,36.3087407 C25.4051429,36.1505185 25.3674286,35.9976296 25.336,35.8411852 C25.3045714,35.6782222 25.2805714,35.5205926 25.2645714,35.36 C25.2491429,35.1922963 25.2411429,35.0287407 25.2411429,34.864 C25.2411429,34.3727407 25.6251429,33.9751111 26.0982857,33.9751111 C26.5714286,33.9751111 26.9554286,34.3727407 26.9554286,34.864 C26.9554286,34.9718519 26.9611429,35.0779259 26.9702857,35.1828148 C26.9805714,35.2817778 26.9965714,35.3860741 27.016,35.4885926 C27.0342857,35.581037 27.0588571,35.68 27.088,35.7771852 C27.116,35.8678519 27.1485714,35.9638519 27.1868571,36.0574815 C27.224,36.1493333 27.2662857,36.2394074 27.3114286,36.3259259 C27.3554286,36.4094815 27.4051429,36.4942222 27.4588571,36.5765926 C27.5102857,36.6554074 27.5668571,36.7348148 27.628,36.8112593 C27.6891429,36.8888889 27.7531429,36.9611852 27.8194286,37.0299259 C27.8874286,37.101037 27.9577143,37.1662222 28.0297143,37.2284444 C28.1022857,37.2906667 28.1782857,37.3493333 28.2565714,37.4044444 C28.3331429,37.4577778 28.4148571,37.5093333 28.4994286,37.5567407 C28.5857143,37.6053333 28.6725714,37.6485926 28.7605714,37.6877037 C28.8445714,37.725037 28.9354286,37.7588148 29.0274286,37.7884444 C29.1222857,37.8192593 29.2148571,37.8441481 29.3097143,37.8637037 C29.4085714,37.885037 29.5051429,37.9004444 29.6034286,37.9099259 C29.8091429,37.9324444 30.0125714,37.9318519 30.2074286,37.9105185 C30.3102857,37.8998519 30.408,37.885037 30.5028571,37.8648889 C30.6017143,37.8441481 30.6942857,37.8192593 30.7857143,37.7896296 C30.8811429,37.7588148 30.9714286,37.725037 31.0594286,37.6859259 C31.1451429,37.6485926 31.2325714,37.6041481 31.3171429,37.5567407 C31.4005714,37.5099259 31.4805714,37.4595556 31.5577143,37.405037 C31.6377143,37.3493333 31.7131429,37.2912593 31.7857143,37.2284444 C31.8577143,37.1668148 31.928,37.101037 31.9937143,37.0317037 C32.0668571,36.957037 32.1297143,36.8841481 32.1902857,36.8088889 C32.2451429,36.7401481 32.3022857,36.6607407 32.3554286,36.5783704 C32.4102857,36.4942222 32.46,36.4094815 32.5062857,36.3211852 C32.5491429,36.2388148 32.5908571,36.1493333 32.6285714,36.0574815 C32.668,35.9620741 32.7,35.8708148 32.7274286,35.7771852 C32.7565714,35.68 32.7811429,35.581037 32.8011429,35.4802963 C32.8205714,35.3807407 32.836,35.2788148 32.8457143,35.1751111 C32.8548571,35.0779259 32.86,34.9712593 32.86,34.864 C32.86,34.7555556 32.8542857,34.6494815 32.8451429,34.544 C32.8354286,34.4491852 32.8205714,34.3472593 32.8011429,34.2465185 C32.7811429,34.1463704 32.7565714,34.0474074 32.7274286,33.9502222 C32.6994286,33.8571852 32.668,33.7653333 32.6308571,33.6758519 C32.5908571,33.5774815 32.5485714,33.488 32.5028571,33.3991111 C32.4605714,33.3191111 32.4102857,33.2337778 32.3565714,33.1508148 C32.3028571,33.0672593 32.2462857,32.9896296 32.1862857,32.914963 C32.1285714,32.8426667 32.0662857,32.770963 32,32.7028148 C31.928,32.6275556 31.8577143,32.5617778 31.7857143,32.4995556 C31.7137143,32.4379259 31.6388571,32.3804444 31.5611429,32.3265185 C31.4782857,32.2678519 31.3988571,32.2174815 31.3165714,32.1718519 C31.232,32.1238519 31.1445714,32.0805926 31.0554286,32.0408889 C30.9714286,32.0035556 30.8805714,31.9691852 30.7885714,31.9401481 C30.6965714,31.9099259 30.6022857,31.8844444 30.5062857,31.8642963 C30.4062857,31.842963 30.3074286,31.8275556 30.2085714,31.8168889 C30.112,31.8068148 30.0102857,31.8020741 29.908,31.8020741 L28.688,31.8020741 C28.2148571,31.8020741 27.8308571,31.4038519 27.8308571,30.9131852 C27.8308571,30.4219259 28.2148571,30.0242963 28.688,30.0242963 L29.908,30.0242963 C30.0685714,30.0242963 30.2285714,30.0325926 30.3834286,30.0491852 C30.5434286,30.0657778 30.6994286,30.0900741 30.8508571,30.1232593 C30.9988571,30.1546667 31.148,30.1943704 31.2942857,30.2411852 C31.4405714,30.288 31.5851429,30.3431111 31.7251429,30.4035556 C31.8668571,30.4663704 32.0005714,30.5339259 32.1325714,30.608 C32.2668571,30.6832593 32.3971429,30.7656296 32.5222857,30.8539259 C32.6411429,30.9368889 32.7628571,31.0305185 32.8782857,31.1294815 C32.9937143,31.2284444 33.1045714,31.3333333 33.2102857,31.442963 C33.312,31.5472593 33.4125714,31.6622222 33.5085714,31.7831111 C33.6051429,31.9051852 33.6954286,32.0296296 33.7794286,32.1594074 C33.8611429,32.2844444 33.9377143,32.416 34.0091429,32.5511111 C34.084,32.6957037 34.1491429,32.8355556 34.2074286,32.9795556 C34.2668571,33.1217778 34.3194286,33.2722963 34.3651429,33.4263704 C34.4097143,33.5768889 34.448,33.7303704 34.4788571,33.8862222 C34.5108571,34.045037 34.5337143,34.2044444 34.5502857,34.3668148 C34.5657143,34.5357037 34.5737143,34.6986667 34.5737143,34.864 C34.5737143,35.0287407 34.5657143,35.1922963 34.5508571,35.3528889 C34.5337143,35.5223704 34.5108571,35.6823704 34.4788571,35.84 C34.4474286,35.997037 34.4097143,36.1499259 34.3651429,36.3004444 C34.3188571,36.4557037 34.2657143,36.6074074 34.2045714,36.7543704 C34.1485714,36.8918519 34.0834286,37.0328889 34.0125714,37.1685926 C33.9382857,37.3096296 33.8605714,37.4423704 33.7782857,37.5697778 C33.696,37.6965926 33.6062857,37.8204444 33.5125714,37.9395556 C33.4108571,38.0657778 33.3108571,38.1807407 33.204,38.2903704 C33.104,38.3946667 32.9937143,38.498963 32.8782857,38.5979259 C32.7634286,38.6968889 32.6428571,38.7899259 32.5182857,38.877037 C32.3954286,38.9635556 32.2662857,39.0447407 32.1325714,39.12 C32.0011429,39.1934815 31.8668571,39.261037 31.7285714,39.3226667 C31.5851429,39.3848889 31.4411429,39.4394074 31.2942857,39.4868148 C31.1502857,39.533037 30.9994286,39.5733333 30.8468571,39.6053333 C30.6977143,39.6379259 30.5411429,39.6622222 30.3822857,39.6782222 C30.2297143,39.6948148 30.0691429,39.7037037 29.9074286,39.7037037 Z" id="Shape" fill="#000000"></path>
                    <path d="M26.2468571,31.8020741 L16.4857143,31.8020741 C16.0125714,31.8020741 15.6285714,31.4038519 15.6285714,30.9131852 C15.6285714,30.4219259 16.0125714,30.0242963 16.4857143,30.0242963 L26.2468571,30.0242963 C26.72,30.0242963 27.104,30.4219259 27.104,30.9131852 C27.104,31.4038519 26.72,31.8020741 26.2468571,31.8020741 Z" id="Shape" fill="#000000"></path>
                    <path d="M14.0445714,31.8020741 L10.384,31.8020741 C9.91085714,31.8020741 9.52685714,31.4038519 9.52685714,30.9131852 C9.52685714,30.4219259 9.91085714,30.0242963 10.384,30.0242963 L14.0445714,30.0242963 C14.5177143,30.0242963 14.9017143,30.4219259 14.9017143,30.9131852 C14.9017143,31.4038519 14.5177143,31.8020741 14.0445714,31.8020741 Z" id="Shape" fill="#EC1D23"></path>
                    <path d="M38.9554286,34.7656296 C38.7937143,34.7656296 38.6337143,34.7567407 38.476,34.7395556 C38.3222857,34.7241481 38.1674286,34.6998519 38.0137143,34.6666667 C37.8628571,34.6352593 37.7125714,34.594963 37.5651429,34.5475556 C37.4228571,34.5019259 37.2811429,34.4474074 37.1405714,34.386963 C36.9948571,34.322963 36.8582857,34.2542222 36.7268571,34.1795556 C36.5977143,34.1072593 36.4702857,34.0266667 36.3462857,33.9413333 C36.2177143,33.8500741 36.0982857,33.7576296 35.9845714,33.6598519 C35.872,33.5644444 35.7622857,33.4601481 35.6554286,33.3505185 C35.5491429,33.2402963 35.4508571,33.1271111 35.356,33.0091852 C35.2565714,32.882963 35.1668571,32.7591111 35.0834286,32.6305185 C35.0017143,32.5048889 34.9245714,32.3721481 34.8525714,32.2358519 C34.7805714,32.0971852 34.716,31.9585185 34.6571429,31.8168889 C34.5965714,31.6675556 34.5445714,31.5205926 34.4988571,31.3706667 C34.4514286,31.2100741 34.4131429,31.0548148 34.3822857,30.8954074 C34.352,30.7442963 34.3291429,30.5848889 34.3125714,30.4219259 C34.2965714,30.2595556 34.288,30.0936296 34.288,29.9259259 C34.288,29.4346667 34.672,29.037037 35.1451429,29.037037 C35.6182857,29.037037 36.0022857,29.4346667 36.0022857,29.9259259 C36.0022857,30.0314074 36.0074286,30.1351111 36.0177143,30.237037 C36.028,30.3407407 36.0428571,30.4426667 36.0622857,30.5428148 C36.0822857,30.6482963 36.1062857,30.7442963 36.1348571,30.8391111 C36.1628571,30.9297778 36.1954286,31.0257778 36.2337143,31.1194074 C36.2702857,31.2065185 36.3131429,31.298963 36.3594286,31.3878519 C36.4034286,31.4714074 36.4531429,31.5561481 36.5068571,31.6385185 C36.5611429,31.7226667 36.6182857,31.8014815 36.6788571,31.8773333 C36.7348571,31.9472593 36.7988571,32.0207407 36.8662857,32.0912593 C36.9314286,32.1582222 37.0005714,32.2245926 37.0737143,32.2868148 C37.1514286,32.3525926 37.2285714,32.4124444 37.3074286,32.4687407 C37.38,32.5191111 37.4622857,32.5706667 37.5462857,32.6180741 C37.6325714,32.6666667 37.7194286,32.7099259 37.8074286,32.749037 C37.8908571,32.7851852 37.9811429,32.8201481 38.0742857,32.8497778 C38.1691429,32.8805926 38.2617143,32.9054815 38.3565714,32.925037 C38.4554286,32.9463704 38.5525714,32.9617778 38.6508571,32.9718519 C38.8548571,32.9937778 39.0577143,32.9931852 39.2565714,32.9718519 C39.3582857,32.9611852 39.4548571,32.9463704 39.5497143,32.9262222 C39.6485714,32.9054815 39.7411429,32.8805926 39.8325714,32.850963 C39.928,32.8201481 40.0182857,32.7863704 40.1062857,32.7472593 C40.192,32.7099259 40.2794286,32.6654815 40.364,32.6180741 C40.448,32.5706667 40.5302857,32.5191111 40.6097143,32.464 C40.6857143,32.4106667 40.7605714,32.3525926 40.8331429,32.2897778 C40.9091429,32.2257778 40.9777143,32.1611852 41.0422857,32.093037 C41.1108571,32.0225185 41.1742857,31.9502222 41.2337143,31.8755556 C41.2954286,31.7979259 41.3508571,31.7202963 41.4028571,31.6402963 C41.4594286,31.5543704 41.5074286,31.4737778 41.5502857,31.3896296 C41.5994286,31.2971852 41.64,31.2088889 41.6771429,31.1194074 C41.7137143,31.0287407 41.7462857,30.9345185 41.7748571,30.8391111 C41.8034286,30.7442963 41.8285714,30.6482963 41.8468571,30.5499259 C41.868,30.4426667 41.8828571,30.3407407 41.8931429,30.2376296 C41.904,30.1351111 41.9085714,30.0314074 41.9085714,29.9265185 C41.9085714,29.8216296 41.9034286,29.7167407 41.8931429,29.6142222 C41.8828571,29.5117037 41.868,29.4097778 41.8485714,29.309037 C41.8285714,29.2041481 41.8034286,29.1075556 41.7748571,29.0127407 C41.7462857,28.9173333 41.7137143,28.8237037 41.6765714,28.7312593 C41.6405714,28.6423704 41.5988571,28.5540741 41.5537143,28.4681481 C41.508,28.3798519 41.46,28.2980741 41.408,28.2192593 C41.3514286,28.1321481 41.2971429,28.0557037 41.2377143,27.9822222 C41.1737143,27.9004444 41.1102857,27.8293333 41.0445714,27.7611852 C40.9777143,27.6912593 40.9091429,27.6260741 40.8371429,27.5656296 C40.7617143,27.501037 40.6874286,27.442963 40.6102857,27.389037 C40.5291429,27.3315556 40.4485714,27.2811852 40.3645714,27.2343704 C40.28,27.1863704 40.1925714,27.1431111 40.1034286,27.1034074 C40.0194286,27.0660741 39.9285714,27.0317037 39.8365714,27.0026667 C39.7445714,26.9724444 39.6502857,26.946963 39.5542857,26.9268148 C39.4542857,26.9054815 39.3565714,26.8900741 39.2571429,26.8794074 C39.1605714,26.8693333 39.0588571,26.8645926 38.9565714,26.8645926 L24.6708571,26.8645926 C24.1977143,26.8645926 23.8137143,26.4663704 23.8137143,25.9757037 C23.8137143,25.4844444 24.1977143,25.0868148 24.6708571,25.0868148 L38.9565714,25.0868148 C39.1171429,25.0868148 39.2748571,25.0951111 39.4314286,25.1111111 C39.592,25.1282963 39.7468571,25.1525926 39.8982857,25.1857778 C40.0462857,25.2171852 40.1954286,25.2568889 40.3417143,25.3037037 C40.488,25.3505185 40.6325714,25.4056296 40.7725714,25.4660741 C40.9142857,25.5288889 41.048,25.5964444 41.18,25.6705185 C41.3125714,25.7451852 41.4417143,25.8263704 41.5668571,25.9134815 C41.6897143,25.9994074 41.8097143,26.0924444 41.9257143,26.192 C42.0394286,26.2885926 42.152,26.3946667 42.2588571,26.5054815 C42.3628571,26.6139259 42.4645714,26.7294815 42.56,26.8503704 C42.6514286,26.9641481 42.7417143,27.0903704 42.8268571,27.2219259 C42.9085714,27.3451852 42.9874286,27.4808889 43.06,27.6201481 C43.1308571,27.7546667 43.1965714,27.8962963 43.256,28.0420741 C43.3154286,28.189037 43.3674286,28.3371852 43.4125714,28.4888889 C43.4577143,28.6417778 43.4971429,28.7976296 43.528,28.9564444 C43.5582857,29.1075556 43.5811429,29.266963 43.5977143,29.4293333 C43.6137143,29.5928889 43.6222857,29.7588148 43.6222857,29.9265185 C43.6222857,30.0942222 43.6137143,30.2601481 43.5977143,30.4231111 C43.5811429,30.5848889 43.5582857,30.7448889 43.5262857,30.9031111 C43.4971429,31.0554074 43.4577143,31.2112593 43.4125714,31.3635556 C43.3674286,31.5158519 43.3148571,31.6657778 43.256,31.8103704 C43.1965714,31.9567407 43.1302857,32.0995556 43.0565714,32.2382222 C42.988,32.3715556 42.9085714,32.5072593 42.8217143,32.6388148 C42.7422857,32.7614815 42.6525714,32.8871111 42.556,33.008 C42.4634286,33.1241481 42.3617143,33.2402963 42.2565714,33.3493333 C42.1514286,33.458963 42.0394286,33.5638519 41.9217143,33.664 C41.8108571,33.7594074 41.6914286,33.8518519 41.5668571,33.9395556 C41.44,34.0272593 41.3125714,34.1078519 41.18,34.1825185 C41.0485714,34.256 40.9142857,34.3235556 40.776,34.3851852 C40.6325714,34.4474074 40.4885714,34.5019259 40.3417143,34.5493333 C40.1977143,34.5955556 40.0468571,34.6358519 39.8942857,34.6678519 C39.7451429,34.7004444 39.5897143,34.7247407 39.4308571,34.7407407 C39.276,34.7567407 39.1171429,34.7656296 38.9554286,34.7656296 Z" id="Shape" fill="#000000"></path>
                    <path d="M21.028,26.864 L15.7411429,26.864 C15.268,26.864 14.884,26.4657778 14.884,25.9751111 C14.884,25.4838519 15.268,25.0862222 15.7411429,25.0862222 L21.028,25.0862222 C21.5011429,25.0862222 21.8851429,25.4838519 21.8851429,25.9751111 C21.8851429,26.4657778 21.5011429,26.864 21.028,26.864 Z" id="Shape" fill="#EC1D23"></path>
                    <path d="M12.1697143,26.864 L5.23542857,26.864 C4.76228571,26.864 4.37828571,26.4657778 4.37828571,25.9751111 C4.37828571,25.4838519 4.76228571,25.0862222 5.23542857,25.0862222 L12.1697143,25.0862222 C12.6428571,25.0862222 13.0268571,25.4838519 13.0268571,25.9751111 C13.0268571,26.4657778 12.6428571,26.864 12.1697143,26.864 Z" id="Shape" fill="#EC1D23"></path>
                </g>
            </g>
        </g>
    </g>
</svg>