<?xml version="1.0" encoding="UTF-8" standalone="no"?>
<svg viewBox="0 0 127 97" version="1.1" xmlns="http://www.w3.org/2000/svg" xmlns:xlink="http://www.w3.org/1999/xlink">
    <defs></defs>
    <g id="slide" stroke="none" stroke-width="1" fill="none" fill-rule="evenodd">
        <g id="Карта-v2" transform="translate(-967.000000, -290.000000)" fill="#FFFFFF">
            <g id="карта" transform="translate(761.000000, 72.000000)">
                <path d="M297.132026,294.5602 C295.720249,293.024861 295.556492,293.006815 293.829693,294.03485 C293.049641,293.868338 292.540419,293.521357 292.006109,293.218444 C290.6021,292.422289 289.358805,292.886678 288.893776,294.442791 C288.697373,295.100029 288.682362,295.815709 288.622632,296.508096 C288.556604,297.27225 288.564267,298.043434 288.482284,298.805385 C288.422345,299.361792 288.260582,299.90351 287.584453,300.322992 C287.246756,300.143573 286.82991,299.939183 286.429545,299.706359 C284.987011,298.86729 284.561033,298.933706 283.397516,300.193622 C283.30619,300.292564 283.182637,300.361813 282.996311,300.504194 C281.640695,300.211354 280.343339,300.552458 279.029397,301.161537 C278.09766,301.593505 277.023685,301.744594 275.997893,301.942059 C274.560503,302.218741 273.108837,302.421872 271.498663,302.683235 C270.843004,302.352937 270.05361,301.903132 269.223487,301.548703 C267.867241,300.969527 267.560091,301.088615 266.847537,302.311598 C266.674962,302.6079 266.53157,302.921305 266.329812,303.314242 C265.89701,303.216874 265.502313,303.145736 265.118009,303.03735 C264.579709,302.885632 264.048233,302.709256 263.515602,302.538127 C262.325318,302.155577 261.173033,301.609243 259.857412,302.093673 C258.375409,302.639377 257.129069,303.484217 256.120493,304.697757 C255.036231,306.002685 254.229306,307.467515 253.595902,309.030238 C253.176011,310.066458 252.808292,311.123767 252.401209,312.165338 C252.124396,312.873778 251.81987,313.571307 251.463803,314.427583 C251.025123,314.10463 250.668006,313.917657 250.410823,313.638877 C249.415158,312.559324 248.475968,311.427205 247.467497,310.360243 C246.704871,309.553385 246.169196,309.541738 245.272835,310.243673 C244.667773,310.7174 244.114042,311.25597 243.524726,311.750473 C241.032362,313.841274 238.152229,314.603749 234.931879,314.348052 C232.889742,314.185946 230.936517,313.734042 229.035359,312.991502 C226.399392,311.961892 224.861438,310.051664 224.313796,307.29009 C223.971271,305.563162 223.729099,303.820496 224.007276,302.080243 C224.457924,299.261276 225.861722,296.977312 228.214998,295.324249 C231.771889,292.825613 234.916973,289.826073 238.269483,287.078979 C238.743119,286.690869 239.105905,286.144325 239.44927,285.624431 C241.067842,283.174059 242.620072,280.67899 244.277379,278.255373 C245.664277,276.227211 246.136444,274.071148 245.586073,271.681631 C245.444885,271.068671 245.300547,270.452982 245.217304,269.830579 C244.935348,267.721941 243.675572,266.398127 241.755938,265.742044 C238.849561,264.748633 235.967329,264.81295 233.26313,266.429289 C232.306935,267.000805 231.406585,267.677978 230.534157,268.373828 C229.495978,269.201985 228.520363,270.10831 227.508427,270.969938 C225.79454,272.429102 223.944188,273.664046 221.839592,274.508572 C219.766593,275.340401 217.642893,275.500514 215.452745,275.176092 C213.739592,274.922283 212.472993,274.038202 211.608753,272.560256 C211.362383,272.138885 211.138791,271.700937 210.944382,271.25344 C210.749867,270.805629 210.592409,270.340505 210.440198,269.875906 C209.046267,265.620228 209.313842,265.463788 206.534798,261.01033 C207.668712,259.812634 209.128461,259.001159 210.510635,257.897159 C210.978288,258.364172 211.396499,258.781765 211.807256,259.192014 C211.975947,259.130949 212.133406,259.11584 212.2325,259.031902 C214.793832,256.861884 217.349495,254.685361 219.904947,252.508313 C220.577507,251.935329 220.93032,251.219019 220.988789,250.322347 C221.038651,249.557563 221.170287,248.795822 221.301818,248.039012 C221.560995,246.546482 222.400461,245.505961 223.795967,244.903808 C225.608843,244.121502 227.51672,243.681664 229.460078,243.438663 C232.094155,243.109309 234.746708,242.926638 237.379,242.585534 C240.219139,242.217359 243.047206,241.752655 245.874957,241.295505 C246.34198,241.21996 246.853407,241.061422 247.217977,240.778549 C248.265708,239.965606 249.29339,239.115729 250.245806,238.1944 C251.491411,236.989464 252.168484,235.449929 252.443827,233.756262 C252.903607,230.928481 253.31447,228.092937 253.745068,225.26054 C253.86862,224.447911 253.807946,223.592998 254.755639,223.114864 C255.330364,222.824857 254.835208,222.246941 254.86523,221.663044 C255.574635,221.444804 256.34188,221.583722 257.083931,221.591067 C257.83627,221.598517 258.61947,221.408501 259.436682,221.845086 C258.915073,223.628567 259.556875,225.247634 260.255048,226.861036 C260.588021,227.630541 260.865884,228.424179 261.20442,229.191271 C261.577808,230.037265 262.20166,230.512357 263.182314,230.42611 C263.594226,230.389911 264.012122,230.420129 264.470643,230.420129 C264.937666,230.959224 265.372567,231.503669 265.852292,232.005201 C266.575133,232.760857 267.360538,233.194399 268.46443,232.659816 C268.935967,232.431399 269.539559,232.455636 270.086886,232.407266 C271.427806,232.289018 271.745033,231.955678 271.598492,230.56933 C271.52837,229.905272 271.581486,229.269019 271.989305,228.781127 C272.758964,227.860322 272.699759,226.869534 272.455908,225.814743 C272.23578,224.862462 272.022686,223.907662 271.844233,222.946882 C271.782509,222.614801 271.83447,222.26163 271.83447,221.772269 C272.311151,221.757265 272.776599,221.694941 273.23281,221.736281 C275.878224,221.975715 278.521434,222.240436 281.165694,222.49372 C281.443451,222.520265 281.724568,222.554995 282.001591,222.539991 C283.0974,222.4805 283.796517,221.802802 283.886689,220.686001 C283.925843,220.199788 283.875352,219.707069 283.890153,219.218128 C283.90002,218.890978 283.953241,218.565192 283.981899,218.288615 C284.532585,218.087268 284.737387,218.43834 284.970951,218.666443 C286.422092,220.083218 287.873338,221.500204 289.297921,222.94342 C290.049315,223.704636 290.896339,224.250761 291.910479,224.6267 C298.464338,227.056192 304.987335,229.569518 311.555575,231.95914 C314.193536,232.918766 316.972056,233.309604 319.789835,233.39008 C323.066975,233.483672 326.120208,234.384331 328.969164,236.013785 C330.167951,236.699457 331.078273,237.584588 331.534064,238.921412 C331.781065,239.645905 332.131883,240.335145 332.500337,241.189743 C332.207988,241.550048 331.908921,242.016851 331.517164,242.385026 C329.479226,244.300815 327.422393,246.196564 325.359681,248.085808 C325.003614,248.412014 324.616055,248.725838 324.193226,248.952262 C323.480987,249.333762 322.868367,249.502898 322.156443,248.648405 C321.584237,247.961474 320.906639,247.362154 320.29003,246.738387 C319.170497,247.616487 316.581033,250.397892 316.056485,251.237486 C315.602689,251.963763 315.356633,252.746069 315.286196,253.60329 C315.217544,254.437952 315.129787,255.277861 314.956792,256.095631 C314.65888,257.504642 313.893735,258.08728 312.442384,258.085077 C310.976861,258.082873 309.511024,258.036392 308.045921,258.055593 C307.640727,258.060839 307.210759,258.170379 306.838632,258.336367 C305.63974,258.87137 305.205888,259.7906 305.602264,261.061848 C305.85021,261.857269 306.19536,262.629817 306.568327,263.376974 C307.044588,264.331144 307.132765,265.218583 306.472382,266.132882 C306.189691,266.524455 305.967569,266.977932 305.805176,267.434242 C305.463386,268.394393 305.775679,269.256021 306.662068,269.770563 C307.078494,270.012306 307.559583,270.146922 308.018104,270.311441 C315.056516,272.837148 312.582732,271.545756 318.594198,276.05797 C319.321028,276.60357 319.996107,277.218628 320.729025,277.755205 C321.729309,278.487358 322.391581,279.432609 322.73925,280.616351 C323.093638,281.82286 323.435849,283.034301 323.843877,284.222869 C324.068518,284.877064 324.015717,285.486982 323.686838,286.038143 C322.403233,288.188645 321.082153,290.316903 319.737769,292.514306 C318.745568,292.185163 318.345622,291.452485 317.903583,290.760308 C317.566831,290.23286 317.251283,289.685581 316.857846,289.202936 C316.595414,288.881032 316.193894,288.629741 315.745661,288.825947 C315.265412,289.036213 314.976947,289.436179 315.0034,289.984087 C315.023135,290.393077 315.095671,290.799444 315.13577,291.13247 C313.025191,293.766982 310.21623,295.102337 307.154599,296.229001 C306.893637,295.869744 306.624278,295.559487 306.42315,295.209988 C305.935132,294.361791 305.489104,293.489461 305.005285,292.638745 C304.764163,292.214646 304.513069,291.78719 304.204239,291.412509 C303.384613,290.418574 302.377506,290.039802 301.441256,290.411649 C300.352165,290.844246 299.842943,291.731056 299.784368,292.868211 C299.745423,293.624916 299.77702,294.385188 299.77702,295.22069 C298.542228,295.617929 297.723861,295.456662 297.132026,294.5602 Z" id="CAO"></path>
            </g>
        </g>
    </g>
</svg>