<?xml version="1.0" encoding="UTF-8" standalone="no"?>
<svg viewBox="0 0 155 258" version="1.1" xmlns="http://www.w3.org/2000/svg" xmlns:xlink="http://www.w3.org/1999/xlink">
    <defs></defs>
    <g id="slide" stroke="none" stroke-width="1" fill="none" fill-rule="evenodd">
        <g id="Карта-v2" transform="translate(-859.000000, -72.000000)" fill="#FFFFFF">
            <g id="карта" transform="translate(761.000000, 72.000000)">
                <path d="M136.175195,89.1349791 C135.160845,89.9247346 134.017483,90.3780021 132.755712,90.6185905 C132.224551,90.7198412 131.655075,90.9444814 131.242323,91.2828582 C129.905497,92.3787791 128.349803,92.9641446 126.7137,93.3604389 C124.333866,93.9369908 122.00043,94.6427031 119.739531,95.5866955 C119.562337,95.6606662 119.339585,95.625517 119.021833,95.650069 C118.434511,94.3256257 117.628637,93.0415778 117.312984,91.6468361 C116.996387,90.2480024 117.13768,88.7382651 117.153216,87.2780515 C117.15626,86.9890935 117.465614,86.6727506 117.69372,86.4239781 C118.066687,86.0172965 118.488887,85.6556268 118.949192,85.2191471 C118.755517,84.7541283 118.575699,84.3222651 118.377511,83.8464392 C118.488782,83.7011209 118.576014,83.4849794 118.734628,83.3963195 C120.00931,82.6838922 121.297429,81.9954923 122.55563,81.3139123 C122.549962,81.0079568 122.528442,80.9250676 122.480365,80.8865609 C118.992126,78.0989661 115.500947,75.3150437 111.920857,72.4597736 C111.447955,72.8633075 111.024076,73.2056713 110.622556,73.5723773 C110.054864,74.0910117 109.514045,74.6392345 108.94058,75.1511539 C108.684657,75.3796763 108.399236,75.671677 108.089777,75.7273911 C106.524426,76.0093193 104.963588,76.3783335 103.411883,76.3905046 C101.023652,71.1574691 101.023652,71.1574691 98.3190328,68.4160404 C98.088408,67.097263 98.5569007,65.8197204 98.7639067,64.5205635 C98.812614,64.214608 99.0827085,63.901203 99.3288692,63.6765628 C100.668215,62.4547342 102.031914,61.2595561 103.452928,59.9968076 C104.473051,60.3155637 105.285119,60.993891 106.193447,61.4773763 C106.501542,61.6412661 106.784758,61.8522663 107.094112,62.0132182 C107.821992,62.3918853 108.0016,62.2973497 108.689485,61.1505411 C106.922062,58.9710802 105.128815,56.7597226 103.262927,54.4588658 C102.80976,54.7227472 102.414119,54.9530532 102.018162,55.1831494 C101.906576,55.1228186 101.731377,55.089558 101.693692,54.9990095 C100.835331,52.9393706 99.9276329,50.8966244 99.1720401,48.7992132 C98.7748238,47.6967871 98.6485418,46.4967825 98.3738285,45.2195546 C100.005942,43.8007856 101.623675,42.3740423 103.27227,40.9837074 C103.516331,40.7779534 103.902525,40.6601248 104.22878,40.6470095 C105.271788,40.6050403 106.31763,40.6314809 107.402102,40.6314809 C107.729616,41.1243043 108.030677,41.5773619 108.372258,42.0915896 C107.82745,42.7837667 107.319908,43.4285187 106.757885,44.1424149 C107.368825,45.0221944 108.134495,45.685203 109.219072,46.4109555 C109.366874,46.1628125 109.521393,45.9337656 109.645471,45.689295 C109.929947,45.1285864 110.232478,44.5736485 110.469086,43.9924799 C111.214181,42.1626225 112.699753,41.5855459 114.504232,41.6611954 C116.528209,41.7460781 118.546517,41.9672558 120.570494,42.0547616 C121.296694,42.0860287 121.710811,42.4580857 122.13637,42.941466 C123.104952,44.0417937 124.065136,45.1525088 125.089669,46.1995356 C125.611278,46.7326495 126.186737,47.2728981 126.940965,47.3621876 C127.832918,46.8631737 127.352038,45.8722807 127.916581,45.1902811 C129.092799,45.0062461 130.346067,45.134462 131.592826,45.1613223 C131.852318,45.1668833 132.118214,45.3269958 132.363325,45.4510148 C132.732199,45.6375679 133.064962,45.9189715 133.450841,46.0418363 C133.840079,46.1656455 134.275296,46.1450806 134.732451,46.192191 C135.612017,47.3502263 134.96885,48.4272611 134.418898,49.6261115 C134.79386,49.68959 135.065005,49.8259899 135.259624,49.7545373 C137.547291,48.9148384 139.823517,48.0439773 142.260351,47.121704 C142.497169,46.3297451 142.772617,45.4086259 143.077983,44.3874102 C143.887636,44.2708407 144.704638,44.153222 145.637424,44.0188156 C146.149061,42.8728464 145.952237,41.5995006 146.160188,40.3003438 C145.724867,39.974348 145.266136,39.6761568 144.861362,39.3172151 C144.215466,38.7446502 144.041946,38.0283408 144.40977,37.2316603 C144.672201,36.6630825 144.979141,36.1150695 145.266766,35.5566692 C144.884771,34.8438222 144.414704,35.8155143 143.913564,35.3723195 C143.309552,34.0650836 143.146635,32.446751 142.508506,30.9456173 C140.604513,31.1594504 138.993184,31.8566639 137.314042,32.2622963 C135.547354,32.6891231 133.801449,33.2025115 132.048197,33.6840032 C130.373149,34.1440906 128.700306,34.6118374 126.948104,35.0978409 C126.621009,34.6099488 126.322467,34.1646555 126.0635,33.7785388 C124.355595,33.2286373 122.869708,34.2174318 121.213031,34.262129 C120.690372,32.5496804 120.187134,30.9008152 119.687779,29.2646457 C119.937089,28.9685529 120.100531,28.7447521 120.293471,28.550015 C123.147361,25.6693535 125.986765,22.773688 128.8754,19.9281758 C129.580291,19.2339002 129.91064,18.5133938 129.844822,17.5287962 C129.794016,16.7707274 129.897414,16.0023761 129.935309,15.1718055 C130.510034,15.0197721 131.035631,14.8616531 131.569942,14.7430901 C133.008486,14.4240192 134.187329,13.7430688 134.811496,12.3504255 C135.110878,11.6822758 135.595326,11.4479827 136.285731,11.394367 C137.881734,11.270348 139.473959,11.0983792 141.092006,10.9436177 C141.351393,10.3766137 141.57677,9.88421 141.782831,9.43367056 C141.968632,9.35980475 142.093445,9.27271865 142.223086,9.2647445 C143.128894,9.20871561 144.02494,9.1507981 144.887395,9.58958616 C145.303192,9.80100604 145.740193,9.58234647 145.975961,9.20263007 C146.26642,8.73446356 146.607791,8.23356107 146.687255,7.71030998 C146.986742,5.73723262 147.935589,4.01534096 148.678271,2.2131832 C148.966945,1.5126122 149.284382,0.823792587 149.599195,0.105699449 C150.67107,0.0791539251 151.411862,0.673962517 152.24167,0.968271583 C153.163854,1.29531663 154.075122,1.65730105 154.975472,2.04068975 C155.795517,2.38987356 156.742475,2.48325505 157.429101,3.16546451 C157.429731,4.20588116 156.950951,5.08566067 156.697337,6.01832138 C156.548276,6.56664908 156.430917,7.08948048 156.622911,7.65700909 C156.936465,8.58368918 157.232382,9.51760897 157.495024,10.4598177 C157.686704,11.1474831 158.116566,11.4983457 158.796999,11.6539466 C160.637588,12.0748977 162.471565,12.5250174 164.30764,12.965904 C165.938599,13.3575816 167.555597,13.8274269 169.204192,14.1190079 C170.253918,14.3047217 170.817831,14.8052045 171.085511,15.7966221 C171.248428,16.4003491 171.50876,16.9794193 171.747573,17.560378 C172.08254,18.3753151 172.361977,18.5495922 173.173101,18.4082609 C175.30163,18.0375679 177.426275,17.6448411 179.554805,17.2743579 C179.750578,17.2402579 179.963358,17.3031068 180.307353,17.3329049 C180.749498,18.2127894 181.210327,19.1438762 181.683859,20.0685628 C182.127053,20.9338629 182.583684,21.7922381 183.057845,22.6983533 C182.373529,23.7568167 181.60366,24.4918025 180.191358,24.4071296 C179.092505,24.3412379 177.977591,24.5418508 176.85365,24.6252646 C176.52855,24.2421906 176.278715,23.9106339 175.990565,23.6164297 C175.436625,23.0506848 174.769314,23.0063024 174.053506,23.2541305 C173.526543,23.4364868 173.239863,23.868245 173.393333,24.3876139 C173.590577,25.0545046 173.890588,25.6914923 174.079119,26.3602716 C174.301661,27.1503419 173.989473,27.7299367 173.216979,28.021098 C172.761083,28.192857 172.287552,28.3425822 171.808562,28.4236877 C170.481918,28.6485377 169.278302,28.5590384 168.739373,27.0212866 C168.704837,26.9228688 168.526279,26.874919 168.302687,26.7316991 C167.968244,26.9918032 167.588559,27.267436 167.230812,27.5688798 C165.680577,28.8753813 164.142308,30.1959424 162.588924,31.4985616 C161.333242,32.5514641 159.885355,33.2210828 158.296804,33.6096128 C157.074608,33.9085385 155.865954,34.2654866 154.639244,34.5437424 C152.129874,35.1128449 150.606827,36.9373512 149.138155,38.8241819 C148.939862,39.0790399 148.827961,39.4729209 148.83216,39.8003856 C148.848011,41.056524 148.901337,42.3139215 148.994028,43.5669121 C149.04326,44.2324389 149.422841,44.9249308 150.02171,45.0232436 C151.104712,45.2010882 151.193834,46.0774052 151.508647,46.7502765 C152.174908,46.9224552 152.754671,47.0722853 153.381988,47.2344963 C153.374744,48.3721765 152.576113,49.121117 152.402173,50.0552467 C152.228024,50.9902157 152.230648,51.9580256 152.156642,52.9011786 C149.625228,53.0418804 149.625228,53.0418804 148.548524,54.6224408 C148.422137,54.6734333 148.293336,54.7709068 148.164955,54.7702773 C146.17289,54.7604145 145.195595,56.0214843 144.445251,57.6413908 C143.824233,58.982202 143.269873,60.3282594 143.174662,61.8236223 C143.074519,63.3985168 143.33569,64.8862203 144.200455,66.23595 C144.351195,66.4713972 144.491963,66.7132448 144.637455,66.9520496 C145.492247,68.3559196 145.627767,69.835439 145.097025,71.3821093 C144.961506,71.7769346 144.810975,72.1666187 144.635461,72.6456972 C144.873119,73.0873182 145.148567,73.564613 145.391789,74.057961 C145.899331,75.0874657 146.094475,76.1881081 145.963784,77.3204373 C145.776303,78.944226 144.454068,79.591601 143.095933,78.7328061 C142.687799,78.4746955 142.317351,78.1330661 141.992566,77.7728654 C141.482924,77.2075402 140.865055,76.9860477 140.127413,76.9960154 C139.362268,77.0062978 138.596912,76.9983237 137.682706,76.9983237 C137.452291,77.2621001 137.128766,77.6191532 136.820041,77.9884822 C135.700929,79.3277196 135.557536,80.6973847 136.561599,82.2015611 C137.525457,83.6453018 138.390641,85.1548293 139.327837,86.6820887 C138.416465,87.7233448 137.213584,88.3264423 136.175195,89.1349791 Z M161.884369,127.173235 C164.041241,125.574523 164.045125,125.579769 165.035856,123.366838 C165.412183,123.366838 165.821681,123.353617 166.230129,123.368936 C169.65633,123.497992 173.081586,123.58151 176.478394,122.979462 C179.519975,122.440263 182.454274,121.585245 185.141572,120.003111 C186.778305,119.039498 188.198059,117.821237 189.370708,116.375397 C191.431425,117.476774 192.025675,117.397138 193.698728,115.871032 C195.004377,114.202022 196.376789,112.98481 198.228925,112.333973 C198.724501,112.159905 199.129905,111.68387 199.533315,111.300796 C203.49813,107.534374 207.789094,104.178201 212.332308,101.142254 C214.77607,99.5091271 217.293313,98.0084132 220.091883,97.0343079 C220.678155,96.8302326 221.222962,96.5068598 221.922605,96.1738342 C223.138922,97.9752575 225.121434,98.8854647 226.914471,100.043395 C230.262047,102.205229 233.612983,104.362761 236.995934,106.468461 C237.895864,107.02854 238.387556,107.693542 238.594142,108.755678 C238.902972,110.343688 239.053922,111.926032 239.092867,113.538594 C239.17716,117.030327 239.306171,120.52143 239.462161,124.010645 C239.489558,124.623396 239.707691,125.235307 239.888979,125.832109 C240.84339,128.974134 241.784364,132.12067 242.787063,135.247376 C243.92675,138.801014 244.050723,142.450131 243.323997,146.029265 C242.479913,150.18684 242.981577,154.219242 243.657075,158.288681 C243.782938,159.046645 243.912579,159.803979 244.051352,160.559635 C244.316828,162.004844 244.630486,163.426761 245.482654,164.677863 C246.047616,165.507175 246.05423,166.500481 246.250843,167.456225 C246.706739,169.671989 245.917345,171.398182 244.594901,173.027847 C244.331419,173.352479 244.133021,173.729572 243.873319,174.057771 C243.276655,174.811748 243.106389,175.645361 243.165069,176.604987 C243.373544,180.021071 243.490169,183.44282 243.713341,186.857855 C243.776114,187.817481 244.0608,188.767034 244.2909,189.709767 C244.406055,190.181081 244.599519,190.639595 244.805686,191.081426 C245.730809,193.063422 246.401164,195.115716 246.310888,197.326759 C246.257247,198.642808 246.819375,199.592571 247.73694,200.433844 C248.195461,200.854166 248.600025,201.333244 249.107882,201.868876 C248.937197,202.116075 248.828445,202.369674 248.639915,202.528842 C248.026035,203.047267 247.950874,203.678379 248.086499,204.422912 C248.437107,206.34783 248.745622,208.280407 249.07723,210.208787 C249.550972,212.963856 250.022404,215.719344 250.510001,218.471895 C250.933881,220.86393 250.943223,220.862356 252.689337,222.453199 C252.592343,223.049686 252.476768,223.724341 252.37358,224.400989 C251.951905,227.165186 251.575998,229.937253 251.094069,232.690747 C250.903334,233.781212 250.695173,234.967682 250.119818,235.872118 C248.747721,238.028601 246.99153,239.697402 244.216474,240.100516 C239.856018,240.734146 235.49976,241.348785 231.106237,241.71738 C228.736586,241.916104 226.412912,242.41218 224.142145,243.178747 C221.286996,244.142675 219.728467,246.092879 219.60544,249.057794 C219.544031,250.537628 218.937499,251.51016 217.820696,252.393716 C216.177245,253.693922 214.638871,255.126646 213.050741,256.497256 C212.794293,256.718538 212.512336,256.910128 212.126247,257.203702 C211.847545,256.812864 211.582489,256.508482 211.391439,256.163076 C209.091804,252.003822 206.808335,247.835546 204.509751,243.675663 C202.697819,240.396713 202.689526,240.400701 202.122779,236.834892 C201.366766,232.077472 200.637312,227.315541 199.838785,222.565256 C199.678912,221.614444 199.343104,220.670137 198.947568,219.785846 C195.922887,213.024396 192.878577,206.271761 189.800361,199.534549 C189.265735,198.364342 188.925519,197.20274 188.966878,195.908619 C188.995851,195.003763 188.912713,194.093346 188.846265,193.187965 C188.772154,192.179131 188.965199,191.269553 189.520924,190.39502 C190.382434,189.039309 191.230927,187.665867 191.952929,186.233458 C192.773395,184.605787 191.616072,182.723573 189.789234,182.590531 C189.376586,182.560523 188.955121,182.650861 188.537645,182.685801 C187.144764,182.80237 185.753247,182.941603 184.358476,183.028269 C183.255005,183.096784 181.862438,181.913462 181.757466,180.788373 C181.730383,180.498156 181.934554,180.096196 182.163709,179.894744 C182.465191,179.629813 182.913739,179.541258 183.268756,179.326585 C184.719372,178.449744 184.954196,177.116067 183.845161,175.826878 C182.888335,174.714484 181.889416,173.636715 180.876221,172.574894 C179.610461,171.248457 179.178499,169.749842 179.770544,167.982204 C179.947528,167.453706 180.081263,166.909051 180.207335,166.365445 C180.543457,164.916983 180.389463,164.618896 178.98367,163.940989 C178.480326,163.698197 177.98496,163.429699 177.461777,163.238844 C176.684245,162.955237 176.197592,162.418136 175.847613,161.691229 C174.968573,159.865254 174.032952,158.065719 173.188973,156.224006 C172.936933,155.674104 172.808552,155.019909 172.807607,154.413244 C172.806137,153.345652 172.617502,152.341329 172.259335,151.341623 C171.153029,148.254473 170.026253,145.171835 169.499816,141.913345 C169.4446,141.571506 169.351174,141.218125 169.192036,140.913639 C168.418493,139.433595 168.2962,137.851251 168.383642,136.226728 C168.402432,135.878173 168.395399,135.527311 168.383117,135.178232 C168.31436,133.23128 167.718326,132.533437 165.751454,132.007668 C165.286741,131.883439 164.769331,131.751236 164.415048,131.456193 C163.187079,130.433403 162.020308,129.337272 160.740482,128.18847 C161.178848,127.796268 161.507622,127.452435 161.884369,127.173235 Z" id="SAO"></path>
            </g>
        </g>
    </g>
</svg>