<?xml version="1.0" encoding="UTF-8" standalone="no"?>
<svg width="134px" height="192px" viewBox="0 0 134 192" version="1.1" xmlns="http://www.w3.org/2000/svg" xmlns:xlink="http://www.w3.org/1999/xlink">
    <defs></defs>
    <g id="slide" stroke="none" stroke-width="1" fill="none" fill-rule="evenodd">
        <g id="Карта-v2" transform="translate(-971.000000, -112.000000)" fill="#FFFFFF">
            <g id="карта" transform="translate(761.000000, 72.000000)">
                <path d="M218.070751,55.0034372 C220.503071,54.3940443 222.968352,53.9164347 225.544485,53.3537326 C225.470374,52.8658406 225.461661,52.463146 225.344722,52.0945515 C224.58472,49.6984245 223.798895,47.3103766 223.027977,44.9177121 C222.923949,44.5948639 222.856136,44.2604743 222.738777,43.804269 C224.600361,42.7581865 226.617095,42.1622238 228.461253,41.1020816 C229.415979,41.5701432 230.256074,42.3206575 231.393243,41.8908928 C232.232289,43.3395649 233.440628,44.2678189 234.757404,45.232691 C237.811267,43.5314692 240.848544,41.8395855 243.969484,40.1010111 C244.514607,40.6274098 245.000105,41.0962059 245.503344,41.5822093 L247.984581,41.5822093 C249.183053,43.3743994 249.316054,44.4600379 248.625124,47.0418786 C248.267167,47.2071323 247.83552,47.4095288 247.401143,47.6060496 C246.648805,47.9466298 245.913892,47.9552335 245.208581,47.4780436 C244.423806,46.9471331 243.533953,46.8416855 242.615233,46.7843975 C241.360076,46.7059151 240.109537,46.5544062 238.85501,46.4621789 C238.523926,46.4378368 238.185179,46.5160044 237.708499,46.560177 C237.708499,47.0567776 237.672598,47.4559048 237.714167,47.846848 C238.002737,50.557744 238.303589,53.2674859 238.609059,55.9765982 C238.716026,56.9254171 238.968485,57.2073452 239.854979,57.3855045 C240.127487,57.4402743 240.412278,57.4312509 240.689196,57.4681838 C240.963069,57.5046971 241.234003,57.5626146 241.529711,57.6152859 C242.175503,58.5947423 241.776607,59.6697835 241.853867,60.6806119 C241.927662,61.6471627 241.869718,62.6236813 241.869718,63.6457364 C241.223611,64.0679466 240.585483,64.4849107 239.860227,64.958848 C239.814879,65.5125267 239.766067,66.1100633 239.710641,66.7870266 C239.10117,66.9073734 238.557517,66.9945644 238.024256,67.1247738 C237.307399,67.3001002 237.086011,67.6009145 237.122542,68.3067316 C237.370277,73.0839816 236.908818,77.7735159 235.700898,82.4200318 C234.946985,85.3199991 234.513133,88.3034851 233.952265,91.2525564 C233.903977,91.5072046 233.980712,91.7854604 234.00727,92.166331 C234.332475,92.1835383 234.597321,92.2479611 234.841907,92.2029491 C237.449007,91.7222967 240.038366,91.1141629 242.662261,90.7645594 C244.940271,90.4610171 247.255966,90.3531563 249.556231,90.337208 C250.86062,90.3281846 252.167529,90.6779979 253.527449,90.8740991 C254.104588,90.3806461 254.484169,89.3956288 255.613464,89.9277984 C255.836846,90.4217759 255.984123,91.0688362 256.368637,91.5088833 C256.766064,91.9635148 257.382568,92.2359998 257.922757,92.5551757 C264.310654,96.330201 270.8938,99.7032661 277.908909,102.174833 C283.328539,104.084117 288.89723,105.429964 294.545176,106.446669 C297.158783,106.917143 299.797689,107.245867 302.415916,107.692734 C303.557913,107.887681 304.48818,107.703856 305.163888,106.695861 C305.278623,106.524626 305.435347,106.372278 305.598685,106.244377 C306.196399,105.77621 307.097379,105.792474 307.425733,106.475942 C308.127999,107.937939 309.359853,108.085566 310.719458,108.146107 C313.721254,108.279674 316.721791,108.44136 319.722747,108.593289 C323.02718,108.760641 326.007772,109.747547 328.569208,111.926798 C331.178827,114.147074 333.8466,116.29915 336.487186,118.483122 C337.238789,119.104686 337.98441,119.733595 338.78871,120.405837 C339.788364,119.953619 340.733747,119.524588 341.6806,119.098496 C341.998982,118.955171 342.311695,118.743017 342.644038,118.702831 C342.952028,118.665689 343.334443,118.736407 343.591416,118.902605 C343.980444,119.15421 344.043428,119.609576 343.863505,120.02696 C343.698803,120.40888 343.452222,120.75544 343.242487,121.118159 C342.858602,121.782112 342.475347,122.446275 342.12159,123.05871 C342.206932,124.009838 342.960426,124.386301 343.468808,124.935783 C343.888803,125.389575 344.063793,125.866975 343.763361,126.557893 C343.425244,126.626723 343.022045,126.693244 342.627348,126.793026 C342.093667,126.927957 341.504876,126.986189 341.049295,127.259723 C340.133514,127.80952 339.168396,128.19081 338.137565,128.407476 C337.139275,128.617322 336.346732,129.115287 335.64751,129.852266 C333.433953,132.185544 331.186175,134.486401 328.959601,136.807403 C327.749792,138.068368 326.555729,139.344442 325.355157,140.61422 C325.163267,140.817141 324.954477,141.007891 324.788095,141.230013 C324.352354,141.811811 324.59568,142.590235 325.293118,142.697362 C326.466187,142.877619 327.649753,142.997022 328.832269,143.105512 C330.912616,143.296472 332.995482,143.459837 335.136503,143.63978 C335.337631,144.142781 335.545057,144.575484 335.68572,145.028961 C336.244174,146.830069 336.710252,148.663704 337.353105,150.43365 C337.762603,151.561048 337.575961,152.532111 336.914949,153.389542 C335.726554,154.931176 334.438121,156.395901 333.146118,157.947188 C332.306127,157.726325 331.5667,157.557189 330.842809,157.336746 C328.837938,156.726304 326.856475,156.004328 324.699078,156.249219 C324.495956,156.272302 324.279818,156.229913 324.075856,156.187944 C323.369075,156.042835 322.971964,155.639406 322.91171,154.905889 C322.786058,153.374433 322.660301,151.841088 322.610858,150.306064 C322.584195,149.48011 322.359029,148.823607 321.70484,148.293746 C320.78654,147.550051 319.901516,146.765542 318.959072,145.961517 C317.348477,146.763129 316.251094,148.012342 315.128937,149.118965 C315.004124,149.981432 315.599004,150.336702 316.031071,150.760905 C318.015683,152.709431 317.986396,152.705654 318.176606,155.461457 C318.251976,156.552656 317.927716,157.29037 317.026421,157.945824 C314.821157,159.549257 312.682655,161.244708 310.525783,162.914034 C310.085738,163.254614 309.649892,163.612821 309.27409,164.020027 C309.022786,164.292302 309.012394,164.698984 309.288157,164.974722 C309.67897,165.365665 310.129722,165.696592 310.554336,166.052701 C309.725367,167.138025 308.955079,167.5936 307.833446,167.538306 C306.997655,167.497071 306.169106,167.323948 305.333419,167.25963 C304.421627,167.189332 303.902328,167.877522 304.177041,168.741143 C305.352419,170.972541 305.494657,172.964819 305.431568,175.020996 C305.365121,177.186607 305.403646,179.355995 305.422436,181.5236 C305.431673,182.582168 305.229391,183.585337 304.971893,184.614107 C304.168118,187.825171 302.785629,190.79869 301.419936,193.784799 C298.629239,199.886492 295.841482,205.989549 293.052465,212.091977 C292.878106,212.473477 292.72684,212.867883 292.524033,213.233539 C292.186546,213.841778 292.167441,214.448548 292.543348,215.020378 C293.138753,215.925864 293.170559,216.832084 292.692829,217.789192 C292.13322,218.910399 292.186546,220.081445 292.421895,221.272741 C292.540934,221.875944 292.776177,222.4867 292.458215,223.228401 C292.070342,223.101025 291.633026,223.061049 291.333224,222.837143 C290.720289,222.379364 290.168973,221.835653 289.614298,221.304428 C288.14993,219.902027 286.698684,218.486196 285.238935,217.078968 C285.038123,216.88549 284.831222,216.694215 284.606265,216.53064 C283.781706,215.931005 282.725051,216.335379 282.545863,217.370969 C282.415592,218.123687 282.428714,218.900851 282.374233,219.666894 C282.345366,220.072527 282.30873,220.477635 282.278078,220.85158 C281.680679,221.283338 281.116451,221.06258 280.585395,221.013476 C278.147721,220.788102 275.712567,220.535762 273.276468,220.294544 C272.928379,220.260129 272.579765,220.210291 272.231151,220.207248 C270.802054,220.194657 270.025782,221.051249 270.250843,222.494675 C270.498158,224.080376 270.83533,225.652123 271.098602,227.046025 C270.619402,228.308249 270.20434,229.401442 269.710969,230.700914 C269.102338,230.873932 268.249331,231.116514 267.343417,231.3741 C267.069229,231.139387 266.77793,230.946853 266.557802,230.692625 C265.057849,228.959926 265.062678,228.955729 262.761573,228.855842 C261.917279,227.392901 261.271067,225.779185 260.85758,224.094751 C260.699492,223.451153 260.890227,222.716797 260.949536,222.026193 C261.050625,220.848328 260.464143,220.056264 259.341566,220.06172 C257.595347,220.070114 255.848498,220.148911 254.104378,220.242502 C253.705063,220.263906 253.315509,220.466932 252.929735,220.583922 C252.265154,220.36117 252.186844,219.787451 252.095938,219.243425 C251.485627,215.592419 250.891167,211.938789 250.279177,208.288098 C250.03732,206.845511 249.763867,205.408171 249.522535,204.06652 C251.20619,202.262999 251.215218,202.092184 249.824961,200.599864 C248.212582,199.267761 247.544536,197.771559 247.743039,195.865527 C247.845702,194.880195 247.531834,193.945121 247.156872,193.021274 C246.500898,191.40546 245.734599,189.797934 245.371813,188.110247 C245.023724,186.490446 245.119354,184.7738 245.03779,183.098914 C244.932398,180.934772 244.86679,178.768531 244.738199,176.605858 C244.690016,175.795852 244.858602,175.108502 245.348929,174.453677 C246.018864,173.558999 246.615633,172.609865 247.263734,171.698294 C247.683205,171.108312 247.939968,170.499129 247.845702,169.747355 C247.776315,169.195355 247.782194,168.63003 247.799095,168.071944 C247.846857,166.493482 247.481238,165.052889 246.621407,163.701796 C246.218942,163.069425 245.921975,162.31293 245.790864,161.574796 C245.205012,158.274338 244.433358,154.995389 244.3878,151.62033 C244.374679,150.647798 244.401866,149.668447 244.50432,148.702106 C244.666607,147.173692 244.912453,145.654197 245.114735,144.129876 C245.459045,141.535549 245.359321,138.965984 244.623044,136.442796 C243.644699,133.090295 242.694802,129.728247 241.635944,126.401033 C241.227495,125.11751 240.985323,123.838393 240.943439,122.507235 C240.833743,119.015817 240.802461,115.519572 240.587057,112.034764 C240.484604,110.377505 240.062299,108.735984 239.728172,107.098975 C239.576591,106.355805 238.919148,106.002739 238.322484,105.624702 C236.137164,104.240242 233.959088,102.844137 231.778702,101.451703 C229.7162,100.1345 227.673749,98.7842454 225.584059,97.5116341 C224.486991,96.8436942 223.536149,96.0731396 222.851098,94.9733365 C222.482434,94.3814657 222.042179,93.8328233 221.617145,93.2775707 C221.178989,92.7050057 220.947315,92.0723199 220.882442,91.3505545 C220.776524,90.1708001 220.653286,89.0017478 219.798495,88.0389742 C219.543621,87.7520097 219.510135,87.2622291 219.392986,86.860269 C216.56009,77.1347446 213.728664,67.4088005 210.902907,57.6812825 C210.827432,57.4212833 210.81662,57.1426077 210.754371,56.7325686 C213.14974,55.8825872 215.653862,55.608843 218.070751,55.0034372 Z" id="SVAO"></path>
            </g>
        </g>
    </g>
</svg>