<?xml version="1.0" encoding="UTF-8" standalone="no"?>
<svg width="113px" height="189px" viewBox="0 0 113 189" version="1.1" xmlns="http://www.w3.org/2000/svg" xmlns:xlink="http://www.w3.org/1999/xlink">
    <defs></defs>
    <g id="slide" stroke="none" stroke-width="1" fill="none" fill-rule="evenodd">
        <g id="Карта-v2" transform="translate(-858.000000, -164.000000)" fill="#FFFFFF">
            <g id="карта" transform="translate(761.000000, 72.000000)">
                <path d="M123.92315,109.938633 C122.504971,109.77894 121.130669,109.670869 119.767495,110.10588 C119.636699,110.147639 119.488163,110.242175 119.375947,110.211118 C119.118975,110.13998 118.761018,110.069681 118.660979,109.883023 C118.517482,109.61505 118.416603,109.065358 118.558736,108.945536 C119.456881,108.188307 119.329865,107.226477 119.267196,106.250798 C118.4672,105.078808 117.054059,104.539084 116.196852,103.216739 C116.521113,103.0177 116.773257,102.806595 117.063611,102.694747 C118.040591,102.318388 119.035101,101.987881 120.014076,101.616768 C120.321961,101.500094 120.602237,101.310498 120.875796,101.164655 C120.198618,98.7867846 120.198618,98.7867846 118.900107,97.5819535 C118.94325,96.9471693 119.487743,96.8474924 119.924009,96.7065808 C121.852146,96.0838627 123.771675,95.4168671 125.733613,94.9214206 C127.920507,94.3691058 130.03476,93.7161699 131.837139,92.2981353 C132.440837,92.512493 132.331035,92.9001835 132.331665,93.2207234 C132.335234,95.1790066 132.299229,97.1376046 132.319698,99.095573 C132.326207,99.7086382 132.271831,100.458313 132.587483,100.902872 C133.180893,101.738584 133.877702,102.565272 134.896251,102.976151 C135.025892,103.028507 135.159522,103.119895 135.289058,103.116118 C136.94626,103.068378 137.513637,104.157794 138.006589,105.504481 C138.918486,107.995983 139.948897,110.444781 140.955269,112.900924 C141.307032,113.759299 141.46932,114.582735 141.292546,115.537535 C141.091838,116.62118 141.130888,117.749207 141.064335,118.881956 C142.189851,119.627329 143.229605,120.315939 144.336961,121.049246 L144.336961,125.339548 C145.100951,126.035922 145.993638,125.974017 146.785972,126.197818 C147.32721,126.350691 147.895112,126.425816 148.191974,126.991036 C148.512771,127.601898 149.074899,127.854972 149.694132,128.037538 C149.89442,128.096505 150.103945,128.162292 150.275156,128.276238 C151.686617,129.215824 153.282096,129.313717 154.895944,129.266397 C156.423191,129.221595 157.962614,129.48002 159.598821,129.063161 C160.686023,130.042093 161.838832,131.049354 162.95511,132.095751 C163.736211,132.828009 164.534318,133.416522 165.677994,133.50046 C166.4782,133.559217 166.746091,133.947327 166.787345,134.763314 C166.829754,135.60039 166.831958,136.442921 166.790074,137.279997 C166.740107,138.278655 166.937771,139.21184 167.273998,140.147963 C167.650954,141.197193 168.018988,142.263736 168.235232,143.353571 C168.768912,146.042014 169.730147,148.592692 170.633331,151.161942 C171.030547,152.292068 171.32489,153.408554 171.314393,154.62734 C171.308724,155.297273 171.501979,156.01673 171.783935,156.632209 C172.656677,158.537611 173.654757,160.385725 174.525295,162.292176 C175.055196,163.452415 175.857922,164.21468 177.048626,164.642242 C177.62713,164.849884 178.16165,165.179867 178.697116,165.445113 C178.909895,166.355215 178.50806,167.05736 178.294756,167.771466 C177.680351,169.829531 178.109689,171.628646 179.531753,173.205534 C180.515346,174.296209 181.525077,175.363276 182.51119,176.451852 C182.738665,176.703038 182.916909,176.998606 183.185219,177.365732 C182.905047,177.638426 182.697201,177.906505 182.429521,178.084979 C182.083741,178.315495 181.661332,178.433323 181.322375,178.671498 C180.143113,179.500076 179.873333,180.747925 180.628296,181.967445 C180.9577,182.4993 181.371712,182.982366 181.775647,183.463962 C182.557273,184.395889 183.536247,184.739931 184.764741,184.565759 C186.14723,184.369763 187.546305,184.286769 188.939502,184.171563 C189.283077,184.143234 189.637044,184.147326 189.97768,184.196325 C190.47756,184.268302 190.831528,184.791658 190.681627,185.288574 C190.542433,185.749815 190.339311,186.201928 190.099134,186.620676 C189.40348,187.833796 188.690192,189.037368 187.954229,190.226461 C187.457498,191.029017 187.347802,191.872283 187.308437,192.813338 C187.16431,196.254078 188.010914,199.390752 189.503414,202.493221 C192.229553,208.160008 194.714464,213.942525 197.312116,219.671217 C197.863642,220.88759 198.264322,222.129459 198.473742,223.460197 C199.300087,228.709601 200.204636,233.946833 201.032764,239.196027 C201.210483,240.3229 201.540727,241.354818 202.097606,242.346026 C204.528877,246.673576 206.935898,251.014556 209.350583,255.351444 C209.518329,255.652678 209.675893,255.959682 209.826634,256.242555 C208.989897,257.314763 206.990589,258.880005 205.259906,259.835854 C202.31406,257.65293 199.391203,255.70472 197.126839,253.001693 C196.290207,252.003035 195.32425,251.279172 194.052927,250.935129 C192.636531,250.55174 191.235567,250.1097 189.833553,249.675004 C189.005949,249.418467 188.189472,249.383213 187.359769,249.654544 C186.297341,250.002049 185.214444,250.293315 184.169547,250.686252 C182.782334,251.207929 181.838525,252.197878 181.390922,253.626299 C181.203126,254.22583 181.057844,254.839 180.860601,255.435277 C180.590191,256.252523 180.523114,257.05361 180.755103,257.904745 C180.974916,258.710974 181.127651,259.543328 181.220027,260.374214 C181.312298,261.202371 181.397745,262.05508 181.30264,262.875788 C181.029292,265.235402 180.643097,267.581795 180.342246,269.938576 C180.195704,271.086854 179.783897,272.06673 179.004265,272.940948 C177.70124,274.402316 176.441254,275.903555 175.207407,277.424099 C174.524665,278.265477 173.733591,278.870043 172.688169,279.204118 C171.358166,279.629161 170.052097,280.132687 168.748548,280.635478 C167.574324,281.088326 166.49804,280.955073 165.300198,280.534647 C162.171805,279.436628 160.057552,277.126642 158.004813,274.739749 C156.845495,273.391698 157.207021,271.5482 158.696162,270.563288 C159.102091,270.294685 159.552844,270.091659 159.990264,269.873104 C162.930337,268.403762 165.854663,266.90116 168.820874,265.486588 C170.424855,264.721699 171.545753,263.611613 172.167715,261.934209 C172.799125,260.231099 173.500342,258.551701 174.230637,256.888041 C174.903196,255.35606 174.711936,253.961633 174.004841,252.465431 C172.137378,248.513506 169.52461,245.050731 167.000334,241.531928 C165.592232,239.568923 164.000217,239.179974 161.648726,240.039188 C159.809921,240.71101 157.979619,241.410112 156.170522,242.157479 C155.098436,242.600254 154.043567,242.718398 152.896741,242.527857 C149.03249,241.885938 145.145355,241.372235 141.29538,240.656765 C139.143652,240.256799 137.450024,240.737346 136.043181,242.400796 C135.276146,243.30775 134.423769,244.141888 133.628287,245.02534 C133.030783,245.688873 132.289151,246.025361 131.413155,246.06072 C129.667461,246.131438 127.921032,246.222197 126.174917,246.220518 C125.569855,246.219993 124.846804,246.13658 124.380516,245.805443 C122.453639,244.437246 120.430922,244.677205 118.348476,245.218608 C117.750447,245.374104 117.143285,245.494766 116.508621,245.63851 C116.199582,245.225953 115.933476,244.912023 115.716078,244.567456 C115.53626,244.28238 115.414072,243.960896 115.215779,243.550962 C115.719752,243.424529 116.109305,243.279211 116.509776,243.235878 C117.439728,243.135467 117.844397,242.549157 117.973514,241.717642 C118.112602,240.822229 118.191227,239.917583 118.320028,239.020386 C118.915223,234.872044 119.72834,230.770918 121.029581,226.779017 C121.319095,225.890949 121.166255,225.13288 120.478055,224.48603 C120.130805,224.159614 119.800457,223.815257 119.327975,223.345307 C119.856617,223.144904 120.219927,222.889521 120.582502,222.89036 C122.060727,222.893823 123.065629,222.075738 123.993587,221.080228 C124.961539,220.041805 125.638088,218.815045 126.197382,217.530893 C127.704368,214.071581 129.167371,210.592963 130.66743,207.130608 C130.955789,206.464977 131.099497,205.849918 130.841684,205.11808 C130.638457,204.541213 130.636358,203.893523 130.548181,203.299344 C131.147994,202.841565 131.825697,202.530468 132.176726,202.002391 C132.586539,201.385758 132.775279,200.594639 132.948379,199.853253 C133.760552,196.375054 134.143702,192.829601 134.535985,189.286875 C134.728399,187.54935 134.902234,185.809831 135.087196,184.071467 C135.213478,182.883843 135.3955,181.716679 136.141855,180.718022 C136.249767,180.573543 136.232342,180.335682 136.268662,180.16193 C136.132408,180.042318 136.041082,179.893957 135.924352,179.870244 C134.761361,179.634167 133.602883,179.326428 132.42656,179.216049 C129.843185,178.973467 127.247422,178.955105 124.703517,179.549809 C123.623978,179.802149 122.576352,180.225618 121.548145,180.652865 C120.563712,181.06196 119.770644,181.759383 119.132516,182.616814 C117.836944,184.357592 116.573914,186.11757 115.792288,188.16955 C115.698233,188.416539 115.506553,188.62628 115.324425,188.908418 C113.726637,188.138598 113.682024,186.547335 113.222244,185.185959 C112.335331,184.928478 111.51266,185.06876 110.697128,185.229082 C110.240393,185.318791 109.988353,185.726207 110.109807,186.169192 C110.238713,186.639353 110.413912,187.096922 110.573471,187.558373 C110.664587,187.821625 110.795593,188.074909 110.854272,188.344561 C110.971317,188.881767 110.580399,189.46451 110.027613,189.628714 C109.5418,189.772983 108.876484,189.360006 108.811086,188.759427 C108.760489,188.294723 108.912069,187.810293 108.952064,187.332894 C108.991848,186.858117 109.116661,186.352703 109.00455,185.911397 C108.801008,185.109365 108.230902,184.599754 107.368447,184.497559 C106.964513,184.449714 106.558899,184.415404 106.220257,184.381619 C105.898726,183.870854 106.236528,183.650306 106.449517,183.404366 C106.902894,182.88059 107.370127,182.368776 107.87473,181.803975 C107.311657,180.249331 106.771153,178.756906 106.204196,177.191559 C105.53846,177.191559 104.990188,177.203416 104.442756,177.186628 C104.167833,177.178234 103.827512,177.205304 103.637091,177.059461 C103.389986,176.87018 103.174792,176.541981 103.114748,176.240012 C103.074753,176.039085 103.271367,175.673218 103.464412,175.566931 C103.949595,175.300007 104.501436,175.157417 105.010238,174.928685 C105.432858,174.738669 105.832278,174.497031 106.406583,174.190446 C106.050411,173.822062 105.842146,173.568358 105.595355,173.36019 C105.168117,172.999465 104.743293,172.62489 104.270916,172.330791 C103.008411,171.544917 102.465387,170.444799 102.691603,168.900962 C103.214787,168.303111 104.286872,168.580317 104.782133,167.737995 C104.918072,167.50685 105.55746,167.56183 105.968533,167.504542 C106.314417,167.456382 106.667965,167.457536 107.011121,167.397205 C107.451271,167.319877 107.790647,167.076561 107.900868,166.624972 C108.012874,166.166039 107.773537,165.814127 107.457674,165.516565 C106.821435,164.91693 106.01556,164.647908 105.188586,164.516964 C103.258665,164.211323 101.318877,163.967797 99.3823422,163.70444 C99.0372973,163.657434 98.6777662,163.67632 98.3464727,163.585772 C98.1873342,163.542334 97.9932399,163.327346 97.9700409,163.167444 C97.9450575,162.995055 98.0479306,162.710819 98.1875442,162.623943 C98.7793796,162.256082 99.3958837,161.924001 100.02152,161.615737 C100.765251,161.249136 101.220307,160.729348 101.327799,159.861634 C101.384694,159.402701 101.583303,158.892565 101.881635,158.546319 C102.531205,157.792447 102.671134,156.958309 102.615708,156.015891 C102.461818,153.401104 103.20282,150.915478 103.648114,148.374557 C104.65753,148.049401 105.571736,147.754882 106.579998,147.430145 C106.466838,146.752972 106.368793,146.166347 106.279147,145.630296 C106.470932,145.484767 106.57097,145.343646 106.676783,145.339239 C107.303994,145.313428 107.9332,145.336406 108.560306,145.310385 C109.607828,145.266842 110.665217,145.273872 111.698882,145.124147 C113.455493,144.869709 113.75414,144.546336 114.068743,142.761281 C114.206572,141.979184 114.436672,141.274941 115.180403,140.613297 C116.77966,140.39002 118.514857,140.668381 120.24722,140.701117 C120.734398,140.71035 121.220421,140.786944 121.706654,140.834789 C122.631777,140.925967 123.505569,140.870778 124.232924,140.164121 C124.411798,139.990264 124.726611,139.956374 125.085512,139.816721 C125.132435,140.173984 125.224181,140.441748 125.189435,140.692094 C125.094225,141.378395 124.812373,142.065956 124.855937,142.736729 C124.899395,143.407921 125.24717,144.059388 125.459214,144.712429 C124.673914,146.410398 124.673914,146.410398 125.708104,148.327552 C125.532275,149.304175 124.452422,149.080584 123.88452,149.709703 C123.530553,150.701435 123.508928,151.826839 123.557846,152.933987 C123.638255,154.757339 125.221766,155.798071 126.954654,155.222148 C127.414539,155.069275 127.846711,154.832989 128.323182,154.620939 C128.841851,154.816726 129.360416,155.012512 129.980699,155.2467 C130.335191,154.895943 130.716242,154.518954 131.133508,154.106187 C131.314691,154.159698 131.554658,154.160642 131.684404,154.280779 C132.304582,154.854813 132.888335,155.064029 133.755303,154.651367 C134.332128,154.376679 135.089715,154.481392 135.844258,154.408785 C136.070894,153.726471 136.286613,153.071226 136.506215,152.417346 C137.689781,148.893716 139.154149,145.496204 141.138971,142.343687 C142.562504,140.082701 144.133839,137.946468 146.520496,136.572082 C146.684673,136.477441 146.780303,136.263818 146.967259,136.031833 C146.442711,135.27282 145.614267,134.844839 144.997553,134.205228 C143.315578,132.460463 141.31606,131.240628 139.009392,130.508266 C138.677993,130.403028 138.360241,130.249316 138.045533,130.098646 C136.25974,129.243838 134.398995,128.762871 132.400737,128.702016 C130.938154,128.657424 129.482079,128.399838 128.046999,128.23983 C127.912949,128.145819 127.757694,128.092518 127.696075,127.985497 C126.561637,126.012209 124.907793,124.703819 122.727617,124.047841 C122.463611,123.968309 122.214301,123.824145 121.975174,123.681345 C121.487996,123.390603 121.309858,122.889281 121.624985,122.435803 C122.100931,121.750656 122.637446,121.103911 123.185298,120.473218 C123.894283,119.657127 124.158079,119.159372 123.154016,118.183483 C122.022517,117.08389 122.278545,115.293169 123.576321,114.436892 C124.03799,114.132301 124.527583,113.86013 124.946738,113.505071 C125.201612,113.289139 125.346159,112.943103 125.677662,112.452063 C125.055385,111.560637 124.501969,110.767839 123.92315,109.938633 Z" id="SZAO"></path>
            </g>
        </g>
    </g>
</svg>