<?xml version="1.0" encoding="UTF-8" standalone="no"?>
<svg width="140px" height="181px" viewBox="0 0 140 181" version="1.1" xmlns="http://www.w3.org/2000/svg" xmlns:xlink="http://www.w3.org/1999/xlink">
    <defs></defs>
    <g id="slide" stroke="none" stroke-width="1" fill="none" fill-rule="evenodd">
        <g id="Карта-v2" transform="translate(-1003.000000, -366.000000)" fill="#FFFFFF">
            <g id="карта" transform="translate(761.000000, 72.000000)">
                <path d="M344.028837,445.308578 C343.586587,445.600893 343.282797,445.345615 342.994227,445.197569 C341.662125,444.513996 340.469531,444.715972 339.273998,445.585679 C337.182209,447.107378 335.043288,448.564444 332.920637,450.043544 C329.420851,452.482374 325.920434,454.92026 322.41477,457.350592 C321.832277,457.754441 321.231309,458.120832 321.235717,458.952977 C320.045853,460.738452 319.44562,462.364968 318.905431,464.138902 C318.051059,463.810912 317.959733,462.940576 317.219571,462.552256 C316.672979,462.474403 315.981419,462.392353 315.296368,462.273475 C314.635146,462.158795 314.065669,462.267495 313.552983,462.739544 C312.534329,463.67766 311.251774,464.023591 309.934053,464.275931 C306.820356,464.872209 303.674852,464.870845 300.524939,464.776099 C296.532412,464.656172 292.588066,464.054544 288.631439,463.575675 C285.647383,463.214425 282.662173,462.861674 279.679586,462.488043 C276.769221,462.123645 273.86148,461.738788 270.952795,461.360435 C269.637698,461.189411 268.323336,461.012406 267.008659,460.838338 C266.499857,460.770873 266.054354,460.881672 265.642651,461.216481 C264.557759,462.098674 263.463525,462.970164 262.352495,463.819201 C261.783544,464.253897 261.58483,464.816495 261.714472,465.476565 C261.820494,466.016394 261.996533,466.548564 262.196926,467.062582 C262.67875,468.298575 263.205712,469.517046 263.685752,470.753669 C263.805631,471.062352 263.816653,471.413425 263.881526,471.766071 C262.473214,472.788755 261.126415,473.766638 259.674119,474.821219 C259.465329,474.529533 259.224627,474.293037 259.102019,474.006072 C258.277984,472.078322 257.424662,470.160014 256.690693,468.197744 C256.192073,466.864802 255.380845,466.016709 254.047693,465.458624 C251.084002,464.217804 248.177416,462.84006 245.253089,461.505964 C244.824066,461.310282 244.425275,461.048289 243.967595,460.791753 C244.188352,459.848495 244.762867,459.219691 245.199028,458.528668 C247.017888,455.646643 247.025656,455.651469 247.024922,452.306733 C247.024817,451.887146 247.054419,451.465145 247.019883,451.048391 C246.830617,448.769358 247.123701,446.59357 248.333405,444.600137 C248.441422,444.422188 248.52561,444.225562 248.593632,444.028412 C249.000086,442.849602 248.632472,442.195931 247.37658,441.876336 C247.040143,441.790719 246.636313,441.832793 246.368003,441.656837 C246.120373,441.494416 245.824245,441.077347 245.875262,440.843054 C246.168975,439.49154 246.356666,438.064273 248.014078,437.533782 C248.759384,437.295187 249.315109,436.727763 249.4817,435.886176 C249.637899,435.097469 249.304926,434.391023 248.521936,434.310127 C247.553039,434.210135 246.809623,433.785932 246.094655,433.197838 C245.372338,432.603764 244.54127,432.276299 243.588959,432.268325 C243.018118,432.263604 242.467117,432.167389 242.041453,431.539005 C242.24489,431.402291 242.433525,431.210701 242.660161,431.138514 C242.989355,431.033696 243.359699,431.057618 243.688368,430.951961 C244.951398,430.545699 245.626897,429.549875 245.468283,428.222703 C245.386089,427.534723 245.127332,426.869616 244.979951,426.187407 C244.819028,425.442243 244.959691,424.796547 245.694079,424.396371 C245.878096,424.296064 246.059384,424.189987 246.237102,424.078664 C247.219751,423.462766 247.658116,422.5577 247.585475,421.418655 C247.517558,420.354946 247.562381,419.364263 248.253731,418.438842 C248.682439,417.865018 248.291941,417.231912 247.607834,416.978103 C247.192983,416.824076 246.606291,417.290564 246.339241,416.631543 C246.524412,416.167573 246.981148,416.104095 247.349392,415.98102 C248.611267,415.55902 249.264407,414.64577 249.571137,413.414498 C249.638739,413.143167 249.743397,412.879181 249.78948,412.604807 C250.025038,411.203245 250.522084,409.903564 251.352627,408.751824 C252.193772,407.585395 252.263894,406.295996 252.081452,404.944482 C251.939214,403.890846 251.234848,402.852737 249.830209,402.942446 C249.204573,402.982317 248.566759,402.977176 247.945216,402.902576 C246.810253,402.766281 246.354672,401.636784 247.058618,400.720701 C247.309817,400.393866 247.662945,400.145828 247.965161,399.857395 C250.027243,397.889983 250.34594,395.70643 248.948649,393.227204 C248.606754,392.620435 248.246803,392.014609 247.992244,391.370067 C247.693807,390.614202 248.300234,389.923598 249.092147,390.100498 C249.632966,390.221265 250.178088,390.399214 250.669045,390.652603 C252.555403,391.626079 254.570562,392.158563 256.643036,392.540693 C258.566868,392.895438 260.477685,393.320166 262.400363,393.681101 C264.193819,394.017799 265.089236,393.330239 265.070131,391.500172 C265.039479,388.566104 264.903224,385.633086 264.812948,382.699648 C264.754898,380.813762 264.728865,378.926302 264.629771,377.042724 C264.582428,376.145107 264.888423,375.422503 265.380744,374.711964 C266.256741,373.447851 267.096417,372.158557 267.94365,370.874719 C268.212905,370.466779 268.496856,370.061251 268.705437,369.622043 C269.089636,368.813192 268.928188,368.130248 268.247546,367.562195 C267.981231,367.339863 267.666523,367.176183 267.380577,366.9762 C267.162234,366.823432 266.954599,366.655345 266.607874,366.392093 C266.917228,366.099988 267.169373,365.894129 267.383202,365.654065 C268.127877,364.818038 268.147717,364.306119 267.421832,363.456662 C267.014013,362.979367 266.558957,362.539425 266.099702,362.109765 C265.448662,361.500687 265.096479,360.79445 265.164186,359.877528 C265.210269,359.251557 265.11149,358.611317 265.192949,357.992586 C265.263175,357.457898 265.416225,356.900862 265.673513,356.430702 C266.238056,355.399309 267.131582,354.548698 267.359058,353.331696 C268.747845,352.516444 268.82605,350.905141 269.576499,349.703143 C270.279396,348.577214 271.060497,347.499864 271.808951,346.402475 C272.005985,346.113621 272.21656,345.833792 272.40929,345.542211 C272.723997,345.065965 273.002595,344.588251 272.655975,343.994491 C272.268311,343.330433 271.705763,342.944212 270.939883,343.018078 C270.389722,343.071064 269.847958,343.245656 269.311758,343.398528 C268.640039,343.590013 267.989208,343.868479 267.308776,344.013482 C266.166884,344.257009 265.43554,343.86722 264.935031,342.792913 C264.760461,342.418233 264.654964,342.003682 264.570671,341.596476 C264.471787,341.118341 264.389698,340.62982 264.371223,340.143082 C264.295013,338.137793 263.514332,336.510227 261.933759,335.241498 C260.99394,334.487207 260.354972,333.468719 259.808694,332.405324 C257.636916,328.178291 255.474691,323.946221 253.31425,319.713416 C253.366946,318.777083 253.569753,318.269151 253.801428,317.688717 C253.337869,317.077435 252.883442,316.478325 252.370441,315.801781 C252.506381,315.444938 252.641585,315.062179 252.796945,314.687813 C253.251896,313.591053 253.708842,312.495132 254.17639,311.403723 C254.698943,310.183993 255.206276,308.956498 255.771343,307.756389 C256.312582,306.606852 257.055473,305.576718 258.042005,304.772903 C259.336632,303.718217 260.715342,303.032125 262.466705,303.820097 C263.414398,304.246504 264.452892,304.479014 265.461153,304.760627 C266.536598,305.061022 266.945361,304.901643 267.58307,303.986505 C267.813379,303.655892 268.000126,303.294852 268.198734,302.961092 C269.525168,302.982497 270.238876,304.018716 271.341613,304.484574 C273.058965,303.88368 274.910577,303.612454 276.777829,303.362947 C277.865135,303.217734 278.95811,302.83487 279.954615,302.361352 C281.23843,301.75133 282.345995,301.718384 283.406114,302.734354 C284.844343,302.584943 284.559762,301.495108 285.014294,300.718573 C285.551753,301.027046 286.010484,301.325342 286.498606,301.563308 C287.712299,302.154969 288.674058,301.864857 289.313971,300.659081 C289.879354,299.593798 290.08447,298.424116 290.088144,297.2196 C290.090978,296.320514 289.984851,295.40632 290.448935,294.429067 C290.77372,294.495274 291.103124,294.519826 291.396523,294.635346 C291.650136,294.735233 291.873413,294.925563 292.092071,295.098581 C293.023913,295.8364 293.95292,296.023372 294.911635,295.140235 C294.998972,295.059759 295.167663,295.067629 295.427155,295.002052 C296.440876,296.361329 297.786519,297.248768 299.721899,296.921409 C299.817319,297.422626 299.925126,297.817451 299.963546,298.218887 C300.224193,300.932825 300.392884,303.658201 300.743072,306.360283 C301.074996,308.922398 301.584008,311.46185 302.031191,314.008437 C302.260976,315.316827 302.502728,316.623853 302.78122,317.922485 C303.091309,319.368115 303.228823,320.773244 302.905823,322.27102 C302.504618,324.131829 303.70183,326.145197 305.608657,327.023403 C307.001853,327.665007 308.450265,328.211236 309.915158,328.667966 C315.316943,330.3524 320.735733,331.98217 326.148435,333.63135 C326.682325,333.79398 327.220625,333.941817 327.753676,334.107071 C328.819253,334.437263 329.549967,335.120522 330.002714,336.147823 C330.827273,338.018496 331.501197,339.9005 331.293982,342.010397 C331.191948,343.04924 331.25997,344.106864 331.282539,345.15536 C331.307943,346.339206 330.941379,347.3493 330.070526,348.167594 C328.490898,349.65194 326.93153,351.15832 325.326289,352.614337 C324.867139,353.030776 324.292519,353.328548 323.748551,353.641953 C319.810714,355.910494 315.866894,358.168857 311.925593,360.431312 C311.440515,360.709882 310.956801,360.991076 310.475292,361.275732 C309.203444,362.02761 308.404602,363.110101 308.103751,364.571574 C307.469821,367.65054 306.812168,370.724679 306.166901,373.801337 C306.123968,374.006252 306.13352,374.22617 306.067492,374.421852 C305.320507,376.635098 306.126802,378.358668 307.717032,379.877744 C310.548563,382.582554 313.364032,385.304362 316.165856,388.039915 C316.881454,388.738598 317.690793,389.232575 318.610038,389.616174 C322.802433,391.36608 326.984542,393.140958 331.162241,394.925803 C332.473873,395.486197 333.748241,395.74137 335.210509,395.38694 C337.713895,394.780275 340.26242,394.354287 342.800867,393.901859 C343.548167,393.768712 344.334727,393.704919 345.086856,393.77805 C347.380297,394.001431 349.68455,394.204248 351.947444,394.618064 C353.357121,394.87586 354.565146,394.604214 355.781359,394.01035 C359.864478,392.016078 363.948436,390.023695 368.031975,388.030577 C369.601421,387.264534 371.167927,386.492511 372.741781,385.735701 C373.181196,385.524491 373.634153,385.33521 374.094563,385.174887 C376.484579,384.342848 378.705064,386.15896 378.343328,388.6534 C378.293886,388.9944 378.179256,389.333721 378.046571,389.653946 C377.465338,391.055718 377.469431,392.511525 377.601907,393.985063 C377.839565,396.629123 378.101157,399.271715 378.287273,401.919447 C378.362538,402.991445 378.643865,403.967964 379.110258,404.921819 C379.815674,406.364301 380.483405,407.825354 381.231859,409.416197 C380.916731,409.782903 380.59646,410.224524 380.208901,410.596161 C374.455563,416.112698 368.652678,421.578348 362.946263,427.142836 C358.373762,431.601749 353.171215,435.281609 348.25073,439.309919 C346.958202,440.368067 345.640796,441.395683 344.488302,442.314914 C344.087412,443.443676 344.601567,444.492067 344.028837,445.308578 Z" id="UAO"></path>
            </g>
        </g>
    </g>
</svg>