<?xml version="1.0" encoding="UTF-8" standalone="no"?>
<svg width="127px" height="166px" viewBox="0 0 127 166" version="1.1" xmlns="http://www.w3.org/2000/svg" xmlns:xlink="http://www.w3.org/1999/xlink">
    <defs></defs>
    <g id="slide" stroke="none" stroke-width="1" fill="none" fill-rule="evenodd">
        <g id="Карта-v2" transform="translate(-1062.000000, -315.000000)" fill="#FFFFFF">
            <g id="карта" transform="translate(761.000000, 72.000000)">
                <path d="M303.624581,293.193798 C304.168864,294.171156 304.690892,295.161 305.235385,296.138253 C305.438927,296.50349 305.641419,296.880478 305.910674,297.195457 C306.352084,297.711573 306.951267,297.981016 307.601572,297.697933 C309.960831,296.670632 312.488152,295.952749 314.3342,293.973166 C315.039301,293.217091 315.863126,292.571604 316.738807,291.779855 C317.026642,292.118442 317.267764,292.435519 317.543737,292.718497 C317.932135,293.116784 318.31497,293.53165 318.75722,293.863522 C319.374039,294.326442 319.921996,294.296329 320.46145,293.781682 C320.810694,293.448551 321.120468,293.057398 321.378806,292.648618 C322.499283,290.875104 323.576932,289.07452 324.704652,287.305728 C325.463604,286.115376 325.6345,284.95881 325.203692,283.542559 C323.50618,277.961809 323.631727,278.264826 319.454658,274.922084 C318.799524,274.397888 318.080882,273.949238 317.450731,273.398287 C315.191091,271.422377 312.548616,270.21786 309.6984,269.37365 C308.852846,269.123198 307.895706,269.041044 307.263141,268.34467 C307.142107,267.585657 307.583412,267.077829 307.924573,266.579969 C308.686884,265.467471 308.651508,264.373333 308.069225,263.21981 C307.754412,262.596042 307.449362,261.962832 307.204356,261.309791 C307.064218,260.936265 307.053405,260.514265 306.998295,260.194355 C307.452406,259.57321 308.036054,259.549603 308.584746,259.553695 C309.772826,259.562613 310.960695,259.629134 312.14846,259.679183 C314.355404,259.772354 315.766551,258.815666 316.36206,256.700418 C316.586807,255.901639 316.680442,255.051238 316.720542,254.218884 C316.780796,252.965263 317.218427,251.92023 318.101771,251.031952 C318.785353,250.344706 319.42726,249.616016 320.188206,248.797616 C320.810484,249.413095 321.371038,249.921761 321.876481,250.480162 C322.374366,251.030063 322.921798,251.088296 323.578821,250.841517 C324.564829,250.471138 325.48082,250.043052 326.262865,249.273862 C328.207063,247.36185 330.224846,245.524333 332.215546,243.659536 C332.463597,243.427236 332.726763,243.2112 332.912774,243.048779 C333.484665,243.039546 333.615881,243.397753 333.757699,243.697623 C334.534601,245.340298 335.273608,247.001229 336.066991,248.635825 C336.56729,249.666694 336.756241,250.725996 336.7786,251.872595 C336.81702,253.851024 336.627859,255.747297 335.864814,257.61115 C334.761027,260.307147 334.889093,263.080472 335.713758,265.836695 C336.295726,267.781233 337.380828,269.390018 339.108257,270.47702 C340.228315,271.181788 341.402118,271.822238 342.609513,272.362592 C344.585622,273.247198 346.593958,274.066122 348.618774,274.833424 C349.568461,275.19331 350.345153,275.688337 350.971,276.494041 C351.785692,277.542746 352.703678,278.511186 353.520049,279.558632 C355.641651,282.280965 358.339866,283.975262 361.813514,284.347109 C362.229731,284.391701 362.641853,284.531773 363.05576,284.531144 C364.276171,284.529255 365.146709,285.127631 365.960562,285.97436 C367.657129,287.739375 369.430746,289.429999 371.13718,291.185781 C372.316652,292.399426 373.624611,293.409834 375.093912,294.261809 C387.072545,301.207608 399.053172,308.150364 410.988451,315.170134 C414.663437,317.331653 418.201643,319.725682 421.796744,322.022342 C422.148298,322.246877 422.500376,322.497013 422.782227,322.800136 C424.39807,324.538186 425.992814,326.295856 427.585773,328.037159 C427.556486,329.301481 426.704003,330.128274 426.211367,331.104268 C425.710123,332.09705 425.104851,333.037475 424.522463,334.039909 C424.818066,334.81571 425.461128,335.278945 426.00877,335.778484 C426.678705,336.389451 426.769086,337.096632 426.571843,337.876629 C426.366726,338.68737 426.063461,339.472823 425.829792,340.277058 C425.206359,342.422314 424.594159,344.570928 423.983534,346.719961 C423.655179,347.875793 423.165272,348.920826 422.066209,349.707119 C421.64002,349.405571 421.23787,349.147565 420.864588,348.852836 C417.516172,346.208776 414.168281,343.563772 410.831622,340.904918 C410.160742,340.37044 409.491437,339.9135 408.574816,339.952741 C408.030218,339.976139 407.659455,340.191546 407.373195,340.645443 C406.85484,341.467725 406.795321,342.31907 407.00936,343.258236 C408.204263,348.501239 409.369984,353.750957 410.544312,358.998682 C410.712268,359.749197 410.839285,360.510413 411.041882,361.25117 C411.562651,363.155417 411.809862,365.083588 411.695756,367.059183 C411.651563,367.825751 411.629204,368.590745 412.122785,369.276207 C412.591698,369.927884 412.421117,370.603798 412.058647,371.249704 C411.956298,371.43227 411.860878,371.628161 411.720005,371.778306 C410.637738,372.93162 410.049051,374.36256 409.540564,375.811127 C409.067978,377.157919 408.344087,378.310708 407.432295,379.394248 C405.631385,381.534783 403.883276,383.7197 402.117322,385.889612 C401.722625,386.374672 401.344514,386.873266 400.894811,387.447195 C401.040513,387.819566 401.208574,388.188476 401.330238,388.572074 C401.593299,389.401281 401.227679,389.922643 400.346644,389.991473 C400.138694,390.007631 399.92182,390.010674 399.718488,389.971433 C398.765547,389.787503 398.153137,390.253361 397.562771,390.941131 C394.920506,394.019677 392.238246,397.064019 389.58034,400.12924 C387.380744,402.665649 385.197209,405.216013 382.998663,407.753261 C382.826823,407.951566 382.59221,408.095625 382.302485,408.33443 C381.011427,405.589014 379.637336,403.019554 379.638281,399.949612 C379.638806,398.067712 379.407236,396.181826 379.212617,394.304648 C379.044241,392.681594 379.083501,391.10649 379.68132,389.558456 C380.591012,387.203249 379.100296,384.540093 376.651076,383.699449 C375.383741,383.264439 374.173093,383.462743 372.992886,384.039085 C370.543245,385.235732 368.088671,386.422202 365.635671,387.612239 C362.302896,389.228997 358.949127,390.804626 355.646794,392.481506 C354.326554,393.151964 353.019855,393.295394 351.591598,393.087122 C349.653909,392.804564 347.699004,392.639415 345.76142,392.356333 C344.420185,392.160232 343.113066,392.26547 341.802903,392.532394 C339.609291,392.979261 337.40938,393.397589 335.224376,393.882753 C333.941401,394.167724 332.756785,394.037724 331.548026,393.514473 C327.507526,391.765197 323.44876,390.057784 319.386846,388.358556 C318.401678,387.946418 317.556438,387.382457 316.793813,386.630159 C314.204559,384.076123 311.613205,381.522402 308.954564,379.041602 C307.581943,377.760807 307.137069,376.381908 307.592965,374.529282 C308.310767,371.612423 308.91415,368.661673 309.419173,365.70022 C309.71803,363.947796 310.589092,362.849042 312.13156,362.006196 C315.75175,360.028187 319.286177,357.893843 322.882118,355.870507 C324.902841,354.733457 326.846408,353.527681 328.430445,351.791415 C329.276419,350.86421 330.242167,350.044762 331.16645,349.190478 C332.256906,348.182693 332.790481,346.928653 332.808537,345.462773 C332.830056,343.714546 332.844542,341.964955 332.802343,340.217357 C332.751641,338.120366 331.811402,336.30121 330.788549,334.554662 C330.16984,333.498297 329.090722,332.943674 327.905687,332.591447 C324.956901,331.714815 322.022602,330.789499 319.078436,329.896919 C316.136999,329.005178 313.183595,328.151944 310.249926,327.235547 C309.051244,326.861076 307.873766,326.404242 306.716443,325.914671 C304.860633,325.129742 304.176002,324.068445 304.54708,322.12737 C304.83397,320.626236 304.62245,319.222261 304.33619,317.780724 C303.710658,314.629256 303.082187,311.477893 302.517435,308.315303 C302.284501,307.011005 302.200942,305.679113 302.069412,304.357817 C301.771709,301.367511 301.473692,298.377205 301.204962,295.384276 C301.136415,294.620961 301.149327,293.846839 301.17599,293.079432 C301.197299,292.467731 301.528488,292.03975 302.13166,291.84197 C302.915176,291.976586 303.28195,292.578424 303.624581,293.193798 Z" id="UVAO"></path>
            </g>
        </g>
    </g>
</svg>