<?xml version="1.0" encoding="UTF-8" standalone="no"?>
<svg width="97px" height="241px" viewBox="0 0 97 241" version="1.1" xmlns="http://www.w3.org/2000/svg" xmlns:xlink="http://www.w3.org/1999/xlink">
    <defs></defs>
    <g id="slide" stroke="none" stroke-width="1" fill="none" fill-rule="evenodd">
        <g id="Карта-v2" transform="translate(-936.000000, -383.000000)" fill="#FFFFFF">
            <g id="карта" transform="translate(761.000000, 72.000000)">
                <path d="M209.353889,345.466047 C212.692438,342.279325 216.057124,339.119359 219.363236,335.899376 C220.259177,335.026731 221.03377,334.015169 221.779495,333.005075 C225.683846,327.716115 229.559854,322.406381 233.450139,317.107034 C233.735559,316.718399 234.056355,316.35568 234.397726,315.935464 C239.013581,316.301015 242.931788,314.821496 245.961822,311.374565 C247.362472,312.420333 250.407936,315.654585 252.052437,317.801729 C251.999111,317.997725 251.982735,318.290566 251.847426,318.510274 C251.509414,319.059127 251.60095,319.541878 251.885636,320.081916 C252.765831,321.751661 253.607396,323.441866 254.468696,325.121684 C255.808566,327.734372 257.160718,330.340869 258.490931,332.958489 C259.163701,334.282512 259.985531,335.488393 261.136975,336.440464 C262.226276,337.341123 262.78515,338.4766 262.862515,339.892117 C262.904294,340.655537 263.015565,341.429134 263.215328,342.165589 C263.395461,342.829751 263.657052,343.502203 264.027501,344.07802 C264.773961,345.238469 265.881422,345.767806 267.26727,345.476015 C268.082697,345.304361 268.870201,345.004491 269.67891,344.795904 C270.123784,344.681118 270.586713,344.635791 271.312179,344.513556 C270.876963,345.22315 270.609282,345.699291 270.303707,346.14983 C269.518617,347.307026 268.634013,348.405885 267.948017,349.617956 C267.409403,350.569608 267.113275,351.654407 266.2145,352.384881 C266.06187,352.5089 265.947869,352.724307 265.894228,352.918939 C265.570913,354.093447 264.878933,355.056536 264.174462,356.017421 C264.01102,356.240382 263.784909,356.49524 263.776826,356.741599 C263.726124,358.27379 263.699881,359.808499 263.740506,361.340375 C263.748274,361.633005 264.057943,361.945676 264.284159,362.19917 C264.931945,362.925342 265.608493,363.625913 266.360832,364.429519 C266.013897,364.767476 265.719554,365.026636 265.457542,365.315069 C264.767348,366.075026 264.801044,366.832361 265.601145,367.475119 C266.186577,367.945384 266.829954,368.343462 267.509442,368.81698 C267.057955,369.811965 266.413318,370.550937 265.894018,371.363356 C265.329161,372.247123 264.794955,373.156491 264.159556,373.987586 C263.354626,375.040488 263.068366,376.123819 263.168195,377.485195 C263.367538,380.200498 263.310223,382.933847 263.390107,385.658803 C263.441334,387.403987 263.557748,389.147073 263.623671,390.891943 C263.638997,391.295372 263.567196,391.701949 263.527936,392.203166 C263.112035,392.203166 262.773183,392.256992 262.457216,392.194667 C259.921288,391.694919 257.38305,391.203355 254.860454,390.641807 C253.981099,390.44602 253.137224,390.07837 252.289465,389.756886 C251.440762,389.435087 250.621031,389.033337 249.76393,388.738503 C248.755143,388.391523 247.814693,388.575558 247.073482,389.378534 C246.319989,390.194835 246.320723,391.161281 246.713111,392.123215 C246.948984,392.701236 247.332554,393.217247 247.606218,393.782153 C247.84713,394.279488 248.124258,394.789414 248.215584,395.322842 C248.440855,396.637947 248.110926,397.809938 247.102349,398.757812 C246.596801,399.233008 246.049999,399.702644 245.680916,400.276993 C244.727344,401.760919 245.383003,403.610082 247.050598,404.214439 C247.564544,404.400677 248.13612,404.445374 248.686596,404.508643 C249.233188,404.571597 249.786499,404.576423 250.371721,404.608634 C250.928705,405.761319 250.902882,406.839613 250.229903,407.832394 C249.189729,409.366788 248.531866,411.036428 248.208656,412.850757 C248.035346,413.823813 247.533577,414.513157 246.547779,414.813762 C246.21806,414.914278 245.89191,415.066836 245.603341,415.255488 C244.457145,416.004638 244.43993,417.318065 245.551589,418.199838 C245.659711,418.28556 245.7988,418.331201 245.91448,418.408844 C246.025436,418.48313 246.124635,418.575042 246.188248,418.626245 C246.160325,419.623118 246.116972,420.585577 246.112353,421.548246 C246.109309,422.162255 245.906502,422.679106 245.356655,422.939525 C243.363121,423.883518 243.106988,425.4198 243.769889,427.317753 C243.88284,427.64123 243.925774,427.998179 243.946348,428.342851 C244.000094,429.241936 243.72916,429.571919 242.760788,429.684501 C242.200969,429.749554 241.655531,429.764977 241.176437,430.126437 C240.419584,430.697638 240.246694,431.5536 240.770822,432.334017 C241.176541,432.938164 241.718935,433.433611 242.440831,433.505693 C244.106537,433.671576 245.492175,434.409814 246.796984,435.384339 C247.054272,435.576453 247.383151,435.672668 247.648417,435.798575 C247.534102,436.434304 247.044615,436.49453 246.688547,436.629461 C245.820109,436.958604 245.337445,437.578909 245.079737,438.429625 C244.857615,439.162932 244.538919,439.879556 244.41862,440.628707 C244.199857,441.990083 244.687035,442.684253 246.034253,443.14518 C246.355574,443.255035 246.694216,443.314211 247.095106,443.414203 C247.109068,444.291674 246.620105,444.925934 246.295635,445.575827 C245.779905,446.608689 245.560197,447.651099 245.598512,448.800426 C245.654252,450.477201 245.5856,452.157858 245.629374,453.835367 C245.652258,454.712628 245.43255,455.466605 244.95566,456.198653 C244.039774,457.604517 243.172595,459.042067 242.2924,460.471013 C242.150057,460.702159 242.04477,460.956073 241.860543,461.322464 C242.29387,461.59946 242.658755,461.897547 243.073186,462.087667 C246.50516,463.662247 249.937659,465.236302 253.390208,466.765135 C254.345353,467.18808 254.95283,467.795479 255.348052,468.785218 C256.279579,471.117657 257.32836,473.403195 258.391627,475.850105 C258.046477,476.279345 257.683797,476.776785 257.274194,477.232046 C255.740229,478.93694 254.813951,480.874553 254.406238,483.173417 C253.418236,488.744409 252.267946,494.286758 251.155656,499.835297 C250.954949,500.836787 250.888606,501.764412 251.605254,502.601068 C252.006669,503.069654 251.988509,503.622703 251.868315,504.192016 C251.391845,506.447546 250.928391,508.705804 250.447931,510.960495 C250.3185,511.567789 250.247433,512.210233 249.460874,512.416511 C249.253763,512.470756 248.997945,512.77241 248.964983,512.99065 C248.642612,515.128142 248.362755,517.272034 248.057495,519.511825 C248.943884,520.250064 249.7823,520.980118 250.655147,521.666315 C251.541955,522.363318 252.30815,523.155592 252.978925,524.067583 C255.050664,526.884556 257.162608,529.671941 259.253767,532.47454 C259.58674,532.920777 259.893365,533.38674 260.227178,533.865085 C260.121995,534.846639 260.041271,535.820745 259.906277,536.787295 C259.806658,537.500038 260.056178,538.000311 260.651372,538.373627 C261.59938,538.968016 262.542873,539.570169 263.478389,540.184073 C263.7045,540.332434 263.891876,540.539657 264.071379,540.697252 C263.928722,541.921913 263.794042,543.07764 263.64813,544.330316 C262.609741,545.285745 261.450738,546.295 261.276799,547.970725 C261.249926,548.2302 261.117346,548.525768 260.938157,548.71379 C260.368471,549.311327 259.812746,549.939396 259.002253,550.385214 C258.415456,549.826184 257.873587,549.310068 257.317233,548.780101 C256.321882,549.018696 255.690262,549.654635 254.987996,550.327086 C255.29735,550.855164 255.594212,551.362047 255.901782,551.887187 C255.712202,551.956646 255.626544,552.013724 255.601036,551.993893 C251.914398,549.117849 248.232064,546.236138 244.465228,543.288745 C244.633289,542.412114 244.78382,541.530236 244.97298,540.656647 C246.096607,535.46558 247.229156,530.276507 248.359081,525.086805 C248.509927,524.243539 248.185982,523.892991 247.708356,523.879771 C246.734001,523.852805 245.75954,523.817446 244.784974,523.8122 C242.829545,523.801708 240.87401,523.809053 238.770045,523.809053 C238.571437,524.155194 238.341127,524.569744 238.09885,524.977161 C236.428211,527.785215 233.968598,529.091927 230.715498,528.679474 C229.549567,528.531743 228.419432,528.101663 227.272816,527.801269 C226.676782,527.645038 226.586086,527.71775 226.139007,528.798142 C228.858322,530.686337 231.912185,532.09241 234.730804,533.974624 C234.841445,534.874234 234.896871,535.752755 234.28656,536.686674 C232.730656,536.444512 231.163626,536.200671 229.590821,535.955885 C229.26845,536.432341 229.003185,536.824228 228.758493,537.185688 C227.070639,537.599295 225.374177,536.429193 223.795494,537.464783 C222.861973,537.109619 221.959523,536.766311 220.91998,536.370856 C220.72704,536.79506 220.603592,537.171104 220.393332,537.490175 C220.261382,537.690368 220.015011,537.849851 219.785751,537.931061 C219.715104,537.956033 219.431364,537.672216 219.416562,537.513887 C219.340142,536.694019 219.095976,535.863448 219.473877,534.926381 C219.906994,534.856397 220.372233,534.782112 220.836947,534.705728 C221.242771,534.639102 221.64828,534.569957 221.960678,534.517601 C222.782719,533.623657 222.453525,532.550294 222.799829,531.470007 C223.135217,531.232566 223.585339,530.92 224.028953,530.598516 C225.165911,529.774766 225.509277,528.771492 224.913242,527.510527 C224.594021,526.835137 224.083434,526.223016 223.558151,525.68004 C223.077482,525.183334 222.460033,524.849154 222.362513,524.04471 C222.325563,523.739803 222.040037,523.429861 221.79944,523.190951 C220.857206,522.254933 219.884425,521.349762 218.929699,520.42623 C218.50645,520.01682 218.019797,519.827539 217.423238,519.807813 C216.869087,519.789347 216.313258,519.689775 215.76719,519.581075 C214.095187,519.248049 213.004626,518.304581 212.688764,516.57545 C212.626935,516.236968 212.559018,515.899746 212.504747,515.618552 C210.582489,514.487797 208.454379,513.84273 206.560359,513.614312 C204.12342,513.320633 201.687636,513.127575 199.237051,513.303321 C198.481983,513.357461 197.894136,513.133345 197.330328,512.648916 C196.262337,511.731469 195.060296,511.031947 193.725989,510.552869 C192.695054,510.182595 191.693615,510.166542 190.662889,510.547832 C189.31798,511.045482 188.751758,512.100063 188.542443,513.483054 C187.693739,513.909041 186.882616,514.504479 185.825962,513.584409 C186.030868,513.051086 186.266742,512.554905 186.412969,512.033647 C186.771345,510.756104 186.742688,509.539207 185.703984,508.53373 C185.553768,508.388412 185.419928,508.224837 185.288607,508.061576 C184.755976,507.399617 184.619512,506.712476 185.084435,505.937515 C185.698525,504.913991 186.160615,503.825939 186.252046,502.640204 C187.426269,502.073305 188.571835,501.570934 189.665439,500.973502 C190.316165,500.618128 190.960591,500.460638 191.673775,500.589274 C193.673818,500.949789 195.52417,500.441542 197.397721,499.780527 C200.590777,498.654074 203.477104,496.959672 206.327425,495.191929 C206.76642,494.919654 207.136448,494.393675 207.336001,493.902845 C208.236246,491.688234 209.812935,490.071895 211.640193,488.602029 C213.437218,487.156295 215.123288,485.573006 216.862159,484.05477 C217.225994,483.737063 217.60736,483.439502 218.020637,483.099866 C220.551631,483.986675 223.051238,484.863622 225.551686,485.737945 C226.01367,485.899422 226.468411,486.123642 226.944882,486.193731 C228.35141,486.400744 229.725921,486.510808 230.714658,485.102741 C231.063272,484.606246 231.617632,484.221283 232.143755,483.889516 C232.96632,483.370672 233.472603,482.635267 233.726741,481.745519 C234.263466,479.866663 234.745081,477.971753 235.228269,476.077998 C234.290234,474.900656 232.934723,475.559783 232.339739,474.208479 C232.719214,473.868214 233.113911,473.514309 233.531072,473.140363 C233.565608,471.478592 233.647277,469.815772 233.517006,468.049183 C232.883392,467.950766 232.344252,467.897255 231.820124,467.777748 C231.179896,467.63159 230.95473,467.298459 230.933211,466.56746 C230.921559,466.170432 230.931216,465.772878 230.931216,465.26652 C228.516112,465.084583 225.988792,465.756406 224.106423,463.550609 C224.329595,462.809118 224.881751,462.172655 224.868524,461.285216 C224.853303,460.262426 224.051207,460.093291 223.523195,459.654502 C223.327421,458.520704 223.705428,457.703144 224.665402,457.045592 C225.587481,457.526978 226.506726,457.993991 227.602535,457.979931 C229.49981,457.955484 230.690094,456.844559 231.70287,455.445516 C231.841539,455.254136 231.83419,454.903483 231.788212,454.645478 C231.727853,454.307206 231.436554,453.977538 231.462063,453.661824 C231.610914,451.824517 230.834432,450.442576 229.373318,449.411603 C229.597329,448.85593 229.776623,448.410952 229.950247,447.980243 C229.603733,447.530543 221.754197,444.237429 219.25459,443.490062 C218.855274,443.863169 218.413024,444.27625 217.929836,444.727734 C217.515194,444.084871 217.244994,443.448828 216.78448,443.014341 C216.342125,442.597062 215.699588,442.394036 215.150476,442.087137 C212.893145,440.825437 210.634555,439.565941 208.382893,438.294065 C206.220562,437.072656 204.415664,435.472999 202.990976,433.41357 C201.121519,430.711068 199.101846,428.110866 197.277632,425.379405 C196.467244,424.16597 195.59912,423.380517 194.084681,423.503172 C193.892581,423.5187 193.689984,423.404649 193.523497,423.359217 C193.080933,422.825998 193.260226,422.261617 193.342734,421.720844 C193.562337,420.282979 193.271668,419.053806 192.427059,417.78749 C187.072616,409.7592 181.804252,401.673623 176.509224,393.605882 C176.286367,393.266351 176.081041,392.915384 175.733477,392.352682 C176.004621,392.187952 176.260439,392.064563 176.479937,391.894378 C182.948453,386.881051 189.409201,381.857547 195.881917,376.849571 C197.44034,375.643691 198.823669,374.278223 200.051008,372.734805 C203.751292,368.081154 207.483068,363.45258 211.194689,358.807953 C212.893565,356.682108 212.789118,355.879237 210.594875,354.161332 C209.273166,353.126582 207.925947,352.124252 206.599618,351.095377 C206.108242,350.714192 205.643738,350.298382 204.942311,349.709763 C206.544718,348.16771 207.944212,346.81158 209.353889,345.466047 Z" id="UZAO"></path>
            </g>
        </g>
    </g>
</svg>