<?xml version="1.0" encoding="UTF-8" standalone="no"?>
<svg width="197px" height="227px" viewBox="0 0 197 227" version="1.1" xmlns="http://www.w3.org/2000/svg" xmlns:xlink="http://www.w3.org/1999/xlink">
    <defs></defs>
    <g id="slide" stroke="none" stroke-width="1" fill="none" fill-rule="evenodd">
        <g id="Карта-v2" transform="translate(-1054.000000, -199.000000)" fill="#FFFFFF">
            <g id="карта" transform="translate(761.000000, 72.000000)">
                <path d="M429.768941,184.949746 C429.931438,184.796978 430.057825,184.585033 430.235229,184.525857 C431.814017,183.999668 433.401937,183.500549 434.911233,183.017693 C435.575815,183.487853 435.265411,183.993582 435.130941,184.418101 C435.036046,184.717446 434.784111,185.027389 434.516536,185.199672 C433.885336,185.606144 433.202909,185.933189 432.514184,186.30703 C432.571709,186.692202 432.575488,186.971402 432.657262,187.225526 C433.25718,189.089064 433.27723,189.137748 435.295538,188.898943 C436.281021,188.782479 436.882199,189.212873 437.377144,190.093597 C439.027209,189.595947 440.617648,189.116344 442.135657,188.658565 C442.350116,188.750477 442.54505,188.770412 442.590608,188.863374 C443.084189,189.869796 443.802202,190.463345 444.984193,190.597017 C445.80046,190.68935 446.598462,191.041261 447.377044,191.347217 C448.663588,191.852841 449.337512,192.870804 449.568662,194.200703 C449.744806,195.215099 449.203252,196.014193 448.183128,196.178817 C446.904352,196.385201 445.673758,196.126041 444.506253,195.609924 C443.870119,195.328626 443.275345,194.953421 442.664299,194.616513 C441.810347,194.145724 440.968887,193.644401 439.880321,193.547767 C439.61537,193.804409 439.257938,194.050349 439.041065,194.386627 C438.780103,194.791105 438.527539,195.257383 438.463926,195.723241 C438.154151,197.992621 436.966702,199.563843 434.878167,200.475624 C434.817703,200.502065 434.774874,200.568586 434.65657,200.679385 C434.59621,201.23086 434.528818,201.845919 434.453658,202.531171 C433.931419,202.810581 433.388291,203.101323 432.784383,203.424591 C432.750477,203.801999 432.714787,204.200392 432.669018,204.709688 C431.382159,205.280364 430.052262,205.870136 428.771386,206.438085 C427.945042,206.082606 427.920478,205.275013 427.523682,204.728889 C427.16856,204.240052 427.111035,203.529829 426.414961,203.229959 C425.241158,204.134185 424.751985,205.636578 423.626469,206.516043 C423.478878,206.47229 423.395215,206.472604 423.353226,206.430845 C423.159446,206.238206 422.944357,206.055745 422.796031,205.83058 C420.727966,202.691599 418.669558,199.546111 416.550896,196.313853 C417.140842,195.903499 417.635998,195.539416 418.150469,195.205236 C419.381482,194.405618 420.604938,193.592465 421.863664,192.838383 C422.72507,192.322371 423.161231,191.625787 423.178551,190.621884 C423.186949,190.144379 423.304623,189.668763 423.366137,189.239313 C424.229222,188.878378 424.476747,189.842831 424.894118,189.841991 C425.171981,189.886898 425.25113,189.926244 425.306241,189.90463 C426.794647,189.319789 428.280534,188.728758 429.978466,188.054733 C429.899317,186.882533 429.834444,185.920389 429.768941,184.949746 Z M488.758427,347.165643 C488.236713,347.75489 488.15326,348.401636 488.367614,349.116476 C488.707935,350.251219 489.063792,351.381345 489.403798,352.516297 C489.480428,352.771994 489.518533,353.039233 489.612064,353.478231 C489.168765,353.443292 488.844084,353.457456 488.538614,353.387578 C485.199436,352.623948 481.866766,351.831989 478.523914,351.084937 C477.711951,350.903525 476.872065,350.796399 476.040577,350.762823 C473.666937,350.667134 471.290777,350.634922 468.916297,350.557174 C468.509423,350.543954 468.105804,350.429588 467.5822,350.342187 C467.552178,349.88787 467.462217,349.484966 467.511029,349.099689 C467.7173,347.468031 467.719504,347.491114 466.253772,346.611229 C466.089175,346.512392 466.175672,345.921151 466.116783,345.523912 C466.010655,344.808127 465.408008,344.419807 464.782266,344.648539 C464.716763,344.672462 464.636144,344.688935 464.59342,344.73657 C463.38739,346.07843 461.872216,345.591587 460.489097,345.294445 C459.420056,345.064769 458.425231,344.480243 457.407626,344.030333 C457.227808,343.950696 457.064156,343.780511 456.950891,343.612949 C456.160132,342.442008 455.550136,341.18608 455.399396,339.764688 C455.28718,338.706119 455.70833,337.788148 456.577608,337.227229 C457.447201,336.666101 458.394159,336.105078 459.384155,335.875086 C461.405403,335.405661 462.735825,334.260006 463.563534,332.415145 C464.078215,331.267707 464.713614,330.167379 465.141377,328.990143 C465.514135,327.964625 466.170739,327.396257 467.158951,327.063232 C467.951914,326.795993 468.708346,326.421418 469.49837,326.143686 C469.952901,325.983889 470.439974,325.841823 470.91592,325.829862 C472.873239,325.780233 474.831923,325.778974 476.790081,325.774777 C476.985225,325.774357 477.180789,325.874244 477.354204,325.921669 C477.831724,326.845097 476.863037,327.50842 477.02312,328.522291 C477.215115,328.699296 477.478072,329.023299 477.811885,329.236082 C479.993215,330.626522 482.214645,331.955582 484.368788,333.386207 C485.182955,333.926876 486.045515,334.004834 486.997931,334.032533 C488.119249,335.381319 488.992411,336.87941 489.921313,338.263029 C488.942129,341.453529 488.942129,341.453529 489.964562,345.585187 C489.521682,346.171497 489.172859,346.697686 488.758427,347.165643 Z M294.379896,212.757084 C297.799693,205.25278 301.218651,197.747951 304.6501,190.248788 C305.70434,187.944574 306.226683,185.475211 306.918033,183.059463 C307.067304,182.537786 306.999806,181.948958 307.001381,181.390977 C307.008414,178.943543 306.961701,176.495059 307.019961,174.048884 C307.054077,172.619623 306.876359,171.271257 306.225634,169.986265 C306.08623,169.711157 306.094733,169.361238 306.038467,169.063467 C307.377393,168.912902 308.340202,169.227147 309.009087,168.912063 C310.368797,168.271403 311.800203,167.626022 312.78768,166.467357 C312.775714,165.33146 311.651352,165.245528 311.226318,164.579057 C311.137196,164.021601 311.597186,163.863902 311.906226,163.625517 C314.065722,161.959549 316.207478,160.26819 318.414421,158.667065 C319.371247,157.972894 319.803524,157.190903 319.634938,156.012617 C319.496794,155.046591 319.466037,154.064407 319.405573,153.088203 C319.350672,152.202023 319.011611,151.481307 318.30336,150.921228 C317.814503,150.534796 317.367845,150.095169 316.88812,149.666663 C317.357242,148.756666 318.01752,148.28084 318.774268,147.754336 C319.077743,147.969743 319.343639,148.175707 319.62591,148.35586 C320.79478,149.101863 321.262223,150.158752 321.239339,151.542687 C321.219814,152.725904 321.353444,153.914262 321.463875,155.09622 C321.598555,156.538491 322.529032,157.507246 323.954665,157.706599 C324.507136,157.783823 325.073673,157.83471 325.628663,157.804073 C326.840467,157.737132 327.986243,157.99241 329.12488,158.361529 C330.253966,158.727605 331.391973,159.066612 332.530086,159.404044 C333.194353,159.600984 333.769813,159.458289 334.228648,158.908807 C335.573137,157.298764 336.98019,155.73667 338.250253,154.070072 C339.075338,152.987687 339.396134,151.750434 338.899613,150.333239 C338.18349,148.289654 337.609605,146.196229 336.974626,144.124315 C336.892642,143.856971 336.810974,143.589522 336.724266,143.323647 C336.4822,142.582156 336.012972,142.198138 335.190302,142.153021 C333.307303,142.049882 331.427769,141.883369 329.547605,141.73123 C328.719791,141.66429 327.894077,141.569859 326.835323,141.464831 C327.111296,141.014711 327.229285,140.718828 327.433457,140.505205 C329.704224,138.129748 331.989477,135.768036 334.268327,133.400343 C334.995578,132.644792 335.729651,131.894907 336.434857,131.119106 C337.01651,130.479076 337.698727,130.049521 338.543966,129.839885 C339.21873,129.672533 339.937372,129.537182 340.525324,129.196077 C341.578829,128.585006 342.659207,128.23813 343.876154,128.134781 C344.437338,128.087041 344.966609,127.665041 345.688821,127.329917 C345.863915,127.479117 346.184082,127.726001 346.474751,128.003627 C353.35203,134.570549 360.219547,141.147754 367.10281,147.70838 C373.834178,154.124003 380.583181,160.521159 387.320217,166.930592 C391.372894,170.786198 395.386416,174.683354 399.474469,178.500873 C403.895495,182.629174 406.34545,187.752565 407.387723,193.629303 C407.436535,193.904411 407.525762,194.174378 407.552845,194.450955 C407.663486,195.579297 408.124736,196.442079 409.233456,196.898285 C409.526435,197.018841 409.754435,197.296887 410.134541,197.600325 C409.672557,198.160089 409.305363,198.647876 408.89345,199.094533 C408.227294,199.816928 408.076868,200.639 408.141531,201.606285 C408.406902,205.577727 408.605825,209.55347 408.8375,213.527219 C409.04881,217.153254 409.282793,220.778134 409.485286,224.404693 C409.71885,228.589863 409.930474,232.776291 410.146823,236.962405 C410.168447,237.380943 410.15921,237.801159 410.158895,238.220642 C410.152701,248.849658 410.175165,259.478884 410.105989,270.107481 C410.096016,271.633587 410.672736,272.661413 411.826804,273.458932 C413.835035,274.846749 416.064023,275.194254 418.432205,274.700696 C420.084264,274.356339 421.637438,273.726696 423.152612,272.995278 C426.242271,271.503587 429.414753,270.239055 432.71971,269.285619 C435.918645,268.362716 435.884424,269.002642 436.888696,271.144121 C437.273841,271.965563 437.708007,272.766545 438.046544,273.606349 C438.357473,274.377848 438.044235,275.048936 437.269852,275.258677 C436.670983,275.420783 436.026242,275.543858 435.414146,275.502833 C433.38723,275.366853 431.726354,276.138142 430.261252,277.43541 C429.319228,278.269443 428.415518,279.146599 427.491865,280.001407 C426.563067,280.861146 425.590076,281.646915 424.353289,282.043419 C424.027244,282.147922 423.707393,282.328075 423.437718,282.540649 C422.734087,283.095377 422.49349,283.993203 422.924612,284.792402 C423.285298,285.461181 423.75694,286.081276 424.245902,286.667586 C425.226031,287.842724 426.251508,288.97988 427.290002,290.169182 C427.066516,290.627276 426.911051,291.00353 426.708034,291.352084 C425.908353,292.724687 426.018679,294.115022 426.97162,295.277045 C428.563845,297.21875 430.2285,299.116597 432.278825,300.613744 C432.558997,300.818449 432.869506,300.9943 433.188412,301.131329 C434.971372,301.897792 436.741105,301.271192 437.618571,299.5429 C437.866621,299.054378 438.012848,298.514129 438.25187,297.873889 C440.612284,297.976294 442.827626,297.168807 445.086846,296.451343 C446.669938,295.948552 448.369234,295.814775 450.01363,295.500216 C450.765129,295.356471 451.535627,295.248296 452.250911,294.993333 C453.660588,294.491066 454.51307,293.401755 455.042867,292.041953 C455.296061,291.39206 455.479028,290.711634 455.771482,290.081047 C456.306212,288.928258 457.268391,288.437952 458.507697,288.60415 C459.193588,288.696063 459.901733,288.843795 460.52758,289.126247 C465.326927,291.292593 468.973045,294.729346 471.631476,299.177872 C470.327192,301.877437 467.871148,303.554212 464.996158,303.761539 C464.50982,303.796584 464.018234,303.751782 463.529481,303.763743 C461.851179,303.804873 460.941382,304.606799 460.724928,306.260491 C460.661735,306.743976 460.655961,307.237324 460.653967,307.726161 C460.646409,309.584557 459.734722,310.891898 458.199603,311.842396 C456.744158,312.743684 455.143011,313.227379 453.465339,313.423376 C450.758725,313.739509 448.04025,313.955755 445.334371,314.277344 C443.881446,314.450047 442.431249,314.695567 441.002677,315.011595 C437.743068,315.732626 435.067107,317.412968 433.033578,320.077489 C431.51053,322.073019 429.769455,323.917461 428.73453,326.254307 C428.687293,326.361013 428.525005,326.416832 428.288712,326.589536 C428.070683,326.408963 427.769097,326.24308 427.582351,325.991894 C425.034876,322.565423 421.674913,320.134986 418.10574,317.862039 C410.84678,313.239551 403.336516,309.050079 395.924296,304.692102 C389.174033,300.723389 382.391439,296.80955 375.611364,292.892039 C374.449737,292.220847 373.40694,291.431826 372.468695,290.471885 C370.51316,288.471318 368.499261,286.527514 366.55055,284.520547 C365.785509,283.732575 364.973546,283.192641 363.835223,283.131576 C363.002161,283.086878 362.178966,282.872311 361.349472,282.746088 C358.900042,282.373192 356.849612,281.294374 355.255603,279.370925 C354.095446,277.971042 352.881228,276.615332 351.74364,275.197717 C351.106771,274.403974 350.342256,273.891005 349.393829,273.52986 C347.238636,272.709152 345.100869,271.837872 342.984832,270.92074 C341.962504,270.477545 340.97996,269.926279 340.024395,269.349517 C338.587005,268.481804 337.679412,267.19314 337.193179,265.583096 C336.377962,262.884266 336.259238,260.170957 337.414251,257.57747 C338.497883,255.14378 338.172048,252.64273 338.125126,250.144723 C338.115153,249.612658 337.851252,249.063491 337.620102,248.560805 C335.897817,244.815368 334.142255,241.08525 332.427318,237.33656 C332.061384,236.536942 331.508073,235.958816 330.801713,235.471973 C327.92032,233.48599 324.754871,232.30078 321.260333,231.979086 C319.173058,231.786762 317.08106,231.597586 315.01184,231.275157 C313.777677,231.082938 312.553592,230.717282 311.376219,230.288776 C306.191518,228.401945 301.025501,226.463703 295.852137,224.5455 C295.59044,224.448446 295.32171,224.370488 295.059699,224.274379 C294.394277,224.030223 294.087338,223.568352 294.056686,222.842285 C294.018476,221.936169 293.826586,221.035091 293.811784,220.130025 C293.801812,219.518848 293.844641,218.836324 294.106023,218.304784 C294.791809,216.910357 294.65104,215.622637 293.911928,214.33009 C294.011547,213.655435 294.178664,213.198495 294.379896,212.757084 Z" id="VAO"></path>
            </g>
        </g>
    </g>
</svg>