<?xml version="1.0" encoding="UTF-8" standalone="no"?>
<svg width="245px" height="213px" viewBox="0 0 245 213" version="1.1" xmlns="http://www.w3.org/2000/svg" xmlns:xlink="http://www.w3.org/1999/xlink">
    <defs></defs>
    <g id="slide" stroke="none" stroke-width="1" fill="none" fill-rule="evenodd">
        <g id="Карта-v2" transform="translate(-761.000000, -313.000000)" fill="#FFFFFF">
            <g id="карта" transform="translate(761.000000, 72.000000)">
                <path d="M11.5101505,428.171679 C11.3152164,428.242607 11.0928845,428.270727 10.93784,428.387716 C9.04182495,429.818236 7.11704745,431.214762 5.28002704,432.718204 C4.00492493,433.761768 2.69140285,433.627781 1.35657134,433.075047 C0.16639206,432.582328 -0.261581209,431.356093 0.155894801,430.098486 C0.45118271,429.208529 1.0005043,428.487498 1.67432338,427.87055 C2.85883414,426.786066 4.0173117,425.659088 5.29566796,424.693901 C7.65870604,422.909685 9.64919638,420.768941 11.5578081,418.534815 C11.9209083,418.109877 12.2918815,417.691024 12.6403905,417.254334 C13.6952601,415.932199 14.8877488,414.796303 16.4292713,414.021971 C17.2319967,413.618752 17.9619762,413.043879 18.663403,412.471523 C20.1593675,411.250639 21.3396793,409.812669 21.5891992,407.796783 C21.6118733,407.613168 21.7685974,407.446235 21.9287855,407.150038 C22.7022236,407.498697 23.4486837,407.831198 24.1916798,408.171463 C24.6901946,408.399776 24.8592005,408.870251 24.9845378,409.343978 C25.198157,410.151885 25.4229033,410.961576 25.5567434,411.784488 C25.6697989,412.479917 26.0209322,412.927939 26.6317677,413.217421 C27.0737024,413.426848 27.4994712,413.678978 27.9567318,413.845805 C29.3284087,414.345973 30.3296373,415.252823 31.1013959,416.478114 C31.5840598,417.244472 32.1244588,417.985228 32.7192335,418.667647 C33.4049145,419.454465 33.6768985,420.357957 33.705451,421.358083 C33.7253958,422.055297 33.7234013,422.756078 33.6774233,423.451612 C33.5305667,425.672623 32.5387856,427.453796 30.786583,428.810556 C30.3459081,429.151765 29.8801447,429.468843 29.3954862,429.743216 C28.5859376,430.201625 27.9185218,430.779541 27.4769021,431.615043 C26.7596244,432.972327 25.6542629,433.688322 24.0804088,433.613512 C23.8045408,433.600396 23.5228994,433.653802 23.2472413,433.69766 C22.1093384,433.878862 21.1913531,433.453399 20.4134012,432.665742 C19.4807197,431.72154 18.5963256,430.726555 17.6249092,429.824741 C16.9202281,429.170546 16.3509618,428.334205 15.3516226,427.924166 C14.6351847,428.317522 13.9116086,428.714761 13.0782312,429.17233 C12.4676056,428.782751 11.9991129,428.483825 11.5101505,428.171679 Z M42.7828092,418.81071 C42.8592292,417.938275 43.5816506,417.784773 44.0210659,417.37998 C44.5755312,416.869109 45.3029912,416.541435 45.4757761,415.669734 C45.533826,415.37658 45.8451747,415.066637 46.1217775,414.894668 C47.8360849,413.828965 49.5734863,412.800405 51.37891,411.713927 C52.5104096,412.928201 52.7460731,414.627849 53.8753682,415.949669 C56.0014832,414.270796 57.9091501,412.465385 59.989497,410.702784 C60.7951617,411.524016 61.4965886,412.238857 62.2893416,413.046869 C63.0958461,411.971932 62.4701044,410.704777 63.1585147,409.646733 C63.8175326,409.866862 64.4449538,410.076603 65.0966237,410.294318 C65.2649998,411.290562 65.0895905,412.185661 65.041933,413.07992 C65.0046677,413.777763 64.9404245,414.474556 64.9197449,415.172714 C64.9031592,415.731954 65.1827012,416.091315 65.7446195,416.211347 C66.5470301,415.981146 66.9476055,415.270188 67.5007061,414.754911 C69.1386984,413.228595 70.2330377,413.25619 71.7052784,414.900649 C71.8341847,415.044708 71.994163,415.161068 72.2761194,415.411519 C72.46507,414.884491 72.5560813,414.422095 72.7863911,414.044582 C73.0369607,413.633808 73.4213704,413.305819 73.7392274,412.934601 C74.1795874,412.420269 74.7206162,412.164466 75.4059822,412.252916 C75.4749492,412.261835 75.5461207,412.252602 75.6156125,412.259002 C77.0717923,412.393618 78.5279722,412.529388 79.984047,412.664844 C81.5228403,413.980789 83.105932,415.249518 84.5832113,416.631144 C85.4180584,417.411876 85.6414401,418.46929 85.7368602,419.659537 C85.9105898,421.825358 84.7174713,423.349155 83.761066,425.090982 C83.3908276,425.127705 83.0544954,425.159182 82.7186881,425.194646 C81.6164759,425.311006 81.1593202,426.118808 81.6562605,427.079063 C81.7196639,427.201509 81.7956641,427.333397 81.9011615,427.415552 C82.9356665,428.22178 83.1723797,429.361978 83.1816173,430.670893 C83.6999719,430.870981 84.1955475,431.062361 84.7774106,431.287001 C85.0399471,432.179476 85.3248427,433.109199 85.5829703,434.046162 C85.6737716,434.375935 85.6994899,434.723755 85.768247,435.145335 C85.4597325,435.350984 85.2030745,435.579087 84.9042175,435.713074 C71.9011572,441.546689 58.8944229,447.372224 45.8863239,453.194508 C45.763506,453.249592 45.6163344,453.250432 45.3108642,453.309293 C43.2861528,452.217989 41.1415627,451.062157 39.0542876,449.937173 C37.8139314,450.225396 36.6710948,450.490956 35.394628,450.787574 C35.0419201,448.130188 34.865986,445.594514 34.8743838,442.973432 C35.6747999,442.936919 36.2853205,442.909114 37.0426978,442.874699 C36.9924159,442.460568 37.01509,442.12471 36.9046588,441.840473 C36.6305753,441.13539 36.2957128,440.45381 35.9749165,439.739809 C38.2779103,437.275168 39.7831123,434.43679 41.2161982,431.559381 C41.5754144,430.83814 42.017349,430.253614 42.7481682,429.913664 C43.3960591,429.61222 43.6663635,429.099041 43.6691978,428.404871 C43.6704574,428.1263 43.7351206,427.848149 43.7391095,427.569474 C43.7572698,426.309663 44.2321658,425.280788 45.1909855,424.44623 C45.6007985,424.089492 45.9183406,423.626781 46.3864134,423.086848 C45.0647034,421.518458 43.8996126,420.135993 42.7828092,418.81071 Z M120.811532,246.343782 C121.73697,246.240747 122.606143,246.404847 123.390498,246.984442 C124.207605,247.588064 125.162856,247.768741 126.173112,247.737789 C127.920381,247.684278 129.668489,247.659411 131.416073,247.617232 C132.679733,247.5867 133.700067,247.030398 134.55087,246.131103 C135.464131,245.165811 136.397338,244.217307 137.268295,243.214977 C138.021579,242.348103 138.925708,241.959888 140.053113,242.103633 C141.161729,242.245069 142.269085,242.398781 143.373396,242.569596 C146.549132,243.06095 149.729592,243.526494 152.894096,244.082481 C153.972059,244.271867 154.964155,244.222763 155.970633,243.82458 C157.789808,243.104913 159.616016,242.402453 161.447158,241.713529 C161.965618,241.518477 162.501923,241.330245 163.04631,241.252497 C164.247197,241.080948 165.213995,241.455313 165.931482,242.514301 C168.203824,245.868271 170.708785,249.065904 172.485971,252.74461 C173.142785,254.104203 173.282608,255.360971 172.657811,256.750886 C171.942003,258.343408 171.266924,259.958697 170.672045,261.599589 C170.232839,262.811135 169.423606,263.560285 168.301553,264.109032 C165.349514,265.552668 162.418049,267.038168 159.479552,268.509294 C158.979567,268.75964 158.466461,268.990681 157.99167,269.282891 C155.574886,270.77028 155.082145,273.623976 156.933861,275.744995 C158.082261,277.060205 159.319258,278.302494 160.572106,279.52023 C161.063588,279.99805 161.679987,280.369267 162.287674,280.700614 C163.145405,281.168256 164.051738,281.545979 164.930254,281.976478 C166.18877,282.593111 167.458938,282.678098 168.783378,282.176356 C170.351143,281.582387 171.929091,281.013285 173.515227,280.470308 C174.474887,280.141794 175.245281,279.578777 175.889917,278.813784 C177.377169,277.048769 178.84794,275.269274 180.366474,273.531434 C181.232708,272.540017 181.660996,271.398139 181.828847,270.121856 C182.111328,267.974396 182.395279,265.827147 182.700539,263.68294 C182.920247,262.139417 182.856004,260.622336 182.478102,259.105149 C182.063671,257.44086 182.117941,255.803326 182.729827,254.16254 C183.127568,253.096102 183.747011,252.347582 184.821196,251.991053 C185.748943,251.683209 186.668398,251.327415 187.619345,251.120927 C188.210131,250.992711 188.88248,250.984527 189.466128,251.130475 C190.954954,251.502532 192.414598,251.991158 193.885999,252.433199 C194.568006,252.638114 195.20393,252.936829 195.64282,253.515795 C197.444465,255.89293 199.920664,257.519447 202.166867,259.401451 C202.756708,259.895639 203.345605,260.392659 203.960114,260.854845 C205.396139,261.934503 206.443031,263.312037 207.098585,264.972339 C207.585448,266.205499 208.000509,267.466884 208.449162,268.715153 C208.874721,269.898789 209.230998,271.113903 209.745364,272.257774 C210.571708,274.095395 211.791909,275.638498 213.78009,276.2971 C215.516547,276.872288 217.319136,277.091157 219.158886,276.796114 C221.699748,276.388803 223.975029,275.337474 226.060204,273.886599 C227.262456,273.050047 228.362463,272.066184 229.504985,271.144226 C230.701988,270.178409 231.856266,269.154675 233.097672,268.249819 C235.475616,266.516596 238.138561,266.290907 240.904694,267.041736 C242.423123,267.453978 243.526175,268.305533 243.666313,270.060371 C243.732656,270.890102 243.947325,271.713013 244.147192,272.526062 C244.540525,274.125823 244.178789,275.600726 243.3346,276.937235 C241.579773,279.715282 239.768051,282.457865 237.95066,285.195726 C237.647184,285.652876 237.231388,286.052947 236.809608,286.411259 C234.250796,288.58474 231.680227,290.744475 229.100631,292.893298 C228.618806,293.294734 228.073894,293.619471 227.566456,293.991003 C226.198768,294.992388 225.025595,296.183684 224.111178,297.614729 C223.033845,299.300632 222.42028,301.127342 222.423009,303.151412 C222.425423,304.904676 222.501004,306.638109 222.982513,308.344892 C223.753747,311.078871 225.404126,313.046807 228.000728,314.172316 C229.019802,314.613937 230.112252,314.886212 231.170585,315.237495 C231.626796,315.388899 232.081432,315.545129 232.6254,315.729164 C232.452511,316.044667 232.348483,316.29963 232.189869,316.514408 C228.284469,321.802003 224.392295,327.099566 220.448474,332.358518 C219.572688,333.526416 218.574084,334.619819 217.524568,335.636733 C213.356211,339.675535 209.143871,343.669114 204.95284,347.684623 C204.600447,348.022161 204.248474,348.371554 203.961059,348.763022 C203.520909,349.362552 203.527627,350.129539 204.020053,350.701055 C204.426717,351.172894 204.91253,351.586186 205.404432,351.973142 C206.833739,353.097392 208.291808,354.185024 209.72059,355.310009 C210.145099,355.644293 210.510194,356.054123 210.978267,356.501724 C210.616321,357.063167 210.358509,357.550849 210.020182,357.974424 C206.179655,362.784095 202.352459,367.604993 198.45829,372.371121 C197.537156,373.498414 196.461607,374.536627 195.31751,375.43907 C188.892033,380.506852 182.420682,385.516611 175.973056,390.556588 C174.871263,391.417901 173.81167,392.33283 172.726043,393.215128 C172.409131,393.472714 172.069755,393.7026 171.599897,394.048951 C171.421654,393.544166 171.202576,393.185225 171.179797,392.814427 C171.072725,391.07218 170.991056,389.3271 170.960089,387.582126 C170.945918,386.779779 170.724006,386.117295 170.271574,385.444739 C166.641097,380.048863 163.030879,374.639347 159.452154,369.209161 C158.622031,367.94956 157.320475,367.445405 156.071826,366.861298 C155.411549,366.55251 154.849001,366.924357 153.969015,367.986493 L151.90095,367.986493 C151.685441,367.671934 151.455446,367.33597 151.177269,366.929708 C150.236925,366.661315 149.33395,367.058764 148.282335,367.258642 C148.381639,368.131182 148.472545,368.928702 148.57038,369.788021 C148.076904,369.983073 147.646306,370.153363 147.026233,370.398358 C147.329289,370.653426 147.486118,370.879745 147.690499,370.937033 C148.075749,371.045104 148.488291,371.055806 148.930961,371.11215 C149.154447,372.36514 149.029215,373.546574 149.032889,374.777845 C148.873226,374.979507 148.728573,375.222509 148.528496,375.404655 C147.236178,376.581157 146.650116,376.584724 147.999224,379.21399 C148.429506,379.303595 148.899469,379.401383 149.355575,379.496338 C149.687393,380.068588 149.625354,388.330542 149.265823,391.296715 C148.916789,391.504987 148.511385,391.74694 148.030716,392.0338 C147.923329,392.719471 147.807649,393.458549 147.676853,394.293527 C146.993796,394.355116 146.388839,394.409676 145.713446,394.470532 C145.241384,395.84198 145.270146,397.24648 145.035428,398.600721 C144.928251,399.219452 144.925416,399.85602 144.821283,400.475486 C144.767013,400.798544 144.595802,401.101876 144.436979,401.520729 C143.199772,401.325677 142.0393,401.135766 140.876413,400.961699 C139.774306,400.796655 138.669679,400.648189 137.461235,400.477584 C137.264936,400.965162 137.067693,401.454942 136.84725,402.002535 L129.615583,402.002535 C129.551865,401.463861 129.491191,400.951207 129.429572,400.429949 C127.468159,401.847354 125.933879,403.270006 124.319086,404.762326 C124.680402,405.252106 124.997839,405.682291 125.379204,406.199246 C124.897905,407.157194 124.193644,407.987869 123.378846,408.90007 C122.993807,408.639021 122.642464,408.447327 122.346546,408.191525 C121.447141,407.41415 120.60841,406.56186 119.673314,405.831911 C118.4233,404.855917 117.499331,403.690537 117.032098,402.160969 C116.894374,401.710325 116.629319,401.298712 116.394495,400.81103 C115.928626,400.934839 115.542537,401.037349 115.001299,401.181198 C114.007628,400.354195 112.943626,399.468645 111.828292,398.540391 C111.938093,397.817366 112.039812,397.147852 112.148353,396.432592 C110.84092,395.424072 109.378547,394.777327 107.886046,393.93448 C105.907313,395.234896 103.937817,396.529121 101.855056,397.897947 C101.069021,396.735925 100.334843,395.650706 99.5578354,394.502114 L97.6279143,394.502114 C97.4989029,393.879395 97.4272067,393.333271 97.2672284,392.814427 C97.0836314,392.218989 96.8615093,391.627852 96.5837519,391.070921 C96.2449003,390.391125 95.7228716,390.00931 94.8837207,390.190092 C94.4926978,390.274345 94.0685035,390.204467 93.6011655,390.204467 C92.8013793,387.411206 94.0533875,384.955273 94.7257369,382.361051 C94.2953493,381.990988 93.8896302,381.642119 93.3747396,381.199239 C96.0574193,378.276503 98.693911,375.404131 101.296811,372.568376 C101.283585,371.250753 100.220317,370.393007 100.118494,369.059855 C101.115209,368.963431 101.544232,370.176971 102.491295,370.048965 C102.687488,369.329508 101.791232,369.253858 101.542867,368.693989 C101.715127,367.60174 101.863034,366.504875 102.067415,365.418607 C102.232222,364.5425 102.844107,363.918837 103.530838,363.452769 C103.883021,363.21386 104.44368,363.281745 104.934007,363.207249 C105.656113,362.155816 104.881101,360.852567 105.461389,359.736711 C106.432176,359.544387 107.230492,359.985798 108.090638,360.277379 C108.203273,360.786675 108.303837,361.241727 108.401777,361.685236 C108.61949,361.668553 108.785556,361.706431 108.879507,361.640959 C109.82657,360.980363 110.57324,360.207395 110.603472,358.933 C110.616068,358.402195 111.03176,358.102325 111.557568,357.954908 C113.439516,357.42704 115.314432,356.874201 117.194386,356.339094 C117.768271,356.175728 118.27235,356.266697 118.741157,356.695412 C120.744034,358.526738 120.505747,357.983027 120.39794,360.618903 C120.349442,361.80317 120.176657,362.982504 120.133934,364.166666 C120.117033,364.632209 120.204475,365.153886 120.412216,365.565289 C121.036908,366.802332 122.056717,367.183307 123.462825,366.711259 C124.220517,365.224604 123.768715,363.438185 124.424688,361.819747 C126.262444,361.308562 128.159823,361.4415 130.038413,360.991275 C130.280165,361.474656 130.476044,361.824784 130.634762,362.19107 C131.398333,363.953462 132.742192,364.969956 134.641146,365.119891 C135.676281,365.201626 136.785526,365.25713 137.763031,364.979084 C140.31292,364.253752 142.811478,363.346902 145.321793,362.486848 C145.628838,362.381715 145.882241,362.120352 146.262242,361.862136 C146.036761,361.507182 145.88854,361.203115 145.676705,360.952769 C144.818659,359.938583 143.887027,358.981895 143.087031,357.924795 C142.409223,357.029067 141.603034,356.484097 140.487385,356.368787 C140.218865,356.340982 139.960632,356.213186 139.707963,356.134494 C139.266029,355.309589 139.43556,354.452263 139.455504,353.63208 C139.464742,353.253203 139.703974,352.846521 139.929246,352.513495 C140.359528,351.877242 140.807341,351.240255 141.333779,350.684792 C142.0963,349.880137 142.230245,348.994587 141.912388,347.984074 C141.830299,347.72292 141.763642,347.457045 141.669796,347.121606 C143.096164,345.82822 145.00803,345.394154 146.534856,344.231922 C146.394613,343.708041 146.181518,343.197171 146.13827,342.672241 C146.092817,342.122339 146.234949,341.559742 146.252165,341.001342 C146.317773,338.872454 145.953833,336.853735 144.979477,334.915492 C143.017749,331.0133 140.434584,327.542447 137.737733,324.141996 C137.659633,324.043684 137.50039,324.009479 137.301362,323.904346 C136.550073,323.975274 136.472183,324.937628 135.696331,325.239386 C134.891086,324.731034 134.448836,323.95345 134.272482,322.942412 C134.103267,321.972503 134.285919,321.144556 135.133888,320.507463 C134.773307,319.983792 134.515704,319.582147 134.231228,319.200647 C132.76917,317.24058 131.288636,315.294153 129.83802,313.325797 C128.986797,312.170805 128.005828,311.219048 126.558676,310.862415 C126.29362,310.797152 126.048509,310.65047 125.655597,310.481859 C125.579282,309.701966 125.499398,308.88556 125.417414,308.047855 C126.034968,307.343087 126.624179,306.67074 127.235225,305.973422 C126.421897,303.189184 126.243863,300.216715 123.778477,298.245212 C123.749505,294.570073 123.281852,291.020318 120.8383,287.866961 C121.288212,286.151155 120.737421,284.435139 120.232398,282.686807 C119.303285,279.470287 118.482715,276.2225 117.594647,272.993809 C117.332635,272.041213 117.208977,271.088616 117.225143,270.098878 C117.29474,265.83596 117.290226,261.571469 117.409265,257.310126 C117.451779,255.788007 117.216745,254.401345 116.438793,253.096522 C116.226539,252.740518 116.090809,252.338873 115.863753,251.832934 C116.206489,251.287754 116.564655,250.70113 116.939618,250.125522 C117.862117,248.709166 117.865266,248.71116 117.328751,246.83671 C118.613825,246.651731 119.709214,246.466646 120.811532,246.343782 Z" id="ZAO"></path>
            </g>
        </g>
    </g>
</svg>