<svg xmlns="http://www.w3.org/2000/svg" viewBox="0 0 50.08 81.25"><defs><style>.cls-1{fill:#fff;}.cls-2{fill:#d7dee2;}.cls-3{fill:none;stroke:#272d2d;stroke-linecap:round;stroke-linejoin:round;stroke-width:2px;}</style></defs><title>Ресурс 1</title><g id="Слой_2" data-name="Слой 2"><g id="Layer_1" data-name="Layer 1"><path class="cls-1" d="M25.52,1c18.67.39,24.86,13.16,23.61,23.45C47.85,35,36,45.68,35.09,50.62c0,0-18.74.3-18.83.16C7.65,36.9,2.64,33.72,1.42,24.94-.49,11.06,10.36.69,25.52,1Z"/><rect class="cls-1" x="19.81" y="69.28" width="11.52" height="10.97" rx="2.33" ry="2.33"/><path class="cls-2" d="M21.38,50.26s-2.3-8.6-3.53-11.62-6.6-9.06-7.37-15.4S13,1.48,25.26,1.22L25.43,1C10.32.73-.49,11.08,1.42,24.94c1.21,8.78,6.22,12,14.84,25.85,0,0,2.33,0,5.32,0q0-.27-.05-.54Z"/><path class="cls-2" d="M25.36,77.92V71.61a2.34,2.34,0,0,1,2.33-2.33H21.94a2.34,2.34,0,0,0-2.33,2.33v6.31a2.34,2.34,0,0,0,2.33,2.33h5.76A2.34,2.34,0,0,1,25.36,77.92Z"/><path class="cls-3" d="M25.31,1C44,1.4,50.17,14.16,48.92,24.46,47.65,35,35.84,45.68,34.88,50.62c0,0-18.74.3-18.83.16C7.44,36.9,2.43,33.72,1.22,24.94-.7,11.06,10.15.69,25.31,1Z"/><path class="cls-3" d="M18.1,50.88c0,.38,3.41,18.28,3.41,18.28"/><line class="cls-3" x1="31.75" y1="50.88" x2="28.79" y2="69.28"/><path class="cls-3" d="M25,50.88c-.13.38.12,18.28.12,18.28"/><path class="cls-3" d="M21.38,50.26s-2.3-8.6-3.53-11.62-6.6-9.06-7.37-15.4S13,1.38,25.37,1.21C36.12,1.06,40.27,11.93,40.11,21s-5.53,14.34-6.76,17.36S29.21,50,29.21,50"/><rect class="cls-3" x="19.6" y="69.28" width="11.52" height="10.97" rx="2.33" ry="2.33"/></g></g></svg>