<?xml version="1.0" encoding="UTF-8"?>
<svg width="98px" height="24px" viewBox="0 0 98 24" version="1.1" xmlns="http://www.w3.org/2000/svg" xmlns:xlink="http://www.w3.org/1999/xlink">
    <!-- Generator: Sketch 41.1 (35376) - http://www.bohemiancoding.com/sketch -->
    <title>follow_button-small</title>
    <desc>Created with Sketch.</desc>
    <defs></defs>
    <g id="slide" stroke="none" stroke-width="1" fill="none" fill-rule="evenodd">
        <g id="pop-up-map.mini-kudago" transform="translate(-59.000000, -515.000000)">
            <g id="Событие" transform="translate(-1.000000, 0.000000)">
                <g id="узнать-подробнее" transform="translate(0.000000, 499.000000)">
                    <g id="pop-up" transform="translate(44.000000, 0.000000)">
                        <g id="соц.сети" transform="translate(16.000000, 16.000000)">
                            <g id="follow_button-small">
                                <g id="follow">
                                    <rect id="background" fill="#00AAEC" x="0" y="0" width="98" height="24" rx="3"></rect>
                                    <text id="Поделиться" font-family="Helvetica-Bold, Helvetica" font-size="11" font-weight="bold" fill="#FFFFFF">
                                        <tspan x="25" y="16">Поделиться</tspan>
                                    </text>
                                    <g id="Facebook-black" transform="translate(5.000000, 6.000000)" fill="#FFFFFF">
                                        <g id="Icons">
                                            <g>
                                                <g id="Black">
                                                    <g id="Twitter-color">
                                                        <g id="Icons">
                                                            <g>
                                                                <g id="Color-">
                                                                    <path d="M16,1.53896698 C15.412103,1.80000015 14.7791277,1.97652585 14.115161,2.05539913 C14.7932147,1.64976532 15.313494,1.00657278 15.5586077,0.240375525 C14.9237543,0.615962425 14.2222223,0.88920195 13.4727947,1.03568075 C12.8755063,0.398122075 12.0218347,0 11.0770677,0 C9.265481,0 7.79573867,1.4694836 7.79573867,3.2816901 C7.79573867,3.53896725 7.82391267,3.78873235 7.88026067,4.02910788 C5.15208067,3.89201865 2.73381467,2.5868544 1.113811,0.599061125 C0.831132333,1.08544605 0.669601333,1.64976532 0.669601333,2.2507043 C0.669601333,3.38873243 1.24904633,4.39342735 2.12995233,4.98215965 C1.59276867,4.96619728 1.085637,4.81690138 0.642366667,4.57276983 L0.642366667,4.61314555 C0.642366667,6.203756 1.77402133,7.5305165 3.27663333,7.83098582 C3.00146733,7.90798125 2.71127533,7.9464788 2.41169233,7.9464788 C2.20038733,7.9464788 1.99377833,7.92676072 1.793743,7.88826285 C2.211657,9.19154925 3.423138,10.140845 4.86001067,10.1661973 C3.736808,11.0469483 2.32059633,11.5718311 0.783236333,11.5718311 C0.518401,11.5718311 0.256383,11.5568076 0,11.5267607 C1.452838,12.456338 3.17896333,13 5.03187167,13 C11.0704937,13 14.3715443,8.00000013 14.3715443,3.66291088 C14.3715443,3.52018777 14.368727,3.37746468 14.363092,3.23755867 C15.0045197,2.77464785 15.561425,2.19718297 16,1.53896698" id="Twitter"></path>
                                                                </g>
                                                            </g>
                                                        </g>
                                                    </g>
                                                </g>
                                            </g>
                                        </g>
                                    </g>
                                </g>
                            </g>
                        </g>
                    </g>
                </g>
            </g>
        </g>
    </g>
</svg>