<?xml version="1.0" encoding="UTF-8"?>
<svg width="98px" height="24px" viewBox="0 0 98 24" version="1.1" xmlns="http://www.w3.org/2000/svg" xmlns:xlink="http://www.w3.org/1999/xlink">
    <!-- Generator: Sketch 41.1 (35376) - http://www.bohemiancoding.com/sketch -->
    <title>follow_button-small copy</title>
    <desc>Created with Sketch.</desc>
    <defs></defs>
    <g id="slide" stroke="none" stroke-width="1" fill="none" fill-rule="evenodd">
        <g id="pop-up-map.mini-kudago" transform="translate(-59.000000, -547.000000)">
            <g id="Событие" transform="translate(-1.000000, 0.000000)">
                <g id="узнать-подробнее" transform="translate(0.000000, 499.000000)">
                    <g id="pop-up" transform="translate(44.000000, 0.000000)">
                        <g id="соц.сети" transform="translate(16.000000, 16.000000)">
                            <g id="follow_button-small-copy" transform="translate(0.000000, 32.000000)">
                                <g id="follow">
                                    <rect id="background" fill="#4F719B" x="0" y="0" width="98" height="24" rx="3"></rect>
                                    <text id="Поделиться" font-family="Helvetica-Bold, Helvetica" font-size="11" font-weight="bold" fill="#FFFFFF">
                                        <tspan x="26" y="16">Поделиться</tspan>
                                    </text>
                                    <g id="Facebook-black" transform="translate(6.000000, 7.000000)" fill="#FFFFFF">
                                        <g id="Icons">
                                            <g>
                                                <g id="Black">
                                                    <path d="M7.82446468,9.70714611 L8.78376841,9.70714611 C8.94714029,9.68697674 9.10049993,9.61754665 9.22344928,9.50809059 C9.31129619,9.37954308 9.35608153,9.22643321 9.35135645,9.07080797 C9.35135645,9.07080797 9.33536805,7.71818972 9.92693868,7.52153245 C10.5185093,7.32487519 11.2699639,8.81499364 12.0693837,9.38577936 C12.3647458,9.63403389 12.7493101,9.74969234 13.132612,9.70554727 L15.2670628,9.70554727 C15.2670628,9.70554727 16.3862504,9.61761109 15.8586334,8.70147604 C15.4377964,7.9785785 14.9002561,7.33028874 14.267788,6.78286858 C12.9247628,5.48700913 13.1086294,5.69645711 14.7234573,3.45488407 C15.7067436,2.0894751 16.0984593,1.25568028 15.9785464,0.896740798 C15.763032,0.669027399 15.4484627,0.563272195 15.1391556,0.614545618 L12.7329021,0.614545618 C12.6248829,0.605201693 12.5164931,0.627713416 12.4211284,0.67929862 C12.3237282,0.754205612 12.2490113,0.854658261 12.205285,0.969487997 C11.9572511,1.6481117 11.6606998,2.30800515 11.3179291,2.94405483 C10.2467066,4.83947912 9.81501992,4.94260427 9.63914757,4.82189188 C9.23144348,4.54689148 9.33536805,3.71949201 9.33536805,3.13191848 C9.33536805,1.29325301 9.60717078,0.528208283 8.8157452,0.333949278 C8.45011792,0.242144567 8.07323872,0.20311065 7.69655752,0.218033411 C7.02284446,0.152047487 6.34275313,0.224409205 5.69800809,0.430679071 C5.42620537,0.570577531 5.21036203,0.880752403 5.33826919,0.899139057 C5.61486441,0.926023016 5.87008929,1.05965762 6.04975279,1.27166867 C6.21752151,1.62576343 6.2996745,2.01434708 6.28957872,2.40604533 C6.28957872,2.40604533 6.43347428,4.56847581 5.95382242,4.83708086 C5.63405451,5.0209474 5.18637943,4.64522011 4.23506991,2.92566818 C3.90866482,2.31958025 3.62031579,1.69375606 3.37169655,1.05182823 C3.32777471,0.944500879 3.259329,0.848950672 3.17184161,0.772830733 C3.0616643,0.695453025 2.93632919,0.642321838 2.80410851,0.616943878 L0.517767964,0.616943878 C0.348826782,0.617396989 0.185157325,0.675810054 0.0541044965,0.782423771 C-0.0119704173,0.915050957 -0.0177950105,1.06969391 0.0381161011,1.20691567 C0.0381161011,1.20691567 1.82881639,5.60372442 3.85934261,7.80292821 C4.85250541,8.96923632 6.29323379,9.6602631 7.82446468,9.70474785 L7.82446468,9.70714611 Z" id="Path"></path>
                                                </g>
                                            </g>
                                        </g>
                                    </g>
                                </g>
                            </g>
                        </g>
                    </g>
                </g>
            </g>
        </g>
    </g>
</svg>