<?xml version="1.0" encoding="UTF-8"?>
<svg width="40px" height="40px" viewBox="0 0 40 40" version="1.1" xmlns="http://www.w3.org/2000/svg" xmlns:xlink="http://www.w3.org/1999/xlink">
    <!-- Generator: Sketch 41 (35326) - http://www.bohemiancoding.com/sketch -->
    <title>Group 4</title>
    <desc>Created with Sketch.</desc>
    <defs></defs>
    <g id="slide" stroke="none" stroke-width="1" fill="none" fill-rule="evenodd">
        <g id="-collections-kudago" transform="translate(-1272.000000, -624.000000)">
            <g id="share" transform="translate(1267.000000, 552.000000)">
                <g id="Group-4" transform="translate(5.000000, 72.000000)">
                    <circle id="Oval-2-Copy" fill="#4F719B" cx="20" cy="20" r="20"></circle>
                    <path d="M20.4006006,25.9117455 C20.5883255,25.8887073 20.7645456,25.8094015 20.9058224,25.6843764 C21.0067642,25.5375443 21.0582254,25.3626561 21.052796,25.1848947 C21.052796,25.1848947 21.0344243,23.6398802 21.7141772,23.4152505 C22.3939301,23.1906207 23.2574001,24.8926934 24.1759851,25.5446676 C24.5153753,25.8282338 24.9572646,25.9603435 25.3977032,25.9099193 L27.8503252,25.9099193 C27.8503252,25.9099193 29.1363443,25.8094751 28.5300781,24.7630291 C28.0465092,23.9373067 27.4288406,23.1968043 26.7020939,22.5715191 C25.1588711,21.0913368 25.3701456,21.3305766 27.2256874,18.7701625 C28.355547,17.210538 28.8056537,16.2581443 28.6678659,15.8481493 C28.4202259,15.5880459 28.0587655,15.4672481 27.7033516,15.5258147 L24.9384107,15.5258147 C24.8142896,15.5151417 24.6897427,15.5408555 24.5801625,15.5997781 C24.4682434,15.6853399 24.3823889,15.8000809 24.3321445,15.931244 C24.0471375,16.7063951 23.7063809,17.4601517 23.3125152,18.186673 C22.0816112,20.3517022 21.5855753,20.4694959 21.3834866,20.3316134 C20.9150082,20.0174969 21.0344243,19.0724083 21.0344243,18.4012583 C21.0344243,16.3010613 21.3467432,15.4271967 20.437344,15.2053064 C20.0172146,15.1004434 19.584156,15.0558573 19.151325,15.0729026 C18.3771851,14.9975309 17.5957161,15.0801853 16.8548624,15.315795 C16.5425435,15.4755926 16.2945255,15.8298867 16.4414991,15.8508887 C16.7593249,15.8815966 17.0525948,16.0342394 17.2590398,16.2764068 C17.4518169,16.680868 17.546216,17.1247237 17.5346153,17.5721371 C17.5346153,17.5721371 17.6999606,20.0421514 17.1488096,20.3489628 C16.7813756,20.5589825 16.266968,20.1298118 15.1738518,18.165671 C14.7987912,17.4733732 14.4674595,16.7585319 14.1817799,16.0252963 C14.1313109,15.9027027 14.0526623,15.7935615 13.9521337,15.7066143 C13.8255328,15.6182304 13.6815147,15.5575418 13.5295846,15.5285541 L10.9024314,15.5285541 C10.708307,15.5290716 10.5202402,15.5957934 10.369652,15.7175718 C10.2937277,15.8690639 10.2870349,16.0457032 10.3512803,16.2024434 C10.3512803,16.2024434 12.4089108,21.2246537 14.7421168,23.7366719 C15.8833251,25.0688755 17.5388152,25.8581939 19.2982986,25.9090061 L20.4006006,25.9117455 Z" id="Path" fill="#FFFFFF"></path>
                </g>
            </g>
        </g>
    </g>
</svg>