<?xml version="1.0" encoding="UTF-8"?>
<svg width="40px" height="40px" viewBox="0 0 40 40" version="1.1" xmlns="http://www.w3.org/2000/svg" xmlns:xlink="http://www.w3.org/1999/xlink">
    <!-- Generator: Sketch 41 (35326) - http://www.bohemiancoding.com/sketch -->
    <title>Group 3</title>
    <desc>Created with Sketch.</desc>
    <defs></defs>
    <g id="slide" stroke="none" stroke-width="1" fill="none" fill-rule="evenodd">
        <g id="20161116-layout3-kudago" transform="translate(-3296.000000, -4861.000000)"></g>
        <g id="-collections-kudago" transform="translate(-1296.000000, -576.000000)">
            <g id="share" transform="translate(1267.000000, 552.000000)">
                <g id="Group-3" transform="translate(29.000000, 24.000000)">
                    <circle id="Oval-2-Copy-3" fill="#39579A" cx="20" cy="20" r="20"></circle>
                    <path d="M21.1735854,20.9277931 L24.4684657,20.9277931 L24.721918,17.4208244 L21.1735854,17.4208244 L21.1735854,15.5170415 C21.1735854,14.4148513 21.4270378,13.9138558 22.5929185,13.9138558 L24.721918,13.9138558 L24.823299,10.5571858 L24.5191562,10.5070863 C24.1136325,10.4569867 23.0998231,10.3567876 22.2887757,10.3567876 C20.6666808,10.3567876 19.602181,10.8076836 18.7911335,11.659376 C17.9800861,12.5110684 17.5745624,13.5631589 17.5745624,14.8657473 L17.5745624,17.3707249 L15.0400391,17.3707249 L15.0400391,20.8776935 L17.5745624,20.8776935 L17.5745624,29.8956128 L21.1735854,29.8956128 L21.1735854,20.9277931 Z" id="Shape" fill="#FFFFFF"></path>
                </g>
            </g>
        </g>
    </g>
</svg>