<?xml version="1.0" encoding="UTF-8"?>
<svg width="40px" height="40px" viewBox="0 0 40 40" version="1.1" xmlns="http://www.w3.org/2000/svg" xmlns:xlink="http://www.w3.org/1999/xlink">
    <!-- Generator: Sketch 41 (35326) - http://www.bohemiancoding.com/sketch -->
    <title>Group</title>
    <desc>Created with Sketch.</desc>
    <defs></defs>
    <g id="slide" stroke="none" stroke-width="1" fill="none" fill-rule="evenodd">
        <g id="-collections-kudago" transform="translate(-1344.000000, -552.000000)">
            <g id="share" transform="translate(1267.000000, 552.000000)">
                <g id="Group" transform="translate(77.000000, 0.000000)">
                    <circle id="Oval-2-Copy-2" fill="#3AAAE3" cx="20" cy="20" r="20"></circle>
                    <path d="M27.3014998,15.4366797 C28.1259273,14.9387361 28.6297441,14.259722 28.9045533,13.3996375 C28.1717288,13.807046 27.3931029,14.1239192 26.5686754,14.3049896 C25.835851,13.5354403 24.9198204,13.1732995 23.8663853,13.1732995 C22.8587517,13.1732995 21.9427212,13.5354403 21.2556983,14.259722 C20.5686754,14.9840037 20.2022632,15.8440882 20.2022632,16.8399754 C20.2022632,17.1568487 20.2480647,17.4737219 20.2938662,17.7000599 C17.2709655,17.5189895 14.5686754,16.1609614 12.6908128,13.9428488 C12.3702021,14.5313276 12.186996,15.1198065 12.186996,15.7082853 C12.186996,16.9757783 12.7366143,18.0169332 13.835851,18.7412148 C13.2404311,18.7412148 12.6908128,18.5601444 12.186996,18.2885388 L12.186996,18.3338064 C12.186996,19.1938909 12.4618052,20.0087078 13.0114235,20.6877218 C13.5610418,21.3667359 14.2938662,21.7741443 15.1182937,21.9552147 C14.797683,22.04575 14.4770723,22.0910176 14.1106601,22.0910176 C13.8816525,22.0910176 13.6526449,22.0910176 13.4236372,22.0004824 C13.6526449,22.724764 14.1106601,23.3132429 14.70608,23.8111865 C15.3473013,24.3091302 16.0343242,24.5354682 16.8587517,24.5354682 C15.3931029,25.7124259 13.8816525,26.2556372 12.2785991,26.2556372 C11.9579884,26.2556372 11.6831792,26.2556372 11.40837,26.2103696 C12.965622,27.2062569 14.8434845,27.7042005 17.0419578,27.7042005 C19.6984464,27.7042005 22.0343242,26.7988484 23.6831792,25.4408203 C24.5076067,24.7618062 25.1946296,23.9469893 25.7900494,23.0416373 C26.9808891,21.2309331 27.5305074,19.2391585 27.5305074,17.2926515 L27.5305074,16.7947078 C28.3091334,16.2514966 28.9045533,15.6177501 29.40837,14.8482009 C28.7213471,15.1650741 27.9885227,15.3461445 27.3014998,15.4366797 Z" id="Shape" fill="#FFFFFF"></path>
                </g>
            </g>
        </g>
    </g>
</svg>