<?xml version="1.0" encoding="utf-8"?>
<!-- Generator: Adobe Illustrator 21.0.0, SVG Export Plug-In . SVG Version: 6.00 Build 0)  -->
<svg version="1.1" id="Layer_1" xmlns="http://www.w3.org/2000/svg" xmlns:xlink="http://www.w3.org/1999/xlink" x="0px" y="0px"
	 viewBox="0 0 381 746" style="enable-background:new 0 0 381 746;" xml:space="preserve">
<style type="text/css">
	.st0{enable-background:new    ;}
	.st1{fill:#272727;}
	.st2{fill:#EC1D23;}
</style>
<title>ЗИМНИЙ ОТДЫХ</title>
<desc>Created with Sketch.</desc>
<g id="slide">
	<g id="вступление.kagocel" transform="translate(-253.000000, -9.000000)">
		<g class="st0">
			<path class="st1" d="M513.3,9.2V29h-20.2c-0.1,0.4-0.2,0.7-0.4,0.9c-0.8,2.6-1.6,5.4-2.2,8.4c-0.6,2.9-0.9,6.1-0.9,9.6
				c0,2.9,0.4,5.7,1.1,8.4s1.9,5.1,3.4,7.3c1.6,2.2,3.5,3.9,5.9,5.1c2.4,1.3,5.3,1.9,8.6,1.9c3.7,0,6.8-0.8,9.1-2.2
				c2.3-1.5,4.1-3.5,5.4-6s2.1-5.4,2.6-8.5c0.5-3.2,0.8-6.4,0.9-9.6v-5.4h19.3v5.2c0,2.5,0.2,5.1,0.7,7.8c0.5,2.7,1.3,5.1,2.5,7.3
				c1.2,2.2,2.8,4,5,5.4c2.1,1.4,4.8,2.2,8,2.2c2.8,0,5.1-0.5,7.1-1.6c2-1.1,3.6-2.6,4.9-4.5c1.3-1.9,2.2-4.1,2.8-6.7
				c0.6-2.5,0.9-5.3,0.9-8.3c0-5.6-0.6-10.6-1.8-14.8h-18.5V11h34.2c1.9,4.4,3.6,10.2,5.1,17.2c1.5,7,2.2,14.4,2.2,22.2
				c0,5.3-0.5,10.4-1.5,15.5c-1,5-2.8,9.5-5.2,13.5c-2.5,4-5.8,7.1-9.9,9.5c-4.1,2.4-9.3,3.6-15.6,3.6c-6.2,0-11.9-1.7-16.9-5
				c-5-3.3-8.8-8.6-11.2-15.9H538c-2,7.9-5.5,14-10.3,18.4c-4.8,4.3-11.5,6.5-20.2,6.5c-6.8,0-12.7-1.4-17.6-4.1
				c-4.9-2.8-9-6.4-12.2-10.9c-3.2-4.5-5.5-9.7-7-15.6c-1.5-5.9-2.2-11.9-2.2-18c0-7.9,0.7-15.2,2.1-21.9c1.4-6.7,3.2-12.3,5.3-16.8
				H513.3z"/>
			<path class="st1" d="M537.6,182.3l16.4,1.4v-0.9l-16.9-7.4L471,139.9V117h126v24.7h-65.3l-16.9-1.8v1.1l17.5,7.7l64.8,35.6V207
				H471v-24.7H537.6z"/>
			<path class="st1" d="M538.1,292.1l19.6,0.9V292l-32.9-20.2v-4.3l32.9-21.1v-0.9l-17.6,1.1H471v-23.4h126v25l-34.9,21.6v0.7
				L597,292v24.8H471v-24.7H538.1z"/>
			<path class="st1" d="M523.7,398.3v-40.7H471V333h126v24.7h-51.3v40.7H597V423H471v-24.7H523.7z"/>
			<path class="st1" d="M537.6,506.3l16.4,1.4v-0.9l-16.9-7.4L471,463.9V441h126v24.7h-65.3l-16.9-1.8v1.1l17.5,7.7l64.8,35.6V531
				H471v-24.7H537.6z"/>
			<path class="st1" d="M537.6,614.3l16.4,1.4v-0.9l-16.9-7.4L471,571.9V549h126v24.7h-65.3l-16.9-1.8v1.1l17.5,7.7l64.8,35.6V639
				H471v-24.7H537.6z M630.1,583.2c-3.8,0.5-6.6,1.9-8.3,4.2c-1.7,2.3-2.5,5.4-2.5,9.1c0,8,3.5,12.5,10.6,13.3l-3.1,20
				c-7.6-1.3-13.1-4.8-16.6-10.4c-3.5-5.6-5.2-13.3-5.2-23.1c0-4.9,0.4-9.4,1.1-13.5c0.7-4.1,1.9-7.6,3.5-10.7
				c1.6-3.1,3.8-5.6,6.6-7.6c2.8-2,6.2-3.2,10.3-3.7L630.1,583.2z"/>
		</g>
		<g class="st0">
			<path class="st2" d="M338,222.5c10.2,0,19.4,1,27.5,2.9c8.2,1.9,15,4.9,20.6,8.8s9.9,8.9,12.9,14.8c3,5.9,4.5,12.9,4.5,21
				c0,8.6-1.6,16-4.9,22c-3.2,6-7.7,10.9-13.5,14.7c-5.8,3.8-12.7,6.5-20.7,8.3c-8,1.7-16.9,2.6-26.5,2.6
				c-20.5,0-36.6-3.9-48.2-11.8c-11.6-7.9-17.4-19.8-17.4-35.7c0-8.6,1.6-16,4.9-22c3.2-6.1,7.7-11,13.5-14.8
				c5.8-3.8,12.7-6.5,20.7-8.2C319.6,223.3,328.4,222.5,338,222.5z M338,248.4c-6.1,0-11.8,0.3-17.1,0.8c-5.3,0.5-9.9,1.6-13.8,3.1
				c-3.9,1.5-7,3.7-9.3,6.5c-2.3,2.8-3.4,6.6-3.4,11.2c0,4.2,0.9,7.7,2.6,10.4c1.7,2.8,4.4,5,8,6.7c3.6,1.7,8.1,2.8,13.6,3.5
				c5.5,0.7,11.9,1,19.3,1c5.9,0,11.5-0.2,16.7-0.6c5.3-0.4,9.9-1.4,13.9-2.9c4-1.5,7.1-3.7,9.5-6.6s3.5-6.7,3.5-11.5
				c0-8.4-3.7-14.1-11-17.1C363.3,249.9,352.4,248.4,338,248.4z"/>
			<path class="st2" d="M294.8,345.2v20.5h86.4v-17.3h-21.8v-19.8H401v98.6h-41.6v-19.8h21.8v-17.1h-86.4v20.3H275v-65.5H294.8z"/>
			<path class="st2" d="M250.7,538.6V517H275v-62.6h-24.3v-21.6H297v10.6c2.3,1.2,5.7,2.7,10.3,4.4c4.6,1.7,10.7,3.4,18.5,4.9
				c7.7,1.5,17.3,2.7,28.8,3.7c11.5,1,25.2,1.3,41.3,0.9h5.2v68.2H297v13.1H250.7z M297,500.8H379v-21.2
				c-10.7-0.2-20.3-0.7-28.9-1.4c-8.6-0.7-16.3-1.6-23-2.7c-6.8-1.1-12.7-2.2-17.6-3.5c-5-1.3-9.2-2.6-12.5-3.9V500.8z"/>
			<path class="st2" d="M401,543.1v24.1h-45.2c0.2,0.8,0.5,2.2,0.9,4.2c0.4,1.9,0.5,4.3,0.5,7c0,5.1-0.8,9.8-2.4,14.4
				c-1.6,4.5-4.4,8.5-8.2,12c-3,2.6-6.9,4.8-11.6,6.4c-4.7,1.6-10.5,2.4-17.4,2.4c-6.1,0-12.1-0.8-17.9-2.4
				c-5.8-1.6-10.9-4.5-15.2-8.6c-3.5-3.4-6.2-7.7-8.3-13.1s-3.1-11.5-3.1-18.4c0-3.7,0.2-8,0.7-12.8c0.5-4.8,1.3-9.9,2.3-15.3H401z
				 M401,620.8v24.1H275v-24.1H401z M295.2,574.6c0,4.2,1.6,7.8,5,10.6c3.3,2.8,8.7,4.3,16.1,4.3c3.8,0,7-0.5,9.5-1.4
				c2.5-0.9,4.4-2.1,5.8-3.4c1.4-1.4,2.4-3,3-4.7c0.5-1.8,0.8-3.4,0.8-5c0-1.7-0.1-3.2-0.4-4.4c-0.2-1.3-0.5-2.4-0.7-3.4h-38.2
				c-0.4,1.5-0.6,2.6-0.7,3.5C295.2,571.6,295.2,572.9,295.2,574.6z"/>
			<path class="st2" d="M339.6,687.6L401,652v28.8l-34.2,18.4l-9.2,4.1l9.2,4l34.2,18.7v27.9l-61.6-36.2L275,754.9v-28.8l36-19.3
				l9.7-4.9l-9.7-4.7l-36-20.2v-27.9L339.6,687.6z"/>
		</g>
	</g>
</g>
</svg>
