<?xml version="1.0" encoding="utf-8"?>
<!-- Generator: Adobe Illustrator 21.0.0, SVG Export Plug-In . SVG Version: 6.00 Build 0)  -->
<svg version="1.1" id="Layer_1" xmlns="http://www.w3.org/2000/svg" xmlns:xlink="http://www.w3.org/1999/xlink" x="0px" y="0px"
	 viewBox="0 0 198.4 436.3" style="enable-background:new 0 0 198.4 436.3;" xml:space="preserve">
<style type="text/css">
	.st0{enable-background:new    ;}
	.st1{fill:#272727;}
	.st2{fill:#EC1D23;}
</style>
<title>ЗИМНИЙ ОТДЫХ</title>
<desc>Created with Sketch.</desc>
<g id="slide">
	<g id="Введение" transform="translate(-110.000000, 0.000000)">
		<g class="st0">
			<path class="st1" d="M242,0v10.1h-10.3c-0.1,0.2-0.1,0.3-0.2,0.5c-0.4,1.3-0.8,2.8-1.1,4.3c-0.3,1.5-0.5,3.1-0.5,4.9
				c0,1.5,0.2,2.9,0.6,4.3s1,2.6,1.7,3.7c0.8,1.1,1.8,2,3,2.6c1.2,0.6,2.7,1,4.4,1c1.9,0,3.4-0.4,4.6-1.1c1.2-0.8,2.1-1.8,2.8-3.1
				c0.6-1.3,1.1-2.7,1.3-4.4c0.2-1.6,0.4-3.3,0.5-4.9v-2.8h9.8v2.7c0,1.3,0.1,2.6,0.4,4c0.2,1.4,0.7,2.6,1.3,3.7s1.5,2,2.5,2.8
				c1.1,0.7,2.4,1.1,4.1,1.1c1.4,0,2.6-0.3,3.6-0.8c1-0.6,1.8-1.3,2.5-2.3c0.6-1,1.1-2.1,1.4-3.4c0.3-1.3,0.5-2.7,0.5-4.2
				c0-2.9-0.3-5.4-0.9-7.5h-9.5V0.9h17.5c1,2.3,1.9,5.2,2.6,8.8c0.8,3.6,1.2,7.4,1.2,11.4c0,2.7-0.3,5.3-0.8,7.9
				c-0.5,2.6-1.4,4.9-2.7,6.9c-1.3,2-2.9,3.6-5.1,4.9c-2.1,1.2-4.8,1.8-8,1.8c-3.2,0-6.1-0.8-8.6-2.5c-2.6-1.7-4.5-4.4-5.7-8.1h-0.5
				c-1,4-2.8,7.2-5.2,9.4c-2.5,2.2-5.9,3.3-10.3,3.3c-3.5,0-6.5-0.7-9-2.1c-2.5-1.4-4.6-3.3-6.2-5.6c-1.6-2.3-2.8-5-3.6-8
				c-0.8-3-1.2-6.1-1.2-9.2c0-4,0.4-7.8,1.1-11.2c0.7-3.4,1.6-6.3,2.7-8.6H242z"/>
			<path class="st1" d="M254.5,88.5l8.4,0.7v-0.5l-8.6-3.8l-33.8-18.2V55.1h64.4v12.6h-33.4l-8.6-0.9v0.6l8.9,4l33.1,18.2v11.6
				h-64.4V88.5H254.5z"/>
			<path class="st1" d="M254.7,144.6l10,0.5v-0.6l-16.8-10.3V132l16.8-10.8v-0.5l-9,0.6h-35.3v-12h64.4v12.8l-17.8,11v0.4l17.8,10.9
				v12.7h-64.4v-12.6H254.7z"/>
			<path class="st1" d="M247.4,198.9v-20.8h-27v-12.6h64.4v12.6h-26.2v20.8h26.2v12.6h-64.4v-12.6H247.4z"/>
			<path class="st1" d="M254.5,254.1l8.4,0.7v-0.5l-8.6-3.8l-33.8-18.2v-11.7h64.4v12.6h-33.4l-8.6-0.9v0.6l8.9,4l33.1,18.2v11.6
				h-64.4v-12.6H254.5z"/>
			<path class="st1" d="M254.5,309.3l8.4,0.7v-0.5l-8.6-3.8l-33.8-18.2v-11.7h64.4v12.6h-33.4l-8.6-0.9v0.6l8.9,4l33.1,18.2v11.6
				h-64.4v-12.6H254.5z M301.7,293.4c-2,0.2-3.4,1-4.2,2.2c-0.9,1.2-1.3,2.7-1.3,4.6c0,4.1,1.8,6.4,5.4,6.8l-1.6,10.2
				c-3.9-0.7-6.7-2.4-8.5-5.3c-1.8-2.9-2.7-6.8-2.7-11.8c0-2.5,0.2-4.8,0.6-6.9c0.4-2.1,1-3.9,1.8-5.5c0.8-1.6,1.9-2.9,3.4-3.9
				c1.4-1,3.2-1.6,5.2-1.9L301.7,293.4z"/>
		</g>
		<g class="st0">
			<path class="st2" d="M154.6,164.2c5.2,0,9.9,0.5,14.1,1.5c4.2,1,7.7,2.5,10.5,4.5c2.9,2,5,4.6,6.6,7.6c1.5,3,2.3,6.6,2.3,10.7
				c0,4.4-0.8,8.2-2.5,11.2c-1.7,3.1-4,5.6-6.9,7.5c-2.9,1.9-6.5,3.3-10.6,4.2c-4.1,0.9-8.6,1.3-13.5,1.3c-10.5,0-18.7-2-24.6-6
				c-5.9-4-8.9-10.1-8.9-18.3c0-4.4,0.8-8.2,2.5-11.3c1.7-3.1,4-5.6,6.9-7.5c2.9-1.9,6.5-3.3,10.6-4.2
				C145.2,164.6,149.7,164.2,154.6,164.2z M154.6,177.5c-3.1,0-6,0.1-8.7,0.4c-2.7,0.3-5,0.8-7,1.6c-2,0.8-3.6,1.9-4.7,3.3
				c-1.2,1.4-1.7,3.4-1.7,5.8c0,2.1,0.4,3.9,1.3,5.3c0.9,1.4,2.3,2.5,4.1,3.4c1.8,0.9,4.2,1.5,6.9,1.8c2.8,0.3,6.1,0.5,9.9,0.5
				c3,0,5.9-0.1,8.6-0.3c2.7-0.2,5.1-0.7,7.1-1.5c2-0.8,3.6-1.9,4.8-3.4c1.2-1.5,1.8-3.4,1.8-5.9c0-4.3-1.9-7.2-5.6-8.7
				C167.5,178.2,162,177.5,154.6,177.5z"/>
			<path class="st2" d="M132.5,227v10.5h44.2v-8.8h-11.1v-10.1h21.3v50.4h-21.3v-10.1h11.1v-8.7h-44.2v10.4h-10.1V227H132.5z"/>
			<path class="st2" d="M110,325.8v-11h12.4v-32H110v-11h23.6v5.4c1.2,0.6,2.9,1.4,5.2,2.3c2.3,0.9,5.5,1.7,9.4,2.5
				c4,0.8,8.9,1.4,14.7,1.9c5.9,0.5,12.9,0.6,21.1,0.5h2.7v34.9h-53.2v6.7H110z M133.6,306.5h42v-10.9c-5.5-0.1-10.4-0.4-14.8-0.7
				c-4.4-0.4-8.3-0.8-11.8-1.4c-3.5-0.5-6.5-1.1-9-1.8c-2.5-0.7-4.7-1.3-6.4-2V306.5z"/>
			<path class="st2" d="M186.8,328.1v12.3h-23.1c0.1,0.4,0.3,1.1,0.5,2.1c0.2,1,0.3,2.2,0.3,3.6c0,2.6-0.4,5-1.2,7.3
				s-2.2,4.4-4.2,6.1c-1.5,1.4-3.5,2.4-5.9,3.3c-2.4,0.8-5.4,1.2-8.9,1.2c-3.1,0-6.2-0.4-9.2-1.2c-3-0.8-5.6-2.3-7.8-4.4
				c-1.8-1.7-3.2-4-4.2-6.7c-1-2.8-1.6-5.9-1.6-9.4c0-1.9,0.1-4.1,0.4-6.5c0.2-2.5,0.6-5.1,1.2-7.8H186.8z M186.8,367.8v12.3h-64.4
				v-12.3H186.8z M132.7,344.2c0,2.2,0.8,4,2.5,5.4c1.7,1.5,4.4,2.2,8.2,2.2c2,0,3.6-0.2,4.8-0.7c1.3-0.5,2.3-1.1,3-1.8
				c0.7-0.7,1.2-1.5,1.5-2.4c0.3-0.9,0.4-1.7,0.4-2.5c0-0.9-0.1-1.6-0.2-2.3c-0.1-0.7-0.2-1.2-0.4-1.7h-19.5
				c-0.2,0.7-0.3,1.3-0.4,1.8C132.8,342.7,132.7,343.3,132.7,344.2z"/>
			<path class="st2" d="M155.4,401.9l31.4-18.2v14.7l-17.5,9.4l-4.7,2.1l4.7,2l17.5,9.6v14.3l-31.5-18.5l-32.9,19v-14.7l18.4-9.8
				l5-2.5l-5-2.4l-18.4-10.3v-14.3L155.4,401.9z"/>
		</g>
	</g>
</g>
</svg>
