<?xml version="1.0" encoding="UTF-8" standalone="no"?>
<svg width="48px" height="48px" viewBox="0 0 48 48" version="1.1" xmlns="http://www.w3.org/2000/svg" xmlns:xlink="http://www.w3.org/1999/xlink" style="background: #FFFFFF;">
    <!-- Generator: Sketch 41.2 (35397) - http://www.bohemiancoding.com/sketch -->
    <title>места и события copy</title>
    <desc>Created with Sketch.</desc>
    <defs></defs>
    <g id="slide" stroke="none" stroke-width="1" fill="none" fill-rule="evenodd">
        <g id="20161117-layout3-kudago" transform="translate(-3534.000000, -258.000000)"></g>
        <g id="места-и-события-copy">
            <g id="места">
                <rect id="Rectangle-2" x="0" y="0" width="48" height="48"></rect>
                <path d="M34.1883308,33.0090875 C37.1475522,30.2691702 39,26.3509163 39,22 C39,13.7157288 32.2842712,7 24,7 C15.7157288,7 9,13.7157288 9,22 C9,26.3509489 10.8524756,30.2692289 13.8117357,33.0091491 C12.7945849,33.1059814 12,33.9595018 12,34.9981014 L12,39.0018986 C12,40.1132936 12.8976452,41 14.0049466,41 L33.9950534,41 C35.1029738,41 36,40.1054196 36,39.0018986 L36,34.9981014 C36,33.9521469 35.2049519,33.1052001 34.1883308,33.0090875 Z" id="Combined-Shape" stroke="#222629" stroke-width="2"></path>
                <path d="M10.3831028,27.9820707 C10.3831028,27.9820707 14.082228,24.9845281 18.0779528,24.9845281 C22.0736777,24.9845281 27.0651175,27.0787017 31.0629571,27.0787017 C35.0607968,27.0787017 38.0918236,25.9411194 38.0918236,25.9411194" id="Path-2" stroke="#222629" stroke-width="2" stroke-linecap="round"></path>
                <path d="M20.0452937,10.6669164 C16.609708,11.8656633 13.8860342,14.5824997 12.6779856,18.0137123" id="Oval-2" stroke="#222629" stroke-width="2" stroke-linecap="round"></path>
                <g id="кружки" transform="translate(13.000000, 11.000000)" fill="#EC1D23">
                    <ellipse id="Oval" cx="2" cy="10" rx="1" ry="1"></ellipse>
                    <ellipse id="Oval-Copy-2" cx="14" cy="1" rx="1" ry="1"></ellipse>
                    <ellipse id="Oval-Copy-4" cx="6.5" cy="4.5" rx="1.5" ry="1.5"></ellipse>
                    <ellipse id="Oval-Copy-5" cx="19" cy="5" rx="1" ry="1"></ellipse>
                    <ellipse id="Oval-Copy-6" cx="13.5" cy="10.5" rx="1.5" ry="1.5"></ellipse>
                    <ellipse id="Oval-Copy-7" cx="20" cy="10" rx="1" ry="1"></ellipse>
                    <ellipse id="Oval-Copy" cx="0.5" cy="12.5" rx="0.5" ry="0.5"></ellipse>
                    <ellipse id="Oval-Copy-3" cx="12.5" cy="3.5" rx="0.5" ry="0.5"></ellipse>
                    <ellipse id="Oval-Copy-9" cx="9.5" cy="8.5" rx="0.5" ry="0.5"></ellipse>
                    <ellipse id="Oval-Copy-10" cx="7.5" cy="9.5" rx="0.5" ry="0.5"></ellipse>
                    <ellipse id="Oval-Copy-8" cx="22.5" cy="12.5" rx="0.5" ry="0.5"></ellipse>
                </g>
                <rect id="Rectangle" stroke="#222629" stroke-width="2" x="12" y="33" width="24" height="8" rx="2"></rect>
            </g>
        </g>
    </g>
</svg>