<?xml version="1.0" encoding="UTF-8" standalone="no"?>
<svg width="48px" height="48px" viewBox="0 0 48 48" version="1.1" xmlns="http://www.w3.org/2000/svg" xmlns:xlink="http://www.w3.org/1999/xlink" style="background: #FFFFFF;">
    <!-- Generator: Sketch 41.2 (35397) - http://www.bohemiancoding.com/sketch -->
    <title>городские события copy</title>
    <desc>Created with Sketch.</desc>
    <defs></defs>
    <g id="slide" stroke="none" stroke-width="1" fill="none" fill-rule="evenodd">
        <g id="20161117-layout3-kudago" transform="translate(-3670.000000, -258.000000)"></g>
        <g id="городские-события-copy">
            <g id="городские-события">
                <rect id="Rectangle-2" x="0" y="0" width="48" height="48"></rect>
                <g id="Group" transform="translate(8.000000, 6.000000)">
                    <path d="M14,10.010146 L15.8615,3.50435625 C15.998668,2.83045057 16.2216439,2.83331346 16.3582292,3.50435625 L18.1059699,10.010146" id="Triangle" stroke="#222629" stroke-width="2" stroke-linecap="round"></path>
                    <path d="M9.96204438,17.5916425 C9.98300669,16.4876835 10.2872343,14.7532197 10.6471212,13.7013427 L10.9676504,12.7645003 C11.1480222,12.2373098 11.4997206,12.2031074 11.7590313,12.6992823 L12.7494968,14.5944766 C13.0061926,15.0856482 13.4703853,15.1179782 13.7892861,14.6624222 L15.414375,12.3409512 C15.7319389,11.887305 16.2474359,11.8853952 16.5687786,12.3409512 L18.206311,14.6624222 C18.5263066,15.1160685 18.9921868,15.0894425 19.2527523,14.5917418 L20.2480104,12.6907197 C20.5059484,12.1980377 20.8574703,12.2191725 21.032677,12.7365096 L21.3575242,13.695694 C21.7123538,14.743408 22.0050734,16.4891198 22.011375,17.6024913 L22.0079257,16.9930564 C22.0110733,17.549176 21.5701248,18 21.0061948,18 L10.9617204,18 C10.4053322,18 9.96267422,17.5584729 9.97341052,16.9930564 L9.96204438,17.5916425 Z" id="Rectangle-Copy-14" stroke="#222629" stroke-width="2" stroke-linecap="round"></path>
                    <g transform="translate(2.000000, 3.000000)" id="Path-2" stroke="#EC1D23" stroke-width="2" stroke-linecap="round">
                        <path d="M0,2 L4,2"></path>
                        <path d="M2,0 L2,4"></path>
                    </g>
                    <ellipse id="Oval-Copy-6" fill="#EC1D23" cx="1.5" cy="13.5" rx="1.5" ry="1.5"></ellipse>
                    <ellipse id="Oval-Copy-7" fill="#EC1D23" cx="30.5" cy="21.5" rx="1.5" ry="1.5"></ellipse>
                    <g id="Group-Copy" transform="translate(28.828427, 9.828427) rotate(-315.000000) translate(-28.828427, -9.828427) translate(26.828427, 7.828427)" stroke="#EC1D23" stroke-width="2" stroke-linecap="round">
                        <path d="M0,2 L4,2" id="Path-2"></path>
                        <path d="M2,0 L2,4" id="Path-2"></path>
                    </g>
                    <ellipse id="Oval" fill="#EC1D23" cx="23.7408889" cy="0.75197571" rx="0.740888889" ry="0.75197571"></ellipse>
                    <ellipse id="Oval-Copy" fill="#EC1D23" cx="9.74088889" cy="6.75197571" rx="0.740888889" ry="0.75197571"></ellipse>
                    <ellipse id="Oval-Copy-2" fill="#EC1D23" cx="25.7408889" cy="2.75197571" rx="0.740888889" ry="0.75197571"></ellipse>
                    <rect id="Rectangle-Copy-13" stroke="#222629" stroke-width="2" stroke-linecap="round" x="8" y="18" width="16" height="16" rx="1"></rect>
                    <circle id="Oval-3" stroke="#222629" stroke-width="2" stroke-linecap="round" cx="16" cy="26" r="5"></circle>
                    <path d="M16,26 L18.0118524,24.9918329" id="Path-2" stroke="#EC1D23" stroke-width="2" stroke-linecap="round"></path>
                    <path d="M15.9758301,26 L15.0011076,27.9991264" id="Path-2" stroke="#EC1D23" stroke-width="2" stroke-linecap="round"></path>
                </g>
            </g>
        </g>
    </g>
</svg>