<?xml version="1.0" encoding="UTF-8" standalone="no"?>
<svg width="48px" height="48px" viewBox="0 0 48 48" version="1.1" xmlns="http://www.w3.org/2000/svg" xmlns:xlink="http://www.w3.org/1999/xlink" style="background: #FFFFFF;">
    <!-- Generator: Sketch 41.2 (35397) - http://www.bohemiancoding.com/sketch -->
    <title>елка copy</title>
    <desc>Created with Sketch.</desc>
    <defs></defs>
    <g id="slide" stroke="none" stroke-width="1" fill="none" fill-rule="evenodd">
        <g id="20161117-layout3-kudago" transform="translate(-3602.000000, -258.000000)"></g>
        <g id="елка-copy">
            <g id="елка">
                <rect id="Rectangle-2" x="0" y="0" width="48" height="48"></rect>
                <g id="Group" transform="translate(12.000000, 4.000000)">
                    <path d="M12,35 C12,35 12,35.1958153 12,35.4344758 L12,38.6253811" id="Shape" stroke="#222629" stroke-width="2" stroke-linecap="round"></path>
                    <path d="M8,22.4591411 C8,22.4591411 8.1900805,22.0622647 8.42940075,21.5625787 L13.7129629,10.530825" id="Shape" stroke="#EC1D23" stroke-width="2" stroke-linecap="round"></path>
                    <path d="M11,22.4591411 C11,22.4591411 11.1940791,22.0539158 11.4306235,21.5600257 L15.0238596,14.0575691" id="Shape-Copy" stroke="#EC1D23" stroke-width="2" stroke-linecap="round"></path>
                    <path d="M9,35.4591411 C9,35.4591411 9.19144486,35.059416 9.42964791,34.5620626 L14.9671969,23" id="Shape-Copy-2" stroke="#EC1D23" stroke-width="2"></path>
                    <path d="M18.3706667,23.6062633 C18.3706667,23.6062633 18.5663197,24.0103445 18.8066282,24.5066525 L23.4320385,34.0594893 C23.6728134,34.5567606 23.4150369,34.9598786 22.8632544,34.9598786 L1.13674556,34.9598786 C0.581839908,34.9598786 0.329187351,34.5526506 0.566749383,34.0620417 L5.23769506,24.4156855" id="Shape" stroke="#222629" stroke-width="2" stroke-linecap="round"></path>
                    <path d="M14.6792728,11.1713041 L20.0797631,22.3249356 C20.3221628,22.8255638 20.0629592,23.2314032 19.5165105,23.2314032 L4.48348953,23.2314032 C3.93001394,23.2314032 3.67398456,22.8335157 3.91948098,22.3264856 L9.72096346,10.3445358" id="Shape" stroke="#222629" stroke-width="2" stroke-linecap="round"></path>
                    <ellipse id="Oval" fill="#EC1D23" cx="16.7408889" cy="20.7519757" rx="0.740888889" ry="0.75197571"></ellipse>
                    <ellipse id="Oval" fill="#EC1D23" cx="17.7408889" cy="30.7519757" rx="0.740888889" ry="0.75197571"></ellipse>
                    <ellipse id="Oval" fill="#EC1D23" cx="7.74088889" cy="26.7519757" rx="0.740888889" ry="0.75197571"></ellipse>
                    <ellipse id="Oval" fill="#EC1D23" cx="6.74088889" cy="31.7519757" rx="0.740888889" ry="0.75197571"></ellipse>
                    <path d="M11.6922397,1.20763371 C11.8622117,0.676661435 12.1339251,0.664585759 12.3077627,1.20763371 L13.4208877,4.68490368 C13.4376276,4.7371972 13.503952,4.77958947 13.5493099,4.77958947 L17.1524005,4.77958947 C17.7025853,4.77958947 17.7842003,5.04405356 17.3426319,5.36452452 L14.4275783,7.48014256 C14.3837397,7.51195865 14.3645048,7.58842327 14.3785223,7.63199154 L15.4920307,11.0929217 C15.6620612,11.6213989 15.4355481,11.7801466 14.9940377,11.4533699 L12.0793674,9.29612421 C12.0355347,9.2636821 11.9573266,9.26878522 11.9206349,9.29578521 L9.00596464,11.4405815 C8.56090023,11.7680877 8.33925108,11.6027963 8.50786576,11.0807787 L9.62099076,7.63463219 C9.63773068,7.58280673 9.60862645,7.50978427 9.57193482,7.48312221 L6.65726452,5.36516991 C6.2122001,5.04176276 6.30181059,4.77958947 6.84760188,4.77958947 L10.4506925,4.77958947 C10.5048782,4.77958947 10.565102,4.72867764 10.5791147,4.68490368 L11.6922397,1.20763371 Z" id="Shape" stroke="#222629" stroke-width="2"></path>
                </g>
            </g>
        </g>
    </g>
</svg>