<?xml version="1.0" encoding="UTF-8" standalone="no"?>
<svg width="48px" height="48px" viewBox="0 0 48 48" version="1.1" xmlns="http://www.w3.org/2000/svg" xmlns:xlink="http://www.w3.org/1999/xlink">
    <!-- Generator: Sketch 41 (35326) - http://www.bohemiancoding.com/sketch -->
    <title>встреча</title>
    <desc>Created with Sketch.</desc>
    <defs></defs>
    <g id="slide" stroke="none" stroke-width="1" fill="none" fill-rule="evenodd">
        <g id="20161117-layout3-kudago" transform="translate(-3814.000000, -185.000000)"></g>
        <g id="встреча">
            <g>
                <rect id="Rectangle-2" x="0" y="0" width="48" height="48"></rect>
                <g id="Group" transform="translate(7.000000, 9.000000)" stroke="#EC1D23" stroke-width="2" stroke-linecap="round">
                    <path d="M0,2 L4,2" id="Path-2"></path>
                    <path d="M2,0 L2,4" id="Path-2"></path>
                </g>
                <g id="Group-Copy" transform="translate(41.000000, 31.000000) rotate(-315.000000) translate(-41.000000, -31.000000) translate(39.000000, 29.000000)" stroke="#EC1D23" stroke-width="2" stroke-linecap="round">
                    <path d="M0,2 L4,2" id="Path-2"></path>
                    <path d="M2,0 L2,4" id="Path-2"></path>
                </g>
                <path d="M14,19 L33.9476501,19" id="Path-2" stroke="#EC1D23" stroke-width="2" stroke-linecap="round"></path>
                <g id="Group-2" transform="translate(16.633580, 26.368010) rotate(14.000000) translate(-16.633580, -26.368010) translate(11.633580, 14.868010)" stroke="#272727" stroke-width="2" stroke-linecap="round">
                    <path d="M2.5,22.1481481 L7.5,22.1481481" id="Path-2-Copy"></path>
                    <path d="M0.812443828,0.0865903914 C0.823980783,0.0387678387 0.88654836,-2.0250468e-13 0.926920573,-2.0250468e-13 L9.07307943,-2.0250468e-13 C9.12476623,-2.0250468e-13 9.17617013,0.039300024 9.19103917,0.102392968 C9.19103917,0.102392968 12.5599569,13.7005759 5.00005738,13.6296296 C-2.55984215,13.5586834 0.812443828,0.0865903914 0.812443828,0.0865903914 Z" id="Rectangle-3"></path>
                    <path d="M5,22.1481481 L5,13.6296296" id="Path-2-Copy"></path>
                </g>
                <g id="Group-2-Copy" transform="translate(31.633580, 26.368010) rotate(-15.000000) translate(-31.633580, -26.368010) translate(26.633580, 14.868010)" stroke="#272727" stroke-width="2" stroke-linecap="round">
                    <path d="M2.5,22.1481481 L7.5,22.1481481" id="Path-2-Copy"></path>
                    <path d="M0.812443828,0.0865903914 C0.823980783,0.0387678387 0.88654836,-2.0250468e-13 0.926920573,-2.0250468e-13 L9.07307943,-2.0250468e-13 C9.12476623,-2.0250468e-13 9.17617013,0.039300024 9.19103917,0.102392968 C9.19103917,0.102392968 12.5599569,13.7005759 5.00005738,13.6296296 C-2.55984215,13.5586834 0.812443828,0.0865903914 0.812443828,0.0865903914 Z" id="Rectangle-3"></path>
                    <path d="M5,22.1481481 L5,13.6296296" id="Path-2-Copy"></path>
                </g>
            </g>
        </g>
    </g>
</svg>