<?xml version="1.0" encoding="UTF-8" standalone="no"?>
<svg width="48px" height="48px" viewBox="0 0 48 48" version="1.1" xmlns="http://www.w3.org/2000/svg" xmlns:xlink="http://www.w3.org/1999/xlink" style="background: #FFFFFF;">
    <!-- Generator: Sketch 41.2 (35397) - http://www.bohemiancoding.com/sketch -->
    <title>подарок copy</title>
    <desc>Created with Sketch.</desc>
    <defs></defs>
    <g id="slide" stroke="none" stroke-width="1" fill="none" fill-rule="evenodd">
        <g id="20161117-layout3-kudago" transform="translate(-3738.000000, -258.000000)"></g>
        <g id="подарок-copy">
            <g id="подарок">
                <rect id="Rectangle-2" x="0" y="0" width="48" height="48"></rect>
                <g id="Group" transform="translate(10.000000, 10.000000)" stroke-width="2">
                    <rect id="Rectangle-Copy" stroke="#EC1D23" x="10" y="13" width="8" height="16" rx="1"></rect>
                    <rect id="Rectangle-Copy" stroke="#222629" x="2" y="13" width="24" height="16" rx="1"></rect>
                    <path d="M10.2065803,6.01678122 C10.2065803,6.01678122 5.64380906,5.83988679 5.64226713,3.55941558 C5.6407252,1.27894438 7.96160893,0.0141448913 9.19839962,0.0137799515 C10.4351903,0.0134150116 12.8069942,3.55310547 14.0213934,3.55941558 C15.2357926,3.5657257 17.5351633,0.00214209385 18.7740868,2.6726637e-06 C20.0130102,-0.00213674853 22.3840773,1.28022139 22.3936274,3.59405254 C22.4031775,5.9078837 20.1786258,6.06687773 17.8827067,6.06687773 C15.5867877,6.06687773 10.2065803,6.01678122 10.2065803,6.01678122 Z" id="Path-2" stroke="#EC1D23"></path>
                    <rect id="Rectangle-Copy" stroke="#EC1D23" fill="#FFFFFF" transform="translate(14.000000, 4.000000) scale(1, -1) translate(-14.000000, -4.000000) " x="11" y="2" width="6" height="4" rx="2"></rect>
                    <rect id="Rectangle" stroke="#222629" x="0" y="6" width="28" height="7" rx="1"></rect>
                </g>
            </g>
        </g>
    </g>
</svg>