<?xml version="1.0" encoding="UTF-8" standalone="no"?>
<svg width="48px" height="48px" viewBox="0 0 48 48" version="1.1" xmlns="http://www.w3.org/2000/svg" xmlns:xlink="http://www.w3.org/1999/xlink">
    <!-- Generator: Sketch 41 (35326) - http://www.bohemiancoding.com/sketch -->
    <title>спорт</title>
    <desc>Created with Sketch.</desc>
    <defs></defs>
    <g id="slide" stroke="none" stroke-width="1" fill="none" fill-rule="evenodd">
        <g id="20161117-layout3-kudago" transform="translate(-3882.000000, -185.000000)"></g>
        <g id="спорт">
            <g>
                <rect id="Rectangle-2" x="0" y="0" width="48" height="48"></rect>
                <g id="Group-40" transform="translate(8.000000, 8.000000)">
                    <path d="M11.972,22.035 L7.972,22.035 C7.42,22.035 6.972,22.483 6.972,23.035 C6.972,23.587 7.42,24.035 7.972,24.035 L11.972,24.035 C12.525,24.035 12.972,23.587 12.972,23.035 C12.972,22.483 12.525,22.035 11.972,22.035" id="Fill-95" fill="#EC1D23"></path>
                    <path d="M25.972,22.035 L21.972,22.035 C21.42,22.035 20.972,22.483 20.972,23.035 C20.972,23.587 21.42,24.035 21.972,24.035 L25.972,24.035 C26.525,24.035 26.972,23.587 26.972,23.035 C26.972,22.483 26.525,22.035 25.972,22.035" id="Fill-96" fill="#EC1D23"></path>
                    <path d="M13,26 L21,26 L21,24 L13,24 L13,26 Z M21.972,22 L11.972,22 C11.709,22 11.465,22.124 11.279,22.31 C11.093,22.497 11,22.772 11,23.035 L11,27.035 C11,27.298 11.093,27.538 11.279,27.725 C11.465,27.911 11.709,28 11.972,28 L21.972,28 C22.236,28 22.493,27.893 22.68,27.707 C22.866,27.521 22.972,27 22.972,27 L23,27 L23,23.035 C23,22.772 22.88,22.497 22.693,22.31 C22.507,22.124 22.236,22 21.972,22 L21.972,22 Z" id="Fill-102" fill="#272727"></path>
                    <path d="M2,19 L31.9767618,19" id="Path-2" stroke="#EC1D23" stroke-width="2"></path>
                    <path d="M11.4689424,4.66666667 L15.5092561,4.66666667" id="Path-2-Copy" stroke="#EC1D23" stroke-width="2" stroke-linecap="round"></path>
                    <path d="M13.131692,9.37756411 L15.5092561,7" id="Path-2-Copy-2" stroke="#EC1D23" stroke-width="2" stroke-linecap="round"></path>
                    <path d="M16.131692,12.3775641 L18.5092561,10" id="Path-2-Copy-3" stroke="#EC1D23" stroke-width="2" stroke-linecap="round"></path>
                    <path d="M19.5,14.5 L21.5,12.5" id="Path-2-Copy-4" stroke="#EC1D23" stroke-width="2" stroke-linecap="round"></path>
                    <path d="M31,22 L25.972,22 C25.709,22 25.465,22.124 25.279,22.31 C25.093,22.497 25,22.772 25,23.035 L25,27.035 C25,27.298 25.093,27.538 25.279,27.725 C25.465,27.911 25.709,28 25.972,28 L29.972,28 C30.524,28 30.971,28.448 30.972,29 C30.971,29.552 30.524,30 29.972,30 L3.972,30 C3.421,30 2.973,29.552 2.972,29 C2.973,28.448 3.421,28 3.972,28 L7.972,28 C8.236,28 8.507,27.911 8.693,27.725 C8.88,27.538 9,27.298 9,27.035 L9,23.035 C9,22.772 8.88,22.497 8.693,22.31 C8.507,22.124 8.236,22 7.972,22 L3,22 L3,3.035 C3,2.483 3.421,2 3.972,2 L13.972,2 C14.524,2 15,2.483 15,3.035 L15,7.035 C15,7.298 15.093,7.538 15.279,7.725 C15.301,7.746 15.33,7.754 15.353,7.773 L23.337,15.725 C23.523,15.911 23.795,16 24.058,16 L28.972,16 C30.077,16 31,16.931 31,18.035 L31,22 L31,22 Z M28.972,14 L24.473,14 L17,6.527 L17,3.035 C17,1.378 15.63,0 13.972,0 L3.972,0 C2.315,0 1,1.378 1,3.035 L1,22.035 C1,23.14 1.867,24 2.972,24 L7,24 L7,26 L3.972,26 C2.315,26 0.973,27.343 0.972,29 C0.973,30.657 2.315,32 3.972,32 L29.972,32 C31.63,32 32.972,30.657 32.972,29 C32.972,27.343 31.63,26 29.972,26 L27,26 L27,24 L31,24 L31,24.035 C32,24.034 33,23.14 33,22.035 L33,18.035 C33,15.826 31.182,14 28.972,14 L28.972,14 Z" id="Fill-103" fill="#272727"></path>
                </g>
            </g>
        </g>
    </g>
</svg>